<svg width="82" height="86" viewBox="0 0 82 86" fill="none" xmlns="http://www.w3.org/2000/svg">
<path d="M75.2761 0.142822C77.8721 1.03719 79.4774 3.12555 81.0404 5.16471C82.1449 6.60465 81.8229 8.71313 80.5753 10.1218C79.9642 10.8107 79.314 11.464 78.6278 12.0782C76.8547 13.6612 74.3259 13.5651 72.564 11.8859C71.4125 10.7858 71.4102 10.7836 70.328 11.915C69.939 12.3152 69.6215 12.8093 69.181 13.1313C67.6293 14.2761 67.1821 15.7898 67.3923 17.6501C67.5197 18.8083 67.3788 19.9934 67.4437 21.1605C67.4654 21.3381 67.5237 21.5093 67.6149 21.6632C67.7061 21.8172 67.8283 21.9505 67.9736 22.0549C69.5142 23.0052 70.3862 24.3534 70.2431 26.1489C70.0485 28.595 70.7148 30.7325 71.7926 32.926C74.8325 39.1045 76.6371 45.8171 77.1051 52.6871C77.3287 55.8174 77.4875 58.9924 77.2795 62.1227C76.9643 66.8472 73.6305 69.8657 68.8948 70.1474C68.4767 70.1474 68.0586 70.1206 67.6427 70.1206C62.2921 70.1206 56.9415 70.143 51.591 70.1206C47.4791 70.1049 43.8055 67.2251 43.318 63.1445C43.0001 60.1278 43.0347 57.0843 43.4209 54.0756C44.0134 49.1096 46.3567 44.9083 49.8738 41.3308C51.4375 39.7719 52.7231 37.957 53.6749 35.9646C55.278 32.6286 56.4295 29.1942 55.989 25.4088C56.0435 24.7232 56.2714 24.0627 56.6511 23.4894C57.0309 22.916 57.5501 22.4486 58.1601 22.1309C58.3833 22.0253 58.568 21.8526 58.6882 21.6369C58.8085 21.4212 58.8584 21.1734 58.8309 20.928C58.8085 19.1706 58.8309 17.4154 58.8153 15.6579C58.8153 15.3605 58.8152 15.0006 58.6498 14.7635C57.8735 13.6228 57.0061 12.5467 56.0561 11.546C56.0338 11.8278 55.998 12.1095 55.9935 12.3912C55.9667 14.1464 55.9935 15.9039 55.9085 17.6568C55.8504 18.9984 55.1662 20.0291 54.1198 20.8251C52.7782 21.8313 51.4546 22.8509 50.0951 23.8325C48.0381 25.3261 45.3997 24.9951 43.9821 23.0901C42.5086 21.1069 42.8239 18.3746 45.0129 17.0084C46.9514 15.7988 47.7295 14.3253 47.3539 12.1363C47.3427 11.9972 47.3427 11.8574 47.3539 11.7182C47.3539 10.2872 47.3539 10.2872 45.9028 10.1531C44.237 10.01 43.1481 8.86293 43.119 7.17705C43.1012 6.03225 43.1772 4.88522 43.0989 3.74714C42.9737 1.9897 43.649 0.782297 45.3036 0.142822H75.2761ZM72.9351 3.01822C66.6119 3.00928 60.288 2.99885 53.9633 2.98692C53.3372 2.98692 53.1248 3.24405 53.1427 3.83881C53.1673 4.70188 53.1718 5.56718 53.1427 6.42801C53.1181 7.06301 53.3462 7.36263 54.008 7.32238C54.5648 7.29331 55.126 7.3358 55.6805 7.32238C56.0007 7.29651 56.322 7.35916 56.609 7.50348C56.8961 7.6478 57.138 7.86825 57.3082 8.14073C57.8158 8.87188 58.3614 9.57843 58.9092 10.2827C59.609 11.1771 60.159 12.4002 61.0825 12.8563C62.0059 13.3124 63.3184 12.9748 64.452 13.0352C64.7423 13.0532 65.0326 13.0017 65.299 12.8851C65.5653 12.7684 65.8 12.5899 65.9836 12.3644C67.4116 10.8425 68.8583 9.33621 70.3236 7.84559C71.0368 7.11891 71.7836 7.13233 72.5237 7.8277C73.1721 8.43811 73.8071 9.06417 74.4488 9.68128C75.3589 10.5757 76.0721 10.5935 76.9598 9.74389C77.3801 9.34142 77.7923 8.92927 78.1963 8.50742C78.9654 7.70249 78.9922 6.94227 78.2365 6.08591C77.7178 5.50681 77.0872 5.02385 76.6132 4.41568C75.6518 3.18592 74.422 2.77674 72.9351 3.01822ZM68.9105 67.2497C69.5633 67.1267 70.252 67.0954 70.8624 66.8673C73.266 65.973 74.5875 63.8891 74.5629 60.8952C74.5428 58.2523 74.46 55.605 74.2677 52.9688C73.7825 46.2767 71.9871 39.9155 69.0916 33.8785C67.75 31.0925 68.5862 31.6425 65.3911 31.6202C63.4682 31.6202 61.5431 31.656 59.6247 31.5755C58.6699 31.5352 58.2429 31.8661 57.9857 32.7762C56.7649 37.1049 54.4954 40.7987 51.3092 43.9938C49.1762 46.1336 47.7854 48.7765 46.8553 51.6608C45.7373 55.1377 45.8357 58.7151 46.0369 62.268C46.1957 65.0406 48.6731 67.234 51.4367 67.2519C57.2658 67.2899 63.0903 67.2541 68.9149 67.2497H68.9105ZM53.1651 14.0056C53.1651 13.4198 53.1651 12.8339 53.1651 12.2481C53.136 9.94512 53.4937 10.2134 51.0387 10.1799C50.3679 10.1799 50.1577 10.4571 50.1689 11.0743C50.1913 12.5231 50.1354 13.981 50.189 15.4231C50.2178 15.7976 50.1447 16.1728 49.9774 16.509C49.8101 16.8452 49.5548 17.1298 49.2388 17.3326C48.3153 18.0034 47.3941 18.6742 46.5333 19.4322C45.8759 20.0023 45.82 20.7983 46.2695 21.3752C46.7189 21.952 47.5708 22.0705 48.2818 21.5742C48.8788 21.165 49.4534 20.7201 50.0258 20.2751C53.5631 17.5428 53.136 18.7949 53.1651 14.0056ZM63.1395 28.7627C63.6963 28.7627 64.2575 28.7627 64.8098 28.7627C67.8931 28.6799 67.3632 29.4022 67.3945 25.9275C67.3967 25.9 67.3967 25.8723 67.3945 25.8448C67.2961 25.0488 66.7796 24.4652 65.9836 24.4496C64.063 24.4093 62.1423 24.4026 60.2216 24.4496C59.3027 24.4764 58.9069 24.9817 58.8801 25.9275C58.86 26.5983 58.8935 27.2691 58.8689 27.9399C58.8466 28.5592 59.135 28.7783 59.7275 28.7671C60.8566 28.7426 61.997 28.7627 63.1395 28.7627ZM45.9699 5.09093C45.9699 7.32685 45.9699 7.32685 48.0761 7.32685C50.5356 7.30897 50.1712 7.63765 50.189 5.18484C50.2069 3.00034 50.189 3.00034 48.0359 3.00034C45.9699 2.99139 45.9699 2.99139 45.9699 5.09093ZM61.7152 18.6809C61.7152 18.9872 61.7152 19.2935 61.7152 19.5998C61.7466 21.7598 61.3776 21.5585 63.7656 21.5719C64.3358 21.5719 64.5728 21.3483 64.5638 20.7715C64.5459 19.7966 64.5638 18.8195 64.5638 17.8446C64.5303 15.687 64.964 15.8703 62.4307 15.877C61.9433 15.877 61.7175 16.1006 61.722 16.5903C61.7197 17.2857 61.7152 17.9833 61.7152 18.6809Z" fill="#348749"/>
<path d="M53.6929 35.9668C52.7411 37.9592 51.4555 39.7741 49.8918 41.333C46.3747 44.8949 44.0314 49.1074 43.4389 54.0778C43.0527 57.0866 43.0181 60.13 43.3361 63.1467C43.8123 67.2273 47.4859 70.1072 51.609 70.1228C56.9595 70.1452 62.3101 70.1228 67.6607 70.1228C68.0766 70.1228 68.4947 70.1407 68.9128 70.1497C68.5335 70.2175 68.1505 70.2623 67.7658 70.2838C64.4611 70.295 61.1541 70.2838 57.8494 70.2838C56.812 70.2838 56.7136 70.3934 56.7024 71.4375C56.7024 71.9384 56.7024 72.4392 56.7024 72.9379C55.5845 73.1078 55.2558 73.385 55.1663 74.4493C55.021 76.1688 54.9316 77.8949 54.8444 79.6188C54.7236 81.9598 53.6504 82.9995 51.3071 82.9995C43.9718 82.9995 36.6372 82.9995 29.3034 82.9995C28.8338 82.9995 28.3643 83.0934 27.897 83.1426H23.5548H22.2133C21.415 83.0957 20.6168 83.0152 19.8163 83.0062C17.9963 82.9861 17.3233 82.3556 17.1981 80.502C17.084 78.8139 16.9745 77.1257 16.8515 75.4399C16.8194 75.2227 16.7685 75.0088 16.6995 74.8004L18.8549 73.0116C21.8846 76.2895 25.3212 76.1777 27.5124 75.0709C31.4119 73.1055 32.266 69.8366 31.186 65.8164C34.9357 64.9399 37.2812 62.6861 37.3482 58.8605C37.422 54.847 35.0654 52.459 31.1681 51.5825C32.2123 47.9022 31.5594 44.7562 28.2257 42.7529C24.7309 40.6556 21.5492 41.5812 18.7655 44.4969C17.7258 43.1553 16.3842 42.3437 14.8504 41.8249L14.6804 37.3196C15.0382 37.3196 15.3937 37.3017 15.7514 37.2883C16.6212 37.2525 17.2204 36.8813 17.3769 35.9668H21.7012C22.012 37.0021 22.4033 37.2838 23.6107 37.2838C29.8713 37.2838 36.1319 37.2838 42.3925 37.2838H48.4854C49.3104 37.2838 49.9678 37.0289 50.1959 36.1368C51.3228 35.5017 52.5101 35.7969 53.6929 35.9668Z" fill="#8CE8A3"/>
<path d="M14.8369 41.8294C16.3707 42.3481 17.7123 43.1597 18.752 44.5013C21.5357 41.5946 24.7174 40.66 28.2122 42.7573C31.5459 44.7696 32.1988 47.8999 31.1546 51.587C35.0519 52.4634 37.4152 54.8514 37.3347 58.8649C37.2677 62.6906 34.9222 64.9444 31.1725 65.8209C32.2525 69.8455 31.3961 73.11 27.4989 75.0754C25.3077 76.1821 21.8711 76.2939 18.8414 73.0161L16.686 74.8048C16.0152 75.0597 15.3444 75.366 14.6513 75.5538C14.1325 75.6947 13.9805 75.9518 14.0342 76.4482C14.1415 77.669 14.2019 78.8943 14.3069 80.1151C14.4545 81.8457 15.369 82.7781 17.0974 82.9995C18.0409 83.1202 18.5328 83.6077 18.5306 84.4238C18.5306 85.3025 17.9157 85.8458 16.9274 85.8413C14.26 85.8413 11.7267 83.5204 11.4897 80.8507C11.3533 79.2945 11.2974 77.7294 11.1453 76.1799C11.114 75.8669 10.8547 75.4107 10.5886 75.3101C7.03795 73.9686 5.04797 69.9439 6.37611 66.2569C6.40534 66.126 6.42256 65.9928 6.42754 65.8589C2.40287 64.8013 -0.0186343 62.3574 0.316755 58.0331C0.596245 54.4042 2.94844 52.412 6.43425 51.587C6.38506 51.3365 6.35823 51.1219 6.30009 50.9162C5.45938 47.929 6.22184 45.4024 8.53602 43.3722C8.75649 43.2089 8.93017 42.9905 9.03966 42.739C9.14915 42.4875 9.19059 42.2115 9.15984 41.9389C9.0637 40.5974 9.00333 39.267 8.95637 37.9299C8.93849 37.4291 8.71713 37.2189 8.24088 37.0713C5.71428 36.2887 4.21621 34.0573 4.56725 31.6939C4.96748 29.0354 6.97758 27.2802 9.70988 27.278C23.5219 27.2675 37.3325 27.2675 51.1416 27.278C52.0114 27.278 52.7693 27.4322 53.0175 28.4295C52.9415 29.771 52.5703 30.1176 51.1908 30.1198C46.0034 30.1198 40.8168 30.1198 35.631 30.1198L10.7831 30.1377C10.3097 30.1216 9.8357 30.1313 9.36331 30.1668C8.16262 30.3121 7.42253 31.1439 7.42253 32.2909C7.42253 33.4379 8.16262 34.2697 9.36331 34.415C9.8357 34.4505 10.3097 34.4602 10.7831 34.4441C12.4176 34.4441 14.0498 34.4441 15.6843 34.4665C16.8201 34.4799 17.1913 34.8309 17.3478 35.9802C17.1913 36.8947 16.5921 37.2658 15.7223 37.3016C15.3645 37.315 15.009 37.3217 14.6513 37.3329C13.9291 37.3329 13.2091 37.3329 12.4869 37.3039C11.995 37.2904 11.7669 37.4984 11.8005 37.997C11.8675 39.0501 11.8966 40.1055 12.0106 41.1519C12.059 41.2761 12.1367 41.3868 12.2372 41.4744C12.3377 41.562 12.4579 41.624 12.5875 41.655C13.341 41.7578 14.0901 41.7757 14.8369 41.8294ZM11.0201 64.4279C10.4701 65.121 9.83062 65.7694 9.38791 66.5207C8.51589 68.0188 8.58744 69.566 9.57125 70.9926C10.5081 72.3542 11.8206 73.0049 13.5065 72.7969C15.018 72.7433 16.042 71.9249 16.8112 70.6996C17.1913 70.0982 17.2226 69.5146 17.0348 68.8013C16.6636 67.4061 16.4557 65.9684 16.1538 64.5531C16.0823 64.2132 15.9951 63.8152 15.7715 63.5805C15.2013 62.9835 14.5507 62.4625 13.7726 61.7716L11.0201 64.4279ZM6.61089 54.5272C5.54849 54.7164 4.59793 55.3029 3.95219 56.1675C3.30645 57.0321 3.01393 58.11 3.13402 59.1824C3.3755 61.4384 5.22014 62.9723 7.65506 62.9276C8.03741 62.8113 8.50472 62.7979 8.77303 62.5631C10.0676 61.4765 11.3242 60.3428 12.5607 59.1936C12.8224 58.9225 13.0156 58.5929 13.1241 58.2321C13.2896 57.738 13.303 57.188 13.4841 56.7028C13.6943 56.1371 13.511 55.8553 12.9855 55.7145C11.4852 55.3187 9.99384 54.8849 8.47788 54.5563C7.88984 54.4243 7.23918 54.5294 6.61089 54.5272ZM12.8044 52.5663C14.4187 53.2885 16.0219 54.1136 17.8196 53.0873C17.8448 53.0755 17.8723 53.0694 17.9001 53.0694C18.4702 53.0381 18.6312 52.6758 18.4926 52.2108C17.9493 50.3818 17.5133 48.5036 16.7709 46.7551C16.0443 45.0491 13.947 44.2062 12.3125 44.6623C9.11512 45.228 7.69755 49.0581 9.7859 51.5199C9.98969 51.7425 10.2501 51.9056 10.5394 51.9917C11.284 52.2153 12.0397 52.3785 12.8044 52.5663ZM23.7403 55.5647C25.3651 54.4222 26.7848 53.0131 27.9394 51.3969C28.5224 50.6086 28.8119 49.6414 28.7577 48.6624C28.6996 46.6165 27.3245 45.0133 25.216 44.5975C23.3759 44.2375 21.3054 45.3599 20.5966 47.1442C20.473 47.4777 20.4405 47.8381 20.5027 48.1883C20.8224 49.8854 21.1735 51.5735 21.5446 53.2617C21.5835 53.4765 21.6828 53.6758 21.8308 53.8363C22.4301 54.4042 23.0561 54.9498 23.7403 55.5647ZM29.5828 62.932C32.532 62.9678 34.3475 61.3266 34.5264 58.9074C34.6919 56.6871 32.9188 54.6859 30.5442 54.4355C29.7684 54.355 29.0819 54.5115 28.5095 55.1443C27.8997 55.8326 27.2259 56.4615 26.4972 57.0225C25.3144 57.9169 24.23 58.8112 24.2233 60.4524C24.2055 60.5905 24.1582 60.7232 24.0846 60.8415C23.8991 61.2216 23.9885 61.4586 24.3977 61.6151C26.2289 62.3172 28.0959 62.8516 29.5828 62.932ZM28.7533 68.4615C28.7533 68.3609 28.7533 68.1082 28.7197 67.86C28.552 66.4603 27.7784 65.6465 26.4435 65.2529C25.1087 64.8594 23.8096 64.3429 22.4837 63.9114C22.1303 63.787 21.7519 63.751 21.3814 63.8063C20.7844 63.9248 20.221 64.1886 19.6284 64.3429C19.2081 64.4525 18.9577 64.6448 19.0896 65.0964C19.653 66.9567 20.0823 68.8774 20.8493 70.6527C21.6318 72.4616 23.7269 73.2106 25.6789 72.703C27.4676 72.2469 28.751 70.5409 28.7533 68.4615ZM16.0085 58.7084C15.9983 59.4538 16.2843 60.1729 16.8037 60.7078C17.323 61.2426 18.0334 61.5496 18.7788 61.5614C19.5395 61.5558 20.2682 61.2545 20.8107 60.7212C21.3532 60.1879 21.6669 59.4644 21.6855 58.7039C21.719 57.1857 20.3685 55.8665 18.7788 55.8777C18.4089 55.8761 18.0425 55.9486 17.7011 56.0909C17.3597 56.2332 17.0502 56.4425 16.791 56.7063C16.5317 56.9701 16.3279 57.2832 16.1916 57.6271C16.0553 57.9709 15.9892 58.3386 15.9973 58.7084H16.0085Z" fill="#348749"/>
<path d="M10.7988 30.1288L35.6467 30.1042C40.831 30.1042 46.0176 30.1042 51.2065 30.1042C52.586 30.1042 52.9572 29.7465 53.0332 28.4139C53.8247 29.0287 54.7169 28.7403 55.5665 28.6375C55.694 28.6218 55.8237 28.1433 55.8505 27.8705C55.931 27.0522 55.9578 26.2294 56.007 25.411C56.4542 29.1964 55.296 32.6308 53.6928 35.9668C52.51 35.7969 51.3227 35.5017 50.1847 36.1457C50.1153 34.869 49.7375 34.4598 48.5301 34.4598C40.1409 34.4509 31.7517 34.4509 23.3625 34.4598C22.2154 34.4598 21.8465 34.8175 21.6878 35.9758H17.3635C17.207 34.8265 16.8358 34.4755 15.7 34.462C14.0655 34.4442 12.4333 34.4464 10.7988 34.4397C10.4742 33.7675 10.3057 33.0307 10.3057 32.2842C10.3057 31.5378 10.4742 30.801 10.7988 30.1288Z" fill="#48B263"/>
<path d="M27.8924 83.1472C28.3597 83.098 28.8292 83.0063 29.2988 83.004C36.6326 82.9951 43.9672 82.9951 51.3025 83.004C53.6458 83.004 54.719 81.9643 54.8398 79.6233C54.927 77.8994 55.0164 76.1733 55.1617 74.4539C55.2512 73.3851 55.5821 73.1123 56.6978 72.9424C57.5318 73.166 58.0282 73.6959 57.9835 74.5612C57.8717 76.6987 57.7934 78.8475 57.5363 80.9716C57.3693 82.3167 56.7159 83.5543 55.6994 84.4509C54.6829 85.3475 53.3735 85.8413 52.018 85.8392C44.3019 85.8705 36.5901 85.8504 28.865 85.8549C28.1696 85.8549 27.5659 85.6805 27.2999 84.9806C27.1531 84.656 27.1325 84.2884 27.2421 83.9495C27.3516 83.6105 27.5834 83.3245 27.8924 83.1472Z" fill="#348749"/>
<path d="M9.67631 16.7334C9.16652 16.4651 8.75511 16.3377 8.4622 16.0761C7.76012 15.4455 7.09828 14.7703 6.44987 14.0816C5.80145 13.393 5.82381 12.5791 6.41856 12.0022C7.01332 11.4254 7.77801 11.4477 8.4309 12.0626C9.15757 12.7468 9.92226 13.4176 10.5193 14.2068C10.6618 14.4263 10.7571 14.673 10.799 14.9313C10.841 15.1896 10.8287 15.4539 10.763 15.7071C10.6445 16.1096 10.081 16.3757 9.67631 16.7334Z" fill="#348749"/>
<path d="M17.3545 12.6975C17.3366 13.9407 14.696 16.635 13.777 16.5143C13.5292 16.4727 13.2927 16.3801 13.0825 16.2423C12.8724 16.1045 12.6931 15.9246 12.5562 15.7138C12.467 15.4925 12.4318 15.2532 12.4535 15.0156C12.4753 14.778 12.5534 14.549 12.6814 14.3477C13.4255 13.4436 14.2593 12.6173 15.17 11.8814C15.4741 11.6332 16.1672 11.6042 16.5451 11.7763C16.923 11.9485 17.1823 12.4986 17.3545 12.6975Z" fill="#348749"/>
<path d="M28.7375 4.39108C28.7549 3.83198 28.8042 3.27432 28.8851 2.72084C28.9266 2.39692 29.0917 2.10158 29.3459 1.89657C29.6001 1.69155 29.9237 1.59273 30.249 1.62076C30.9958 1.62076 31.528 2.02547 31.5906 2.73873C31.683 3.84555 31.6905 4.95782 31.6129 6.06578C31.5593 6.82376 30.9869 7.26424 30.2334 7.25977C29.4799 7.2553 28.979 6.81258 28.8561 6.04566C28.7711 5.53363 28.7756 5.00148 28.7375 4.39108Z" fill="#348749"/>
<path d="M31.7538 13.0352C31.728 13.6124 31.6712 14.1879 31.5839 14.7591C31.5361 15.0682 31.3756 15.3488 31.1332 15.5466C30.8909 15.7443 30.5838 15.8454 30.2714 15.8301C29.5469 15.8301 28.9611 15.4589 28.903 14.7367C28.8113 13.5758 28.8113 12.4095 28.903 11.2487C28.9566 10.5667 29.5156 10.2023 30.2065 10.1888C30.9377 10.1888 31.4497 10.5511 31.5906 11.271C31.6765 11.8557 31.731 12.4446 31.7538 13.0352Z" fill="#348749"/>
<path d="M9.66526 17.9386C9.99394 18.2024 10.5485 18.4417 10.7139 18.833C10.8794 19.2243 10.8458 19.9509 10.5865 20.2774C9.8799 21.1406 9.09388 21.9356 8.23874 22.6519C7.67752 23.1371 6.98215 23.117 6.41646 22.5871C5.88654 22.0929 5.73003 21.402 6.19287 20.8565C7.0075 19.9436 7.87031 19.0748 8.7776 18.2539C8.94082 18.1085 9.23373 18.0906 9.66526 17.9386Z" fill="#348749"/>
<path d="M17.4483 21.6748C17.2001 22.0035 17.0011 22.5535 16.6165 22.7145C16.1984 22.8934 15.474 22.9135 15.1543 22.6609C14.2514 21.9232 13.4224 21.0995 12.6791 20.2013C12.2319 19.6625 12.3079 18.9805 12.8401 18.4618C13.3722 17.9431 14.0408 17.829 14.5841 18.2919C15.471 19.0904 16.3165 19.9337 17.1174 20.8185C17.2739 20.9839 17.2985 21.2724 17.4483 21.6748Z" fill="#348749"/>
<path d="M25.9629 7.32689C26.4638 7.32689 26.9668 7.30229 27.4654 7.32689C28.1988 7.37384 28.655 7.77407 28.7422 8.51416C28.8294 9.25426 28.5588 9.9228 27.8478 9.99435C26.5835 10.1165 25.3101 10.112 24.0467 9.98093C23.3938 9.91385 23.054 9.2632 23.1345 8.57901C23.215 7.89481 23.6398 7.3962 24.3821 7.3336C24.9053 7.28888 25.4375 7.3336 25.9651 7.3336L25.9629 7.32689Z" fill="#348749"/>
<path d="M34.5465 7.3291C35.0474 7.3291 35.5482 7.30227 36.0468 7.3291C36.3882 7.33076 36.7154 7.46558 36.9589 7.70487C37.2024 7.94415 37.3428 8.269 37.3504 8.61028C37.4197 9.33025 37.0329 9.95184 36.333 10.0256C35.1484 10.1463 33.9549 10.1531 32.769 10.0457C31.9998 9.97643 31.6219 9.26764 31.7382 8.4806C31.85 7.74498 32.3106 7.36264 33.044 7.32015C33.5426 7.29332 34.0457 7.32015 34.5465 7.32015V7.3291Z" fill="#348749"/>
<path d="M22.1998 83.1448H23.5413C23.7649 83.4758 24.1137 83.7754 24.2121 84.1398C24.3999 84.8307 24.1093 85.3964 23.4407 85.705C23.18 85.8437 22.8791 85.8872 22.5898 85.828C22.3004 85.7688 22.0408 85.6107 21.8554 85.3808C21.6339 85.1463 21.4998 84.8427 21.4758 84.521C21.4518 84.1993 21.5393 83.8792 21.7235 83.6144C21.8616 83.4382 22.0217 83.2804 22.1998 83.1448Z" fill="#348749"/>
<path d="M68.9149 67.2496C63.0903 67.2496 57.2657 67.2899 51.4412 67.2496C48.6775 67.2317 46.2001 65.0383 46.0414 62.2657C45.8402 58.7129 45.7395 55.1354 46.8597 51.6585C47.7899 48.7742 49.1806 46.1313 51.3137 43.9915C54.4999 40.7964 56.7694 37.1026 57.9902 32.7739C58.2473 31.8639 58.6744 31.5329 59.6291 31.5732C61.5475 31.6537 63.4727 31.6112 65.3956 31.6179C65.8428 32.633 66.3011 33.6481 66.7617 34.661C69.5857 40.859 71.0703 47.3901 71.5712 54.1583C71.636 55.0526 71.4818 55.9761 71.4303 56.8839C70.9496 56.3651 70.3839 56.1527 69.6997 56.4233C69.0155 56.6938 68.8165 57.3176 68.7897 57.9884C68.7584 58.7688 68.7741 59.5536 68.7718 60.3294C68.7718 61.5726 68.7718 61.5748 67.5219 61.5748C65.1541 61.5748 62.784 61.5637 60.4162 61.5748C59.2982 61.5748 58.6431 62.3708 58.9047 63.3636C59.1283 64.173 59.7297 64.4189 60.5011 64.4167C63.2036 64.4167 65.9069 64.4167 68.6108 64.4167C69.1295 64.433 69.644 64.3187 70.1069 64.0843C70.5699 63.8498 70.9665 63.5028 71.2604 63.0751C71.283 63.3637 71.274 63.6539 71.2336 63.9404C70.8825 65.3401 69.8249 66.2457 68.9149 67.2496Z" fill="#8CE8A3"/>
<path d="M74.4465 9.679C73.8048 9.06188 73.1698 8.43582 72.5214 7.82541C71.7813 7.13004 71.0345 7.11662 70.3213 7.8433C68.8575 9.33392 67.4108 10.8402 65.9813 12.3621C65.7977 12.5876 65.563 12.7661 65.2967 12.8828C65.0303 12.9994 64.74 13.0509 64.4497 13.0329C63.3139 12.9725 62.0059 13.3101 61.0802 12.854C60.1545 12.3979 59.6067 11.1771 58.9069 10.2805C58.3591 9.57614 57.8135 8.86959 57.3059 8.13844C57.1357 7.86596 56.8938 7.64551 56.6067 7.50119C56.3197 7.35687 55.9985 7.29422 55.6782 7.32009C55.1214 7.34022 54.5602 7.29773 54.0057 7.32009C53.3349 7.3581 53.1113 7.05849 53.1404 6.42572C53.1717 5.56489 53.1672 4.69959 53.1404 3.83652C53.1225 3.24177 53.3349 2.9824 53.961 2.98463C60.2842 3.00401 66.6081 3.0137 72.9328 3.0137C73.664 3.76721 74.4197 4.50059 75.124 5.27869C76.4678 6.75888 76.1347 8.84276 74.4465 9.679Z" fill="#8CE8A3"/>
<path d="M68.9149 67.2497C69.8249 66.2458 70.8825 65.3402 71.2335 63.9495C71.2739 63.6629 71.2829 63.3727 71.2603 63.0842C71.8618 61.0338 71.6717 58.9611 71.4303 56.8862C71.4817 55.9784 71.636 55.0617 71.5711 54.1606C71.0703 47.3924 69.5856 40.8613 66.7617 34.6633C66.3011 33.6504 65.8516 32.6353 65.3955 31.6202C68.5906 31.6381 67.7589 31.0925 69.096 33.8785C71.9915 39.9155 73.7914 46.2767 74.2721 52.9688C74.4644 55.605 74.5472 58.2523 74.5673 60.8952C74.5919 63.8891 73.2704 65.9685 70.8668 66.8674C70.2542 67.0954 69.5677 67.1267 68.9149 67.2497Z" fill="#4BC269"/>
<path d="M53.1651 14.0055C53.136 18.8016 53.5631 17.5495 50.0348 20.2863C49.4624 20.7334 48.8878 21.1806 48.2908 21.5853C47.5686 22.0817 46.7256 21.9833 46.2784 21.3863C45.8312 20.7893 45.8849 20.0135 46.5423 19.4433C47.4031 18.6965 48.331 18.0146 49.2477 17.3438C49.5638 17.141 49.819 16.8564 49.9863 16.5202C50.1536 16.184 50.2268 15.8087 50.198 15.4343C50.1443 13.9854 50.198 12.5276 50.1779 11.0854C50.1667 10.4571 50.3836 10.1709 51.0477 10.1911C53.5072 10.2246 53.145 9.96746 53.174 12.2593C53.1807 12.8272 53.1651 13.413 53.1651 14.0055Z" fill="#48B263"/>
<path d="M63.1394 28.7627C61.9969 28.7627 60.8566 28.747 59.7162 28.7627C59.1237 28.7738 58.8353 28.5547 58.8577 27.9354C58.8822 27.2646 58.8576 26.5938 58.8688 25.923C58.9001 24.9772 59.2959 24.4719 60.2104 24.4451C62.131 24.3892 64.0517 24.3959 65.9724 24.4451C66.7684 24.4607 67.2849 25.0443 67.3832 25.8403C67.3854 25.8678 67.3854 25.8955 67.3832 25.923C67.3519 29.3977 67.8818 28.6755 64.7985 28.7582C64.2529 28.7627 63.6895 28.7627 63.1394 28.7627Z" fill="#48B263"/>
<path d="M45.97 5.09087C45.97 2.99133 45.97 2.99133 48.036 2.99133C50.1936 2.99133 50.207 2.99133 50.1892 5.17583C50.1713 7.63535 50.5268 7.29996 48.0762 7.31785C45.97 7.3335 45.97 7.32009 45.97 5.09087Z" fill="#8CE8A3"/>
<path d="M74.4467 9.67904C76.1348 8.8428 76.459 6.75892 75.1175 5.28097C74.4132 4.50287 73.6574 3.76949 72.9263 3.01598C74.4199 2.77674 75.6429 3.18591 76.6021 4.41343C77.0761 5.02161 77.7067 5.50457 78.2254 6.08367C78.9812 6.92885 78.9543 7.70025 78.1852 8.50518C77.7797 8.92851 77.3676 9.34067 76.9487 9.74165C76.07 10.5913 75.3567 10.5689 74.4467 9.67904Z" fill="#4BC269"/>
<path d="M61.7152 18.6809C61.7152 17.9833 61.7152 17.2857 61.7152 16.5903C61.7152 16.1029 61.9387 15.8793 62.4239 15.8771C64.9572 15.8771 64.5235 15.687 64.557 17.8447C64.5704 18.8195 64.5436 19.7966 64.557 20.7715C64.557 21.3372 64.3334 21.5764 63.7588 21.572C61.3708 21.5586 61.7465 21.7598 61.7084 19.5999C61.7084 19.2936 61.7084 18.9872 61.7084 18.6809H61.7152Z" fill="#48B263"/>
<path d="M21.6877 35.9758C21.8465 34.8176 22.2154 34.4598 23.3625 34.4598C31.7516 34.4509 40.1408 34.4509 48.53 34.4598C49.7419 34.4598 50.1153 34.869 50.1846 36.1457C49.961 37.0401 49.2902 37.2928 48.4741 37.2928H42.3812C36.1206 37.2928 29.8601 37.2928 23.5995 37.2928C22.3898 37.2928 21.9985 37.011 21.6877 35.9758Z" fill="#348749"/>
<path d="M23.7403 55.5647C23.0561 54.9498 22.43 54.4043 21.8308 53.8274C21.6828 53.6669 21.5835 53.4676 21.5446 53.2528C21.1824 51.5646 20.8224 49.8765 20.5027 48.1794C20.4405 47.8292 20.4729 47.4688 20.5966 47.1353C21.3054 45.3465 23.3758 44.2286 25.216 44.5885C27.3245 45.0044 28.6996 46.6009 28.7577 48.6535C28.814 49.6355 28.5244 50.6062 27.9394 51.3969C26.7848 53.0131 25.3651 54.4223 23.7403 55.5647Z" fill="#4BC269"/>
<path d="M29.5828 62.9321C28.096 62.8516 26.229 62.3172 24.3977 61.6174C23.9886 61.4608 23.8991 61.2238 24.0847 60.8437C24.1582 60.7255 24.2055 60.5928 24.2233 60.4547C24.2233 58.8068 25.3145 57.908 26.4973 57.0248C27.226 56.4638 27.8998 55.8349 28.5096 55.1466C29.082 54.5138 29.7684 54.3573 30.5443 54.4378C32.9188 54.6837 34.6919 56.6737 34.5265 58.9096C34.3476 61.3267 32.532 62.9723 29.5828 62.9321Z" fill="#8CE8A3"/>
<path d="M28.7532 68.4615C28.7532 70.5409 27.4743 72.247 25.6788 72.7098C23.7268 73.2173 21.6318 72.4683 20.8492 70.6594C20.0823 68.8841 19.653 66.9635 19.0895 65.1032C18.9509 64.656 19.208 64.4592 19.6284 64.3497C20.2209 64.1954 20.7844 63.9315 21.3814 63.813C21.7519 63.7577 22.1303 63.7938 22.4837 63.9181C23.8096 64.343 25.1086 64.8595 26.4435 65.2597C27.7783 65.6599 28.552 66.4671 28.7197 67.8668C28.751 68.115 28.7465 68.3609 28.7532 68.4615Z" fill="#4BC269"/>
<path d="M12.3124 44.6623C13.9468 44.2151 16.0441 45.0491 16.7708 46.7551C17.5131 48.5036 17.9492 50.3818 18.4925 52.2108C18.6311 52.6759 18.4701 53.0381 17.9 53.0694C17.8722 53.0695 17.8447 53.0756 17.8195 53.0873C16.0307 54.1136 14.4186 53.2885 12.8043 52.5663C12.7306 52.3097 12.6333 52.0604 12.5136 51.8217C11.9138 50.8584 11.618 49.7369 11.6647 48.6031C11.7114 47.4693 12.0983 46.3758 12.7752 45.465C12.9206 45.2615 13.0323 45.0335 13.2112 44.7249L12.3124 44.6623Z" fill="#8CE8A3"/>
<path d="M6.61091 54.5273C7.23921 54.5273 7.88986 54.4245 8.48909 54.5564C10.005 54.8851 11.4964 55.3188 12.9967 55.7146C13.5222 55.8555 13.7055 56.1372 13.4953 56.7029C13.3142 57.1881 13.3008 57.7381 13.1353 58.2322C13.0268 58.593 12.8336 58.9227 12.5719 59.1937C11.3354 60.343 10.0788 61.4766 8.78423 62.5632C8.50474 62.798 8.03743 62.8114 7.66627 62.9277C7.55 62.7399 7.44268 62.5386 7.31523 62.362C5.58686 60.097 5.50413 57.7001 7.07599 55.3255C7.20791 55.1243 7.33088 54.9164 7.52317 54.6123L6.61091 54.5273Z" fill="#4BC269"/>
<path d="M11.02 64.4279L13.7702 61.7761C14.5483 62.467 15.199 62.988 15.7691 63.585C15.9927 63.8198 16.0799 64.2178 16.1515 64.5576C16.4533 65.973 16.6613 67.4107 17.0324 68.8059C17.2225 69.5191 17.1912 70.1027 16.8088 70.7042C16.0397 71.9295 15.0201 72.7478 13.5041 72.8015C13.4588 72.731 13.4095 72.663 13.3566 72.598C11.2749 70.1832 11.0893 68.0009 12.735 65.2753C12.9161 64.978 13.1106 64.6873 13.3499 64.3139L11.02 64.4279Z" fill="#8CE8A3"/>
<path d="M15.9972 58.7084C15.9892 58.3396 16.0549 57.9728 16.1905 57.6297C16.3262 57.2866 16.5289 56.9741 16.787 56.7104C17.045 56.4467 17.3532 56.2372 17.6933 56.0943C18.0334 55.9513 18.3986 55.8777 18.7676 55.8778C20.3484 55.8666 21.6989 57.1858 21.6743 58.704C21.6557 59.4645 21.342 60.1879 20.7995 60.7213C20.257 61.2546 19.5283 61.5559 18.7676 61.5615C18.0221 61.5497 17.3118 61.2427 16.7924 60.7078C16.2731 60.173 15.9871 59.4539 15.9972 58.7084Z" fill="#EFEFEF"/>
<path d="M71.4303 56.8861C71.6718 58.9611 71.8619 61.0338 71.2604 63.0841C70.9665 63.5118 70.5699 63.8588 70.1069 64.0932C69.644 64.3277 69.1295 64.442 68.6108 64.4257C65.9084 64.4257 63.2051 64.4257 60.5011 64.4257C59.7297 64.4257 59.1193 64.182 58.9047 63.3726C58.6431 62.382 59.2915 61.595 60.4162 61.5838C62.784 61.5615 65.1541 61.5838 67.5219 61.5838C68.7674 61.5838 68.7674 61.5838 68.7718 60.3384C68.7718 59.5581 68.7584 58.7733 68.7897 57.9974C68.8165 57.3266 68.9954 56.7184 69.6997 56.4322C70.4041 56.146 70.9496 56.3674 71.4303 56.8861Z" fill="#348749"/>
</svg>
