<svg width="52" height="50" viewBox="0 0 52 50" fill="none" xmlns="http://www.w3.org/2000/svg">
<path d="M22.5602 48.6159C21.9229 49.1786 21.1882 49.2759 20.4002 49.2746C14.7109 49.2626 9.02287 49.2319 3.33354 49.2893C1.49887 49.3079 0.378868 48.0173 0.400202 46.3559C0.454868 40.9186 0.430868 35.4799 0.413535 30.0413C0.413535 28.8493 0.882868 28.0333 1.8802 27.3586C4.55353 25.5559 7.16153 23.6559 9.81353 21.8226C10.2882 21.4933 10.8522 21.2893 11.3762 21.0306L11.4949 21.1373V20.5559C11.4949 16.8799 11.5055 13.2053 11.4949 9.52928C11.4949 8.37328 11.9749 7.58528 12.9362 6.93328C15.6229 5.10261 18.2722 3.20528 20.9295 1.31994C21.4349 0.959943 21.9615 0.733276 22.5855 0.733276C27.9589 0.733276 33.3313 0.733276 38.7029 0.733276C40.1309 0.733276 41.1589 1.69194 41.2909 3.11328C41.3242 3.47594 41.3095 3.84394 41.3095 4.20928C41.3095 9.01639 41.3095 13.8231 41.3095 18.6293C41.3095 19.4999 41.3202 20.3626 40.6215 21.1706H41.2735C43.7349 21.1706 46.1966 21.1706 48.6589 21.1706C50.5095 21.1706 51.5215 22.1893 51.5215 24.0439C51.5215 29.2333 51.5135 34.4213 51.5215 39.6106C51.5349 40.0339 51.4587 40.4553 51.2978 40.847C51.137 41.2388 50.8952 41.5922 50.5882 41.8839C48.4362 44.0119 46.2962 46.1524 44.1682 48.3053C43.8738 48.6205 43.5159 48.8696 43.118 49.036C42.7201 49.2024 42.2913 49.2824 41.8602 49.2706C36.0878 49.2546 30.3162 49.2546 24.5455 49.2706C23.8295 49.2759 23.1749 49.1333 22.5602 48.6159ZM33.2095 47.5666C36.1046 47.5666 38.9993 47.5666 41.8935 47.5666C42.7162 47.5666 43.0135 47.2786 43.0135 46.4613C43.0135 40.9564 43.0135 35.4506 43.0135 29.9439C43.0135 29.1293 42.7122 28.8306 41.8935 28.8293C36.1042 28.8293 30.3149 28.8293 24.5255 28.8293C23.7069 28.8293 23.4095 29.1253 23.4095 29.9439C23.4095 35.4497 23.4095 40.9555 23.4095 46.4613C23.4095 47.2906 23.6949 47.5666 24.5242 47.5666C27.4202 47.5684 30.3153 47.5684 33.2095 47.5666ZM11.9215 47.5666C14.8166 47.5666 17.7113 47.5666 20.6055 47.5666C21.4362 47.5666 21.7029 47.2999 21.7029 46.4573C21.7029 40.9524 21.7029 35.4462 21.7029 29.9386C21.7029 29.1093 21.4255 28.8306 20.5935 28.8293C14.8033 28.8293 9.01353 28.8293 3.2242 28.8293C2.4042 28.8293 2.11887 29.1239 2.11887 29.9493C2.11887 35.4604 2.11887 40.9666 2.11887 46.4679C2.11887 47.2866 2.4042 47.5653 3.23753 47.5653C6.13265 47.5679 9.02731 47.5684 11.9215 47.5666ZM22.9762 8.39861C20.0989 8.39861 17.2211 8.39861 14.3429 8.39861C13.4482 8.39861 13.1949 8.66528 13.1949 9.56261C13.1958 15.0195 13.1962 20.4764 13.1962 25.9333C13.1962 26.8666 13.4429 27.1226 14.3682 27.1226H31.6349C32.5335 27.1226 32.7762 26.8746 32.7762 25.9599C32.7762 20.5039 32.7762 15.0479 32.7762 9.59194C32.7762 8.62661 32.5469 8.40128 31.5602 8.39994L22.9762 8.39861ZM34.4815 24.8959C34.6829 24.7106 34.8042 24.6079 34.9162 24.4959C36.3029 23.1079 37.6802 21.7079 39.0829 20.3359C39.2595 20.1748 39.3988 19.977 39.4909 19.7563C39.583 19.5357 39.6258 19.2975 39.6162 19.0586C39.6029 14.0853 39.6082 9.11328 39.6069 4.13994C39.6069 3.97994 39.5922 3.81861 39.5829 3.63328C39.5229 3.64729 39.465 3.66926 39.4109 3.69861C37.7566 5.14128 36.1029 6.58705 34.4495 8.03594C34.3691 8.14273 34.3332 8.27658 34.3495 8.40928C34.3789 8.82128 34.4749 9.23061 34.4749 9.64128C34.4838 14.5133 34.4838 19.3862 34.4749 24.2599L34.4815 24.8959ZM49.8255 23.9839C49.6242 24.1493 49.5082 24.2386 49.3975 24.3346C47.9575 25.5919 46.5309 26.8679 45.0695 28.0999C44.6575 28.4479 44.4535 28.7666 44.6575 29.2999C44.7482 29.5373 44.7175 29.8253 44.7175 30.0906C44.7175 34.9448 44.7175 39.8004 44.7175 44.6573V45.3626C46.3335 43.7399 47.8255 42.2279 49.3375 40.7333C49.5008 40.5827 49.6295 40.3986 49.7147 40.1935C49.7999 39.9884 49.8395 39.7672 49.8309 39.5453C49.8193 34.5399 49.8193 29.5346 49.8309 24.5293L49.8255 23.9839ZM48.4255 22.9173C48.2455 22.8946 48.1815 22.8799 48.1189 22.8799C45.1602 22.8799 42.2029 22.8733 39.2455 22.8906C39.0228 22.9122 38.8147 23.0113 38.6575 23.1706C37.5642 24.2373 36.4909 25.3279 35.4069 26.4053C35.2002 26.6106 34.9722 26.7919 34.7549 26.9839L34.8429 27.1173H35.3762C37.5029 27.1173 39.6295 27.1066 41.7562 27.1253C42.1975 27.1253 42.6375 27.2586 43.0802 27.3013C43.2129 27.3275 43.3505 27.3052 43.4682 27.2386C45.0962 25.8333 46.7189 24.4119 48.4255 22.9186V22.9173ZM38.2162 2.46661C38.0322 2.44928 37.9722 2.43861 37.9109 2.43861C35.8175 2.43861 33.7255 2.43861 31.6322 2.44661C31.4376 2.45971 31.2515 2.5318 31.0989 2.65328C30.1989 3.33461 29.3109 4.03328 28.4202 4.72661L25.9429 6.66128C26.2269 6.67594 26.3855 6.69061 26.5442 6.69061C28.2215 6.69061 29.9002 6.67994 31.5775 6.69994C32.0029 6.69994 32.4255 6.81728 32.8522 6.86261C32.9859 6.88883 33.1245 6.86761 33.2442 6.80261C34.8762 5.39061 36.4989 3.96794 38.2162 2.46661ZM28.5869 2.43994C26.4709 2.43994 24.5122 2.43994 22.5535 2.44794C22.373 2.45733 22.199 2.51842 22.0522 2.62394C20.2744 3.86839 18.4966 5.12217 16.7189 6.38528C16.6242 6.45194 16.5455 6.53994 16.3762 6.69328H16.9842C18.6295 6.69328 20.2749 6.64794 21.9175 6.71194C22.309 6.73606 22.7014 6.68276 23.0723 6.5551C23.4431 6.42744 23.7852 6.22791 24.0789 5.96794C25.5109 4.78394 27.0002 3.67328 28.5869 2.43861V2.43994ZM5.2802 27.0813H11.5135V22.9253L11.3642 22.8146L5.2802 27.0813Z" fill="#4D5153"/>
<path d="M28.5644 40.7654C29.1124 40.7654 29.6604 40.756 30.2084 40.7654C31.1737 40.7827 31.8751 41.432 31.9311 42.404C31.9631 43.001 31.9631 43.5991 31.9311 44.196C31.8804 45.1854 31.1737 45.852 30.1804 45.8614C29.0684 45.872 27.9573 45.872 26.8471 45.8614C25.8937 45.8507 25.1991 45.216 25.1377 44.2694C25.0944 43.6234 25.0944 42.9753 25.1377 42.3294C25.2017 41.404 25.8911 40.7854 26.8191 40.7654C27.4017 40.756 27.9831 40.7654 28.5644 40.7654ZM26.8417 44.1347H30.2004V42.504H26.8417V44.1347Z" fill="#4D5153"/>
<path d="M39.1815 44.1667C39.5975 44.1667 40.0148 44.1534 40.4295 44.1667C40.9428 44.1867 41.2975 44.5427 41.3001 45.0094C41.3012 45.1222 41.2796 45.2341 41.2364 45.3384C41.1933 45.4427 41.1295 45.5372 41.0489 45.6163C40.9684 45.6953 40.8727 45.7573 40.7676 45.7985C40.6626 45.8397 40.5503 45.8593 40.4375 45.856C39.5895 45.8729 38.741 45.8729 37.8921 45.856C37.7792 45.858 37.6671 45.8368 37.5628 45.7937C37.4584 45.7507 37.3639 45.6867 37.2852 45.6057C37.2065 45.5248 37.1452 45.4286 37.1051 45.323C37.065 45.2175 37.047 45.1048 37.0521 44.992C37.0556 44.7731 37.1449 44.5643 37.3007 44.4104C37.4565 44.2566 37.6665 44.17 37.8855 44.1694C38.3161 44.152 38.7495 44.168 39.1815 44.1667Z" fill="#4D5153"/>
<path d="M39.1697 42.4666C38.7697 42.4666 38.3697 42.476 37.9697 42.4666C37.4164 42.4506 37.0537 42.1106 37.0484 41.624C37.0431 41.1373 37.3991 40.78 37.9524 40.7733C38.7675 40.7618 39.5822 40.7618 40.3964 40.7733C40.9204 40.78 41.2751 41.1146 41.2937 41.5813C41.3137 42.0693 40.9537 42.4426 40.4151 42.4653C39.9964 42.4773 39.5857 42.4666 39.1697 42.4666Z" fill="#4D5153"/>
<path d="M7.23363 45.8639C6.6683 45.8639 6.1043 45.8733 5.5403 45.8639C5.09451 45.8707 4.66411 45.701 4.34292 45.3918C4.02172 45.0826 3.83579 44.659 3.82563 44.2133C3.8003 43.6159 3.80163 43.0133 3.82563 42.4213C3.82875 42.2004 3.87551 41.9823 3.96323 41.7795C4.05094 41.5767 4.17788 41.3933 4.33674 41.2398C4.4956 41.0863 4.68324 40.9657 4.88888 40.8849C5.09451 40.8042 5.31409 40.7649 5.53497 40.7693C6.66297 40.7559 7.79141 40.7559 8.9203 40.7693C9.89497 40.7799 10.5856 41.4466 10.623 42.4159C10.6456 43.0293 10.647 43.6453 10.623 44.2573C10.6105 44.6851 10.4321 45.0912 10.1255 45.3898C9.81897 45.6884 9.40826 45.8561 8.9803 45.8573C8.3963 45.8773 7.81363 45.8639 7.23363 45.8639ZM5.5363 44.1306H8.89097V42.5039H5.5363V44.1306Z" fill="#4D5153"/>
<path d="M17.8497 45.864C17.435 45.864 17.0177 45.8774 16.603 45.864C16.0857 45.8414 15.7564 45.4894 15.7644 45.004C15.7618 44.8951 15.7814 44.7868 15.8218 44.6856C15.8621 44.5845 15.9226 44.4925 15.9994 44.4153C16.0763 44.3381 16.168 44.2772 16.2689 44.2363C16.3699 44.1954 16.4781 44.1754 16.587 44.1774C17.451 44.1574 18.3204 44.156 19.1804 44.1774C19.2891 44.1768 19.3968 44.1981 19.4972 44.24C19.5975 44.2819 19.6884 44.3436 19.7644 44.4213C19.8404 44.4991 19.9 44.5913 19.9396 44.6926C19.9792 44.7938 19.9981 44.902 19.995 45.0107C19.995 45.4947 19.6657 45.8427 19.147 45.8627C18.715 45.8774 18.2817 45.864 17.8497 45.864Z" fill="#4D5153"/>
<path d="M17.9096 40.7667C18.3243 40.7667 18.7403 40.7533 19.1563 40.7667C19.6563 40.7867 19.979 41.1107 19.9936 41.5747C20.0019 41.6874 19.9868 41.8006 19.9491 41.9072C19.9114 42.0137 19.8521 42.1113 19.7747 42.1938C19.6974 42.2762 19.6039 42.3417 19.4999 42.3862C19.396 42.4306 19.284 42.453 19.171 42.452C18.307 42.476 17.4425 42.476 16.5776 42.452C16.4646 42.4523 16.3528 42.429 16.2492 42.3836C16.1457 42.3382 16.0528 42.2717 15.9764 42.1884C15.9 42.1051 15.8418 42.0068 15.8055 41.8998C15.7692 41.7927 15.7556 41.6793 15.7656 41.5667C15.7856 41.104 16.111 40.796 16.6123 40.7667C16.6456 40.7667 16.679 40.7667 16.7123 40.7667H17.9123H17.9096Z" fill="#4D5153"/>
<path d="M18.2734 25.416C17.7081 25.416 17.1441 25.428 16.5801 25.416C16.3594 25.4169 16.1407 25.3741 15.9366 25.2902C15.7324 25.2062 15.5469 25.0828 15.3907 24.9269C15.2344 24.771 15.1105 24.5858 15.0261 24.3819C14.9417 24.178 14.8984 23.9594 14.8988 23.7386C14.8814 23.1586 14.8801 22.5773 14.8988 21.996C14.9012 21.5499 15.0807 21.1231 15.3977 20.8094C15.7147 20.4956 16.1434 20.3205 16.5894 20.3227C17.7352 20.3031 18.8805 20.3031 20.0254 20.3227C20.4631 20.3191 20.8844 20.4891 21.197 20.7955C21.5097 21.1019 21.6881 21.5196 21.6934 21.9573C21.7161 22.5706 21.7161 23.1867 21.6934 23.8C21.6878 24.2287 21.5141 24.638 21.2095 24.9398C20.905 25.2415 20.4941 25.4116 20.0654 25.4133C19.4628 25.4307 18.8708 25.4146 18.2734 25.416ZM16.6241 22.036V23.6853H19.9574V22.036H16.6241Z" fill="#4D5153"/>
<path d="M28.919 22.0118C28.5044 22.0118 28.0884 22.0251 27.6724 22.0118C27.4489 22.0129 27.2341 21.9251 27.0753 21.7678C26.9166 21.6106 26.8268 21.3966 26.8257 21.1731C26.8246 20.9497 26.9124 20.7349 27.0697 20.5761C27.227 20.4173 27.4409 20.3275 27.6644 20.3265C28.5284 20.3043 29.3928 20.3043 30.2577 20.3265C30.3666 20.327 30.4744 20.3492 30.5746 20.392C30.6748 20.4347 30.7654 20.497 30.8412 20.5753C30.917 20.6535 30.9763 20.7461 31.0158 20.8477C31.0553 20.9492 31.074 21.0576 31.071 21.1665C31.071 21.6491 30.7377 21.9918 30.2164 22.0118C29.7844 22.0251 29.3524 22.0118 28.919 22.0118Z" fill="#4D5153"/>
<path d="M28.9416 25.416C28.5269 25.416 28.1109 25.428 27.6963 25.416C27.1856 25.3986 26.8643 25.0906 26.8389 24.628C26.8274 24.5157 26.8395 24.4022 26.8744 24.2948C26.9092 24.1875 26.9662 24.0886 27.0415 24.0045C27.1168 23.9204 27.2088 23.8529 27.3117 23.8065C27.4146 23.76 27.5261 23.7355 27.6389 23.7346C28.5189 23.7053 29.4016 23.7053 30.2803 23.7346C30.3892 23.7378 30.4964 23.7629 30.5954 23.8085C30.6945 23.854 30.7833 23.919 30.8566 23.9997C30.9299 24.0804 30.9862 24.175 31.0221 24.2779C31.058 24.3808 31.0728 24.4899 31.0656 24.5986C31.0536 25.064 30.7336 25.3786 30.2349 25.416C30.2016 25.416 30.1683 25.416 30.1349 25.416H28.9349H28.9416Z" fill="#4D5153"/>
</svg>
