<svg width="52" height="52" viewBox="0 0 52 52" fill="none" xmlns="http://www.w3.org/2000/svg">
<path d="M16.8621 22.7333C15.4154 23.2666 14.1127 23.7533 12.8007 24.2173C11.3981 24.7133 10.2194 23.7093 10.4607 22.248C10.5261 21.848 10.5794 21.4586 10.6221 21.0626C10.9422 18.2549 10.5254 15.4123 9.41275 12.8146C9.01275 11.8813 8.14875 11.4613 7.27941 11.748C6.41008 12.0346 5.95675 12.8746 6.16075 13.8666C6.56075 15.808 6.55141 17.7333 5.90208 19.6253C5.60075 20.504 5.04475 21.2253 4.43541 21.9213C3.61008 22.8706 2.83541 23.8693 2.07941 24.876C1.70341 25.3746 1.26875 25.5613 0.816746 25.2893C0.364746 25.0173 0.248746 24.512 0.626079 23.9906C1.35275 22.9813 2.04741 21.924 2.92341 21.0573C4.10341 19.8853 4.67408 18.524 4.68875 16.912C4.69794 15.9809 4.62297 15.0509 4.46475 14.1333C4.15275 12.3293 5.09008 10.636 6.77675 10.1106C8.49541 9.57731 10.2661 10.424 10.9821 12.14C12.2992 15.2511 12.7257 18.6671 12.2141 22.0066C12.1887 22.172 12.1701 22.3373 12.1501 22.5013C12.1552 22.5324 12.1637 22.5628 12.1754 22.592C12.2914 22.5626 12.4141 22.5426 12.5287 22.5013C14.1994 21.892 15.8621 21.2733 17.5394 20.6773C17.6747 20.6432 17.7969 20.5696 17.8902 20.4658C17.9835 20.362 18.0438 20.2328 18.0634 20.0946C18.1541 19.6053 18.2567 19.1173 18.3487 18.628C18.6327 17.12 19.7154 16.0133 21.1274 15.7933C22.6581 15.556 24.0354 16.2653 24.7674 17.6693C24.8127 17.756 24.8594 17.8426 24.9007 17.9266C27.2554 17.236 29.4341 16.0813 31.9421 15.5986V13.808C31.9421 13.5906 31.9261 13.3733 31.9421 13.1586C31.9847 12.664 31.9421 12.328 31.3074 12.1853C30.6407 12.0373 30.2887 11.464 30.2407 10.7666C30.2141 10.3013 30.2247 9.83331 30.2301 9.36931C30.2301 9.12265 30.1981 8.97731 29.9207 8.84265C29.6807 8.72798 29.3994 8.38931 29.3941 8.14398C29.3661 6.74931 29.3087 5.34398 29.4647 3.95865C29.7034 1.97998 31.4701 0.446648 33.4607 0.427982C37.0607 0.394648 40.6501 0.383982 44.2434 0.437315C46.1261 0.466648 47.8434 1.17598 49.4781 2.06931C50.0114 2.36398 50.5287 2.70931 51.0487 3.03598C51.207 3.12982 51.3362 3.26547 51.4223 3.42802C51.5084 3.59057 51.548 3.77372 51.5368 3.95731C51.5314 6.70309 51.5314 9.44887 51.5368 12.1946C51.5368 12.64 51.3861 12.98 50.9541 13.1386C50.5221 13.2973 50.2207 13.104 49.9461 12.792C48.8421 11.5346 47.6408 10.392 46.1501 9.59198C45.4581 9.22131 44.7341 8.94531 43.8581 8.94798V10.0466C43.8581 11.5973 43.6248 11.9293 42.1554 12.4133V12.8866C42.1554 17.48 42.1554 22.0733 42.1674 26.6653C42.1674 26.94 42.3247 27.2146 42.4181 27.4853C42.6114 28.0453 42.7994 28.6066 43.0114 29.1586C43.0714 29.3173 43.1728 29.5226 43.3088 29.58C45.2848 30.4173 46.0474 32.2466 45.2287 34.2466C45.2034 34.3053 45.1874 34.3666 45.1461 34.492C45.6128 34.492 46.0407 34.476 46.4661 34.492C48.2648 34.572 49.6341 35.84 49.8181 37.584C49.8997 38.3971 49.683 39.2121 49.2084 39.8773C48.7337 40.5426 48.0335 41.0126 47.2381 41.2C46.5821 41.3466 45.8874 41.3213 45.1621 41.3786C45.7847 42.7546 45.7247 44.0733 44.7181 45.2653C43.7114 46.4573 42.3288 46.5053 41.0381 46.4347C41.1167 47.1826 41.3048 47.9013 41.2421 48.6066C41.1087 50.1933 39.7301 51.432 38.1341 51.54C38.0514 51.54 37.9687 51.548 37.8847 51.548C29.6314 51.5418 21.3776 51.536 13.1234 51.5306C10.8301 51.5306 8.70208 51.056 6.75408 49.7333C5.20341 48.6666 3.39408 48.2346 1.51675 48.1453C1.39999 48.1449 1.28335 48.1378 1.16741 48.124C0.950228 48.0966 0.751661 47.9874 0.612181 47.8187C0.472702 47.65 0.402808 47.4344 0.416746 47.216C0.43081 46.9971 0.531022 46.7927 0.695449 46.6475C0.859875 46.5023 1.07512 46.4282 1.29408 46.4413C3.04587 46.4539 4.77423 46.8451 6.36075 47.588C7.04982 47.9178 7.71777 48.2901 8.36075 48.7026C9.35121 49.3257 10.4865 49.6808 11.6554 49.7333C12.7221 49.7866 13.7887 49.8293 14.8474 49.8307C22.4527 49.8386 30.0576 49.8386 37.6621 49.8307C38.6688 49.8307 39.3594 49.3546 39.5501 48.5373C39.8167 47.404 39.0168 46.432 37.7967 46.4293C34.0865 46.4231 30.3754 46.4231 26.6634 46.4293C26.4807 46.4293 26.2981 46.4293 26.1154 46.4293C25.4941 46.412 25.1154 46.0706 25.1314 45.5453C25.1461 45.0413 25.5101 44.7293 26.1194 44.7293C31.3452 44.7293 36.5701 44.7293 41.7941 44.7293C42.0765 44.7363 42.3587 44.7081 42.6341 44.6453C43.4341 44.4386 43.9314 43.668 43.8474 42.816C43.8059 42.4316 43.6321 42.0736 43.3559 41.8031C43.0796 41.5327 42.7179 41.3666 42.3327 41.3333C42.1181 41.3146 41.9007 41.3173 41.6847 41.3173H26.4034C26.1875 41.3247 25.9715 41.3077 25.7594 41.2666C25.5749 41.2191 25.4123 41.1097 25.2986 40.9568C25.1849 40.8039 25.1271 40.6167 25.1347 40.4263C25.1424 40.2359 25.215 40.0539 25.3406 39.9105C25.4661 39.7672 25.637 39.6713 25.8247 39.6386C26.0397 39.613 26.2564 39.6041 26.4727 39.612H46.0968C47.1847 39.612 47.8221 39.1986 48.0581 38.3493C48.1211 38.1291 48.1381 37.8982 48.108 37.6711C48.078 37.444 48.0016 37.2255 47.8836 37.0292C47.7655 36.8329 47.6084 36.6629 47.4218 36.5299C47.2353 36.3969 47.0235 36.3036 46.7994 36.256C46.5355 36.2089 46.2674 36.1888 45.9994 36.196C39.4759 36.196 32.9527 36.196 26.4301 36.196C26.2302 36.2032 26.0301 36.1956 25.8314 36.1733C25.6461 36.1572 25.473 36.0739 25.3449 35.939C25.2167 35.8042 25.1422 35.6272 25.1354 35.4413C25.0927 35.0106 25.2794 34.6866 25.7034 34.56C25.9289 34.5055 26.161 34.4831 26.3927 34.4933C31.5341 34.4933 36.6759 34.4933 41.8181 34.4933C42.1003 34.5047 42.3827 34.4787 42.6581 34.416C43.4421 34.196 43.9168 33.4493 43.8421 32.6133C43.7992 32.2211 43.6215 31.8559 43.3395 31.5799C43.0575 31.304 42.6885 31.1343 42.2954 31.1C42.1131 31.0864 41.9301 31.0829 41.7474 31.0893L22.9367 31.0746C22.6715 31.0883 22.4055 31.0695 22.1447 31.0186C21.0261 30.7373 20.5287 29.524 21.1274 28.4853C22.0714 26.8413 22.8194 25.1173 23.1074 23.244C23.2986 21.9133 23.3979 20.571 23.4047 19.2266C23.4194 18.1866 22.7181 17.5106 21.8047 17.4786C20.8474 17.444 20.1501 18.0626 20.0034 19.108C19.7846 20.6427 19.2615 22.1182 18.4647 23.448C17.7952 24.6136 16.766 25.531 15.5314 26.0626C13.2806 27.0166 11.3295 28.5613 9.88475 30.5333C8.41808 32.5453 6.45008 33.6226 4.10875 34.1333C3.26094 34.3009 2.40313 34.4131 1.54075 34.4693C0.828746 34.532 0.423412 34.2026 0.415412 33.6533C0.403412 33.1333 0.791412 32.8146 1.47008 32.7786C3.20341 32.684 4.89141 32.3933 6.38475 31.48C7.06431 31.0679 7.66522 30.5384 8.15941 29.916C9.97541 27.572 12.1367 25.6786 14.8701 24.484C15.6647 24.1333 16.2941 23.5813 16.8621 22.7333ZM31.1287 7.22131H31.7127C35.6567 7.22131 39.5994 7.22131 43.5434 7.22798C44.0419 7.22687 44.5392 7.27691 45.0274 7.37732C46.7407 7.74131 48.1154 8.72798 49.4181 9.83465C49.5327 9.93198 49.6501 10.028 49.8314 10.18C49.8314 8.21865 49.8314 6.37198 49.8234 4.52531C49.8213 4.45561 49.8042 4.38717 49.7734 4.32461C49.7426 4.26205 49.6987 4.20682 49.6447 4.16265C47.9741 3.09598 46.2074 2.18531 44.1928 2.14265C40.6501 2.06665 37.1047 2.10531 33.5594 2.12398C32.9682 2.11778 32.3955 2.33003 31.9512 2.72002C31.5068 3.11001 31.222 3.65031 31.1514 4.23731C31.0421 5.19998 31.1301 6.18665 31.1301 7.22131H31.1287ZM37.8968 12.3653V15.9146C37.8968 16.1306 37.9034 16.348 37.8968 16.564C37.8647 17.0973 37.5367 17.4413 37.0727 17.4533C36.6087 17.4653 36.2141 17.1053 36.2048 16.5533C36.1847 15.3386 36.1981 14.124 36.1941 12.9093C36.1941 12.7333 36.1781 12.5573 36.1687 12.376H33.6727V23.4066C35.7274 23.512 37.2501 24.4626 38.1727 26.1466L40.4248 25.968V12.368L37.8968 12.3653ZM41.2928 29.3613C41.2474 28.6106 40.9114 28.112 40.2794 27.8306C39.6474 27.5493 39.0474 27.664 38.5047 28.088C37.7434 28.6826 37.1968 28.516 36.9048 27.5933C36.5527 26.468 35.8247 25.696 34.7141 25.3093C33.3234 24.824 31.8754 25.2933 30.8874 26.5173C30.3714 27.1586 29.6194 27.1426 29.3434 26.44C29.0047 25.576 28.4261 25.1493 27.5007 25.1066C26.9247 25.08 26.6354 24.6426 26.7261 24.0626C26.7554 23.8826 26.7914 23.7013 26.8047 23.52C26.8807 22.4346 26.0981 21.2986 25.1021 21.0973C24.9257 24.0128 24.0627 26.8454 22.5834 29.364L41.2928 29.3613ZM42.1261 8.96131H31.9727V10.6013H42.1274L42.1261 8.96131ZM28.3194 22.1613C29.4874 21.732 30.6087 21.3306 31.7181 20.8973C31.8314 20.8533 31.9301 20.6226 31.9341 20.4773C31.9541 19.648 31.9447 18.8173 31.9434 17.988C31.9434 17.3573 31.8687 17.2773 31.2514 17.48C30.3181 17.784 29.4114 18.1373 28.4927 18.472C27.6341 18.7853 26.7767 19.1013 25.8181 19.4533C27.0701 20.036 27.8701 20.8986 28.3207 22.164L28.3194 22.1613ZM29.1194 23.6826L30.2861 24.5906C30.7607 24.324 31.2407 24.076 31.7047 23.7973C31.7615 23.7609 31.8105 23.7137 31.8489 23.6583C31.8874 23.6029 31.9145 23.5405 31.9287 23.4746C31.9501 23.2005 31.9537 22.9253 31.9394 22.6506L29.1194 23.6826Z" fill="#4D5153"/>
<path d="M37.8853 20.8852C37.8853 21.1839 37.9066 21.4852 37.8853 21.7812C37.8751 21.9914 37.7852 22.1898 37.6338 22.3359C37.4824 22.4821 37.281 22.565 37.0706 22.5679C36.8684 22.5773 36.6702 22.5099 36.5158 22.379C36.3614 22.2481 36.2623 22.0635 36.2386 21.8625C36.1919 21.2007 36.1919 20.5364 36.2386 19.8745C36.2706 19.4159 36.6666 19.1399 37.1146 19.1772C37.5626 19.2145 37.8466 19.4812 37.8866 19.9399C37.9066 20.2519 37.8839 20.5705 37.8853 20.8852Z" fill="#4D5153"/>
</svg>
