<svg width="86" height="86" viewBox="0 0 86 86" fill="none" xmlns="http://www.w3.org/2000/svg">
<path d="M18.1883 18.0615C18.0944 17.0389 17.9997 16.0185 17.9043 15.0004L17.7455 14.9244C17.1394 15.7316 16.4864 16.5187 15.9072 17.3572C14.3419 19.5951 13.0863 22.0343 12.1746 24.6085C12.1164 24.7941 12.0477 24.9763 11.9689 25.1541C11.5865 25.9367 10.7478 26.2721 10.0187 25.9456C9.28968 25.6192 9.01236 24.9283 9.34782 24.0585C10.6614 20.5913 12.4562 17.326 14.6794 14.3587C19.2752 8.28122 25.1904 4.0507 32.4565 1.76103C36.4978 0.467518 40.7456 -0.0580534 44.9803 0.211484C54.3307 0.833093 62.3258 4.48001 68.818 11.2439C73.7873 16.4203 76.8825 22.5894 78.1617 29.6686C78.647 32.3518 78.732 35.035 78.6537 37.7428C78.6537 38.0469 78.6537 38.351 78.6537 38.7512C78.9645 38.7691 79.2598 38.7825 79.5482 38.8049C80.7984 38.8943 82.053 38.9458 83.2942 39.0933C83.8568 39.1347 84.3923 39.351 84.8258 39.7118C85.2593 40.0727 85.5691 40.5601 85.7117 41.1057C86.0763 42.2908 85.7431 43.3037 84.8485 44.1355C83.06 45.7767 81.4306 47.5832 79.9821 49.531C77.7569 52.5586 76.0863 55.8835 74.6148 59.3269C73.0113 63.0901 71.4995 66.8958 69.7372 70.583C67.2168 75.8577 63.4552 80.0905 58.4009 83.1046C56.0492 84.5065 53.4259 85.3914 50.7055 85.7006C50.5816 85.7358 50.4634 85.7885 50.3544 85.8571H46.0113C45.8775 85.7804 45.7348 85.7203 45.5864 85.6782C43.2694 85.3473 41.0287 84.6116 38.9666 83.5048C38.0229 82.9838 37.1216 82.3868 36.1778 81.801C36.0459 81.9106 35.9162 82.0112 35.7932 82.1208C33.9144 83.8387 31.6051 85.0156 29.1108 85.5262L27.5968 85.8571H24.4166C24.2808 85.7819 24.1367 85.7226 23.9873 85.6805C21.8449 85.3061 19.8088 84.4732 18.0183 83.2388C14.8046 81.0408 12.4832 78.0959 10.8619 74.6055C9.56028 71.8105 8.41525 68.944 7.14945 66.1333C5.90571 63.2993 4.14555 60.7213 1.95877 58.5309C1.28786 57.8713 0.538664 57.2944 0.142822 56.4067V55.0651C0.590101 54.439 0.945688 53.7235 1.77539 53.5111C2.28707 53.3722 2.81163 53.286 3.34087 53.2539C5.8009 53.1757 8.24081 53.1332 10.6919 53.0795C10.9647 53.0795 11.2398 53.0795 11.6289 53.0795C11.5404 52.827 11.4389 52.5793 11.3248 52.3372C9.54021 48.9904 8.33063 45.3675 7.74656 41.62C7.46925 39.8312 7.41558 38.0201 7.32165 36.2156C7.2635 35.0529 7.79353 34.4581 8.73505 34.4648C9.62961 34.4648 10.097 35.1222 10.1775 36.2536C10.3095 38.1117 10.4012 39.9833 10.7076 41.8146C11.3927 45.7739 12.8355 49.5639 14.9567 52.9767C15.0666 53.1843 15.2263 53.3614 15.4214 53.4921C15.6166 53.6228 15.8411 53.7031 16.0749 53.7257C16.7905 53.813 17.5017 53.9493 18.2129 54.0567L18.7138 54.1841C18.7138 53.1377 18.7407 52.1717 18.7138 51.1901C18.6081 48.3357 19.4013 45.5201 20.9815 43.1405C21.9611 41.6334 22.793 40.0213 22.878 38.2213C22.9988 35.7237 22.9473 33.2194 22.925 30.7173C22.9048 28.5551 22.1042 26.6589 20.8362 24.9305C19.8857 23.6567 19.1831 22.2155 18.7653 20.6821C18.5394 19.8011 18.3784 18.9224 18.1883 18.0615ZM32.1031 5.01218H32.1143C30.9067 5.48622 29.6543 5.89317 28.4958 6.44993C25.6792 7.79145 23.0907 9.56684 20.825 11.7112C20.6076 11.9054 20.4718 12.1746 20.4448 12.4648C20.4913 13.0157 20.5765 13.5626 20.6998 14.1015C20.8183 15.0943 20.9748 16.0826 21.0464 17.0799C21.1657 19.3705 21.9472 21.5772 23.2962 23.4324C25.1233 25.9188 25.8971 28.7474 25.8994 31.8062C25.8994 33.2864 25.886 34.7644 25.8994 36.2424C25.9391 39.0688 25.1626 41.8467 23.663 44.2429C23.0112 45.3041 22.4737 46.4314 22.0595 47.6058C21.2589 49.891 21.6435 52.3014 21.6122 54.6492C21.6122 54.7901 21.856 54.998 22.0282 55.0651C24.1013 55.8634 26.1834 56.6437 28.2632 57.4263L30.4504 58.5846C30.8776 57.7908 31.2511 57.0529 31.6648 56.3486C32.9027 54.1701 34.5153 52.2271 36.4283 50.6088C38.9264 48.5136 41.7263 46.8702 44.6605 45.466C44.9043 45.3474 45.1257 45.1842 45.3582 45.0411L45.8503 44.8488C46.6173 44.5358 47.3755 44.178 48.1582 43.9253C48.5809 43.7822 48.7218 43.5743 48.7151 43.1472C48.6972 41.7028 48.7151 40.2583 48.7039 38.8138C48.7149 38.6201 48.6854 38.4262 48.6172 38.2446C48.549 38.0629 48.4437 37.8974 48.3079 37.7588C48.1722 37.6201 48.009 37.5113 47.8288 37.4392C47.6486 37.3672 47.4554 37.3335 47.2614 37.3403C46.7359 37.3403 46.2081 37.3582 45.6803 37.3694C44.7499 37.2576 43.7861 37.2643 42.8982 37.0072C41.6883 36.6583 40.5366 36.1128 39.3602 35.6432C38.7676 35.1446 38.1213 34.6996 37.5935 34.1384C35.4935 31.9024 34.353 29.2885 34.4625 26.1715C34.515 23.6533 35.5082 21.2459 37.2468 19.4232C37.8507 18.7793 38.535 18.2091 39.1813 17.6076C39.3655 17.5464 39.5449 17.4717 39.7181 17.384C41.3826 16.3615 43.3092 15.8463 45.2621 15.9015C45.8458 15.9149 46.4295 15.8836 47.0109 15.8702C47.5924 15.8568 48.1291 15.9328 48.6771 15.897C49.5 15.8456 50.1889 15.11 50.1598 14.3788C50.1307 13.6476 49.4508 13.0797 48.6055 13.064C48.0777 13.064 47.5499 13.0752 47.0221 13.0819L43.0816 13.0417C41.8338 13.0543 40.616 12.659 39.6136 11.916C38.6112 11.1729 37.879 10.1227 37.5286 8.92519C37.3764 8.33514 37.3012 7.72786 37.305 7.1185C37.2714 5.98484 37.305 4.85119 37.305 3.61692C35.5785 3.9076 33.9907 4.23853 32.4677 4.84001L32.1031 5.01218ZM72.9531 38.8004C73.5642 38.8273 74.1763 38.8228 74.787 38.787C75.7016 38.6931 75.7956 38.5634 75.8023 37.6288C75.8224 35.4911 75.8224 33.3625 75.5026 31.2316C75.0422 27.9913 74.096 24.8389 72.6959 21.8806C72.4723 21.3999 72.2017 20.9325 71.8931 20.3467L70.473 23.4458L63.0817 39.7172L72.9531 38.8004ZM28.7687 82.6484C30.7516 82.243 32.5759 81.2759 34.0242 79.8624C33.9111 79.6587 33.781 79.4649 33.6351 79.2833C32.1307 77.7486 30.9644 75.916 30.2111 73.9034C29.7169 72.6021 28.8156 71.7278 27.8696 70.8468C27.3217 70.3392 26.6933 69.9234 26.1007 69.465C24.5687 68.5236 23.0636 67.5375 21.4959 66.661C20.6014 66.1624 19.6129 65.8538 18.6714 65.4446C17.5822 64.9661 17.4033 63.6558 18.3292 62.9537C18.7944 62.6049 19.2908 62.6295 19.8231 62.8129C21.9052 63.5306 23.8486 64.5458 25.7473 65.6369L28.7977 67.7924C28.6806 65.7514 28.8874 63.7047 29.4105 61.7284C29.4194 61.614 29.3987 61.4993 29.3506 61.3951C29.3024 61.291 29.2283 61.201 29.1354 61.1336C27.6303 60.4315 26.1074 59.7741 24.5889 59.1011C24.0387 58.9245 23.4572 58.8149 22.9473 58.56C21.2164 57.6946 19.3467 57.2743 17.4771 56.9255C15.4129 56.5409 13.3219 56.2547 11.2286 56.0736C9.49319 55.9237 7.73762 55.9975 5.99099 55.9729L3.5824 56.0981C6.48971 58.9177 8.52259 62.0929 10.0679 65.5877C11.043 67.8014 11.9398 70.0597 12.9059 72.2689C14.4356 75.7772 16.5334 78.8495 19.803 80.9893C21.071 81.8167 22.4039 82.4919 23.9269 82.7021C25.5326 83.1381 27.145 83.0353 28.7687 82.6484ZM54.2054 5.05914C49.6857 3.37766 45.0362 2.69121 40.1698 3.21444C40.1698 4.77964 40.1698 6.26882 40.1698 7.7647C40.1852 7.87527 40.2145 7.98346 40.257 8.08669C40.6484 9.39251 41.7308 10.1751 43.2314 10.1885C45.1257 10.2064 47.0221 10.1662 48.9163 10.2042C52.0987 10.2713 54.0601 13.8578 52.4051 16.579C51.5419 18.0011 50.256 18.7032 48.6033 18.748C46.9506 18.7927 45.3023 18.6921 43.6832 18.9313C40.257 19.4433 37.5622 22.3725 37.3251 26.0083C37.206 27.8179 37.7118 29.6135 38.758 31.095C39.8041 32.5764 41.3272 33.6539 43.0727 34.1473C44.5241 34.5386 46.0001 34.4402 47.4716 34.4738C48.5406 34.5046 49.5574 34.9427 50.314 35.6983C51.0706 36.454 51.5098 37.4701 51.5419 38.5388C51.5642 39.4846 51.5419 40.4327 51.5419 41.3808V42.624L56.7079 41.1303C57.3498 40.9603 58 40.823 58.6558 40.7189C59.3603 40.6407 59.7025 40.2605 59.9776 39.6456C62.1334 34.8494 64.3184 30.0644 66.4922 25.2748L70.0838 17.3616C68.9828 15.6544 67.6916 14.0777 66.235 12.6615C63.9859 10.3714 61.3915 8.44816 58.5463 6.96198C57.1463 6.23304 55.6546 5.68075 54.2054 5.05914ZM53.369 82.1588C54.8875 81.8301 56.2361 81.1145 57.5287 80.2917C61.4721 77.8131 64.6562 74.2961 66.7315 70.1268C68.3372 66.9226 69.7081 63.5977 71.117 60.2996C72.7026 56.5811 74.3867 52.9208 76.5246 49.4796C77.9313 47.2004 79.6465 45.1266 81.6214 43.3172C82.0687 42.9147 82.4623 42.4719 82.8805 42.0493L82.7843 41.8615L80.1565 41.6804C79.6063 41.5961 79.0514 41.5461 78.4949 41.5306C75.7419 41.6021 72.9844 41.6536 70.2337 41.8146C66.282 42.0493 62.4063 42.7537 58.553 43.6704C52.8658 45.012 47.4023 46.9507 42.3391 49.9312C39.2484 51.7469 36.5245 53.9561 34.5855 57.0283C31.5753 61.7932 30.6718 66.8444 32.6197 72.251C32.9918 73.3678 33.544 74.4161 34.2545 75.3546C34.7175 74.2768 35.1111 73.2706 35.5718 72.2935C38.1011 66.9271 41.9097 62.625 46.6464 59.1212C50.1575 56.5252 53.946 54.4256 58.1035 53.0259C58.998 52.724 59.7651 53.0482 60.0312 53.7995C60.322 54.6157 59.9328 55.3647 59.0383 55.7203C58.0833 56.1026 57.115 56.4581 56.1802 56.8875C50.1016 59.6825 44.8662 63.5552 40.8787 68.9887C38.8611 71.7274 37.3682 74.816 36.4753 78.0982C37.6533 79.3441 39.0446 80.3694 40.5835 81.1257C42.524 82.1102 44.6337 82.7172 46.8007 82.9145C49.019 83.1378 51.2594 82.88 53.369 82.1588Z" fill="#348749"/>
<path d="M15.8737 49.0413C15.7619 48.9429 15.5942 48.8669 15.545 48.7439C14.6234 46.4673 13.9421 44.1007 13.5121 41.6826C13.0611 39.1173 12.911 36.5081 13.0648 33.908C13.1854 32.1496 13.426 30.4014 13.7849 28.6758C14.2455 26.3432 14.9812 24.0734 15.9766 21.9141C16.0447 21.7972 16.1249 21.6878 16.2159 21.5876C16.9807 22.8376 17.7702 24.0741 18.5059 25.3397C19.5775 27.1312 20.1202 29.1894 20.0714 31.2762C20.0222 33.3915 20.0848 35.5112 20.0535 37.6265C20.0267 39.4645 19.4475 41.1661 18.5507 42.7492C17.7187 44.2182 16.7325 45.609 16.3277 47.286C16.189 47.8741 16.0213 48.4555 15.8737 49.0413Z" fill="#8CE8A3"/>
<path d="M15.8735 49.0413C16.0256 48.4555 16.1889 47.8742 16.3208 47.2861C16.7256 45.6091 17.7119 44.2183 18.5438 42.7492C19.4383 41.1661 20.0198 39.4645 20.0466 37.6265C20.078 35.5113 20.0153 33.3916 20.0645 31.2763C20.1133 29.1894 19.5706 27.1313 18.4991 25.3397C17.7633 24.0741 16.9738 22.8376 16.209 21.5877C16.7927 20.4429 17.3719 19.2958 17.9623 18.1532C17.9892 18.0995 18.1055 18.0906 18.186 18.0615C18.3761 18.9269 18.5371 19.8011 18.7652 20.6575C19.1831 22.1909 19.8856 23.6321 20.8361 24.9059C22.1041 26.6344 22.9048 28.5305 22.9249 30.6927C22.9473 33.1948 22.9987 35.6991 22.8779 38.1967C22.7929 40.0079 21.961 41.6201 20.9815 43.1159C19.4012 45.4955 18.608 48.3111 18.7138 51.1655C18.7451 52.1382 18.7138 53.1131 18.7138 54.1596L18.2128 54.0321C17.4793 52.686 16.7256 51.3087 16.0211 49.9201C15.8825 49.6697 15.9138 49.332 15.8735 49.0413Z" fill="#4BC269"/>
<path d="M10.681 30.201C10.6623 30.5782 10.5011 30.9341 10.23 31.1969C9.95892 31.4597 9.59812 31.6098 9.2206 31.6167C9.03307 31.6144 8.84789 31.5746 8.67599 31.4997C8.50408 31.4247 8.34894 31.316 8.2197 31.1801C8.09047 31.0442 7.98976 30.8838 7.92352 30.7084C7.85728 30.5329 7.82686 30.346 7.83404 30.1585C7.82978 29.9702 7.86445 29.783 7.93588 29.6087C8.00731 29.4343 8.11396 29.2766 8.24916 29.1454C8.38436 29.0142 8.54519 28.9123 8.72158 28.8461C8.89798 28.78 9.08614 28.7509 9.27428 28.7608C9.46257 28.7582 9.64941 28.794 9.82345 28.8659C9.99749 28.9378 10.1551 29.0444 10.2867 29.1791C10.4182 29.3138 10.521 29.4739 10.5888 29.6495C10.6566 29.8252 10.688 30.0129 10.681 30.201Z" fill="#348749"/>
<path d="M53.3693 82.1588C51.2586 82.8788 49.0175 83.1351 46.7987 82.9101C44.6318 82.7128 42.522 82.1058 40.5816 81.1213C39.0426 80.3649 37.6513 79.3396 36.4733 78.0937C37.3662 74.8115 38.8592 71.723 40.8768 68.9842C44.8643 63.5508 50.0997 59.678 56.1782 56.883C57.113 56.4537 58.0813 56.0982 59.0363 55.7158C59.9308 55.3558 60.32 54.6112 60.0292 53.7951C59.7631 53.0438 58.996 52.7196 58.1015 53.0214C53.944 54.4189 50.1556 56.5208 46.6444 59.1168C41.9077 62.6206 38.0992 66.9271 35.5698 72.2891C35.1091 73.2662 34.7155 74.2724 34.2526 75.3501C33.542 74.4117 32.9898 73.3633 32.6178 72.2466C30.6699 66.8399 31.5734 61.7888 34.5836 57.0239C36.5203 53.9583 39.2464 51.7424 42.3371 49.9268C47.4003 46.9529 52.8638 45.0255 58.551 43.666C62.3954 42.7492 66.28 42.0449 70.2317 41.8101C72.9824 41.6491 75.7399 41.5977 78.4929 41.5261C79.0494 41.5416 79.6043 41.5917 80.1546 41.6759C80.2261 42.4854 79.8057 43.069 79.2108 43.5162C77.869 44.5291 76.8648 45.864 75.7802 47.1251C73.9297 49.2693 72.3736 51.6508 71.1531 54.2065C69.6032 57.4599 68.1809 60.7759 66.7988 64.1075C65.6918 66.7773 64.5401 69.4203 63.0976 71.9335C61.8591 74.1034 60.3386 76.0997 58.5756 77.8701C57.1255 79.3256 55.506 80.6018 53.7517 81.6713C53.5929 81.7697 53.4967 81.9933 53.3693 82.1588Z" fill="#8CE8A3"/>
<path d="M39.3445 35.6252C40.5209 36.0903 41.6726 36.6404 42.8825 36.9892C43.7771 37.2463 44.7342 37.2396 45.6646 37.3514C45.7498 37.7833 45.8066 38.2202 45.8345 38.6595C45.8502 40.7166 45.8345 42.7737 45.8345 44.8309L45.3425 45.0232C45.1797 44.9951 45.0133 44.9951 44.8505 45.0232C42.2621 46.0254 39.7621 47.2423 37.3765 48.6611C34.2903 50.5014 31.5462 52.6859 29.52 55.709C29.122 56.2993 28.6725 56.8561 28.2475 57.4285C26.1677 56.6459 24.0856 55.8633 22.0125 55.0673C21.8403 55.0002 21.5943 54.7923 21.5965 54.6514C21.6368 52.2946 21.2521 49.8932 22.0438 47.608C22.4617 46.4299 23.0037 45.2996 23.6607 44.2361C25.1603 41.8399 25.9369 39.062 25.8971 36.2357C25.8792 34.7577 25.8971 33.2797 25.8971 31.7994C25.8971 28.7406 25.1211 25.912 23.2939 23.4256C21.9453 21.5695 21.1645 19.362 21.0463 17.0709C20.9748 16.0736 20.8227 15.0853 20.6997 14.0925C22.0214 12.7956 23.3275 11.4786 24.6715 10.2041C26.2862 8.67469 28.1223 7.43818 30.0389 6.30677C30.7456 5.89087 31.4299 5.4392 32.1232 5.00318H32.112L32.4721 4.831C33.9951 4.22952 35.5829 3.89859 37.3094 3.60791C37.3094 4.84218 37.2848 5.97584 37.3094 7.10949C37.3056 7.71885 37.3808 8.32614 37.533 8.91618C37.8816 10.1146 38.6124 11.1662 39.614 11.911C40.6157 12.6557 41.8333 13.0527 43.0815 13.0416L47.0087 13.0662C47.2714 13.9771 47.2714 14.9436 47.0087 15.8545C46.4272 15.8679 45.8435 15.8992 45.2598 15.8858C43.3069 15.8306 41.3803 16.3458 39.7158 17.3683C39.5426 17.456 39.3632 17.5307 39.179 17.5919C38.8503 17.6062 38.5234 17.648 38.2017 17.7171C37.061 18.0356 35.9952 18.5784 35.0667 19.3136C34.1381 20.0488 33.3656 20.9618 32.7941 21.999C31.4143 24.4385 31.2287 26.992 32.1232 29.6126C32.9127 31.9179 34.4692 33.6218 36.596 34.7778C37.4414 35.2451 38.3292 35.661 39.3445 35.6252Z" fill="#48B263"/>
<path d="M56.7238 41.1392L51.551 42.6239V41.365C51.551 40.417 51.5644 39.4689 51.551 38.5231C51.5189 37.4544 51.0797 36.4382 50.3231 35.6826C49.5665 34.927 48.5497 34.4889 47.4808 34.458C46.0092 34.4245 44.5332 34.5229 43.0818 34.1316C41.3364 33.6382 39.8132 32.5607 38.7671 31.0792C37.7209 29.5978 37.2151 27.8021 37.3342 25.9925C37.5624 22.3657 40.2572 19.4366 43.6834 18.9223C45.2958 18.683 46.9574 18.7814 48.6034 18.7389C50.2494 18.6964 51.551 17.9921 52.4053 16.57C54.0558 13.8488 52.0989 10.2622 48.9165 10.1952C47.0223 10.1572 45.1258 10.1952 43.2316 10.1795C41.731 10.1661 40.6486 9.38349 40.2572 8.07767C40.2147 7.97444 40.1854 7.86626 40.17 7.75568C40.17 6.2598 40.17 4.76168 40.17 3.20542C45.0386 2.68219 49.6859 3.36865 54.2056 5.05012C54.4168 5.28987 54.6564 5.50311 54.919 5.68514C59.9962 8.4061 64.2993 12.3714 67.4249 17.2095C66.9307 18.3275 66.4543 19.4187 65.9646 20.5031C64.2768 24.2194 62.5906 27.9311 60.9058 31.6384C59.6758 34.3507 58.4279 37.0339 57.2046 39.7372C57.0011 40.1867 56.8781 40.6719 56.7238 41.1392Z" fill="#8CE8A3"/>
<path d="M25.7361 65.6303C23.8329 64.5369 21.894 63.524 19.8231 62.8062C19.2908 62.6229 18.7943 62.5983 18.3292 62.9471C17.4033 63.638 17.5822 64.9595 18.6713 65.438C19.6128 65.8472 20.6058 66.1558 21.4959 66.6544C23.0614 67.5309 24.5687 68.517 26.1006 69.4584C26.1521 69.6998 26.208 69.9413 26.2549 70.1851C26.8826 73.3863 28.4326 76.3343 30.7143 78.6662C31.8325 79.8379 31.8571 79.9564 30.645 81.0587C30.5242 81.1705 30.3744 81.251 30.2491 81.3584C29.7527 81.7832 29.2607 82.2147 28.7686 82.6418C27.1562 83.0354 25.5438 83.1382 23.9246 82.691C23.6874 82.4671 23.4373 82.2573 23.1754 82.0627C20.6987 80.4471 18.6818 78.2188 17.3205 75.5939C16.0458 73.1343 15.0327 70.545 13.872 68.0273C13.0714 66.2899 12.2708 64.5481 11.365 62.8644C10.1328 60.5725 8.45771 58.616 6.55677 56.8406C6.31077 56.617 6.17659 56.2615 5.99097 55.9663C7.73759 55.9909 9.49316 55.9171 11.2286 56.0669C13.3219 56.2436 15.4129 56.5343 17.4771 56.9188C19.3467 57.2677 21.2163 57.688 22.9473 58.5534C23.4572 58.8083 24.0387 58.9178 24.5888 59.0945C24.7675 59.2817 24.962 59.453 25.1703 59.6065C25.7473 59.9688 26.3444 60.2997 26.8252 60.5814C26.5591 61.894 26.3176 63.1014 26.0671 64.3066C25.962 64.7605 25.8434 65.1898 25.7361 65.6303Z" fill="#48B263"/>
<path d="M53.3689 82.1587C53.4941 81.9933 53.5925 81.7697 53.7513 81.6713C55.5056 80.6018 57.1252 79.3256 58.5752 77.8701C60.3382 76.0996 61.8588 74.1034 63.0972 71.9335C64.5397 69.4269 65.6914 66.7907 66.7984 64.1075C68.1805 60.7758 69.6029 57.4599 71.1527 54.2065C72.3732 51.6507 73.9293 49.2693 75.7798 47.125C76.8645 45.8639 77.8641 44.529 79.2104 43.5161C79.8053 43.0689 80.2258 42.4853 80.1542 41.6759L82.782 41.857L82.8781 42.0448C82.4599 42.4675 82.0596 42.9102 81.619 43.3127C79.6441 45.1221 77.929 47.1959 76.5223 49.4751C74.3843 52.9141 72.7003 56.5766 71.1147 60.2951C69.7058 63.5932 68.3348 66.9181 66.7291 70.1223C64.6534 74.2889 61.4702 77.8034 57.5286 80.2805C56.2382 81.1145 54.8896 81.83 53.3689 82.1587Z" fill="#4BC269"/>
<path d="M56.7235 41.1392C56.8845 40.6719 57.0075 40.1867 57.211 39.7373C58.4343 37.0339 59.6711 34.3395 60.9123 31.6385C62.5925 27.9312 64.2766 24.2201 65.9643 20.5054C66.4541 19.4209 66.9304 18.3298 67.4247 17.2118C64.299 12.3737 59.996 8.40835 54.9187 5.6874C54.6565 5.50745 54.417 5.29648 54.2053 5.05908C55.6545 5.6874 57.1462 6.23969 58.5462 6.96416C61.3912 8.44966 63.9857 10.3721 66.2349 12.6615C67.6954 14.0813 68.9897 15.6626 70.0927 17.375L66.501 25.2882C64.3272 30.0777 62.1423 34.8628 59.9864 39.659C59.7113 40.2739 59.3692 40.654 58.6647 40.7323C58.0112 40.8351 57.3633 40.9709 56.7235 41.1392Z" fill="#4BC269"/>
<path d="M72.953 38.8004L63.0815 39.7171L70.4728 23.4413C70.6562 23.6716 70.8151 23.9204 70.9469 24.1836C72.0875 27.1419 72.6757 30.232 72.9329 33.3714C73.0782 35.1714 72.9552 36.9915 72.953 38.8004Z" fill="#48B263"/>
<path d="M72.9533 38.8004C72.9533 36.9915 73.0785 35.1714 72.9332 33.3759C72.676 30.2455 72.0878 27.1464 70.9473 24.1881C70.8154 23.9249 70.6565 23.6761 70.4731 23.4458L71.8932 20.3467C72.2019 20.9325 72.4635 21.3998 72.6961 21.8806C74.0985 24.8385 75.047 27.9909 75.5095 31.2315C75.8293 33.3625 75.8293 35.4799 75.8092 37.6287C75.8092 38.5634 75.7085 38.6931 74.7939 38.787C74.181 38.823 73.5666 38.8275 72.9533 38.8004Z" fill="#389E52"/>
<path d="M39.3446 35.6253C38.3293 35.6611 37.4415 35.2363 36.5961 34.7779C34.4715 33.6219 32.915 31.918 32.1233 29.6127C31.2288 26.9921 31.4099 24.4386 32.7942 22.0103C33.3633 20.9714 34.1339 20.0565 35.0608 19.3189C35.9878 18.5814 37.0526 18.0361 38.1929 17.7149C38.5146 17.6459 38.8415 17.604 39.1702 17.5897C38.5239 18.1912 37.8395 18.7614 37.2357 19.4054C35.4971 21.2281 34.5038 23.6354 34.4514 26.1536C34.3373 29.2706 35.4779 31.889 37.5824 34.1205C38.1057 34.6817 38.752 35.1267 39.3446 35.6253Z" fill="#48B263"/>
<path d="M28.7686 82.6486C29.2606 82.2215 29.7526 81.7899 30.2491 81.3651C30.3743 81.2578 30.5242 81.1773 30.6449 81.0655C31.8571 79.9631 31.8436 79.8446 30.7143 78.6729C28.4326 76.3411 26.8825 73.3931 26.2549 70.1918C26.2079 69.9481 26.152 69.7066 26.1006 69.4651C26.6932 69.9235 27.3217 70.3394 27.8696 70.8469C28.8156 71.7279 29.7168 72.6022 30.2111 73.9036C30.9643 75.9161 32.1307 77.7487 33.635 79.2834C33.7809 79.465 33.9111 79.6588 34.0241 79.8625C32.5759 81.276 30.7515 82.2432 28.7686 82.6486Z" fill="#389E52"/>
<path d="M28.2476 57.4263C28.6725 56.8539 29.122 56.3083 29.5201 55.7068C31.5462 52.6949 34.2903 50.4992 37.3765 48.6589C39.7623 47.2424 42.2623 46.0277 44.8506 45.0277C45.0134 44.9996 45.1798 44.9996 45.3426 45.0277C45.1189 45.1708 44.8953 45.334 44.6448 45.4525C41.7107 46.8656 38.9107 48.5091 36.4126 50.5953C34.4996 52.2136 32.887 54.1567 31.6491 56.3351C31.2354 57.0484 30.8619 57.7863 30.4348 58.5711L28.2476 57.4263Z" fill="#48B263"/>
<path d="M45.8345 44.8323C45.8345 42.7748 45.8502 40.7174 45.8345 38.6599C45.8065 38.2205 45.7498 37.7835 45.6646 37.3516C46.1923 37.3516 46.7201 37.3113 47.2457 37.3225C47.4396 37.3157 47.6329 37.3494 47.8131 37.4214C47.9933 37.4935 48.1565 37.6023 48.2922 37.741C48.4279 37.8797 48.5333 38.0452 48.6015 38.2269C48.6696 38.4086 48.6992 38.6025 48.6882 38.7963C48.7016 40.241 48.6882 41.6857 48.6993 43.1304C48.6993 43.5576 48.5652 43.7656 48.1425 43.9087C47.3597 44.1726 46.6016 44.5192 45.8345 44.8323Z" fill="#48B263"/>
<path d="M25.7363 65.6302C25.8437 65.183 25.96 64.7492 26.0561 64.3065C26.3066 63.1013 26.5481 61.8938 26.8143 60.5813C26.3335 60.2996 25.7363 59.9686 25.1593 59.6064C24.9511 59.4529 24.7565 59.2815 24.5779 59.0944C26.0964 59.7652 27.6194 60.4248 29.1245 61.1269C29.2174 61.1942 29.2914 61.2843 29.3396 61.3884C29.3878 61.4925 29.4084 61.6073 29.3995 61.7217C28.8765 63.698 28.6697 65.7447 28.7868 67.7857L25.7363 65.6302Z" fill="#389E52"/>
<path d="M46.9998 15.855C47.2625 14.944 47.2625 13.9773 46.9998 13.0662C47.5275 13.0662 48.0553 13.0394 48.5831 13.0483C49.4285 13.064 50.1106 13.6522 50.1374 14.3633C50.1643 15.0745 49.4777 15.8304 48.6547 15.8818C48.1135 15.9176 47.5544 15.8684 46.9998 15.855Z" fill="#48B263"/>
</svg>
