<svg width="52" height="53" viewBox="0 0 52 53" fill="none" xmlns="http://www.w3.org/2000/svg">
<path d="M30.2279 50.6583C29.6173 51.0076 29.0133 51.393 28.3733 51.7023C28.0095 51.8911 27.6093 51.9993 27.1999 52.0196C21.9093 52.041 16.6204 52.041 11.3333 52.0196C10.9535 52.0153 10.5807 51.9173 10.2479 51.7343C7.33326 50.0996 4.43059 48.4343 1.53192 46.7663C0.731923 46.3076 0.39059 45.5836 0.587923 44.8183C0.80259 43.9823 1.43859 43.5276 2.41592 43.5196C3.12926 43.5196 3.84392 43.5196 4.68259 43.5196C4.50392 43.3863 4.41592 43.305 4.31326 43.2463C3.39192 42.713 2.46659 42.1916 1.54526 41.6596C0.745256 41.197 0.401256 40.4796 0.595923 39.7143C0.803923 38.897 1.43059 38.421 2.36792 38.401C3.08926 38.3863 3.81192 38.401 4.55992 38.2796C3.74215 37.8156 2.92703 37.3499 2.11459 36.8823C1.82659 36.7156 1.52792 36.5623 1.25859 36.3716C0.990125 36.1982 0.780456 35.9476 0.657175 35.6527C0.533895 35.3578 0.502779 35.0325 0.567923 34.7196C0.701256 34.0036 1.12926 33.5196 1.85192 33.3556C2.12903 33.3023 2.41117 33.2795 2.69326 33.2876C11.3457 33.2876 19.9973 33.2908 28.6479 33.297C29.1533 33.297 29.3666 33.1983 29.4333 32.653C29.6613 30.7863 30.0266 28.9423 30.1999 27.0756C30.4475 24.5564 29.8976 22.0229 28.6279 19.833C27.4039 17.6823 27.6413 15.137 29.2026 13.1476C30.4986 11.4956 32.2346 10.429 34.0786 9.51164C34.2344 9.41505 34.402 9.33887 34.5773 9.28497C35.4039 9.11964 35.5839 8.58364 35.4773 7.83431C35.449 7.51947 35.4468 7.20284 35.4706 6.88764C35.4639 6.42675 35.5869 5.97326 35.8255 5.57886C36.064 5.18447 36.4086 4.86503 36.8199 4.65697C37.0986 4.50364 37.1933 4.35031 37.1773 4.04897C37.1519 3.58364 37.1626 3.11564 37.1773 2.65164C37.1919 1.66631 37.8919 0.950306 38.8679 0.926306C39.4506 0.912973 40.0333 0.910306 40.6146 0.926306C41.0523 0.932214 41.4702 1.10925 41.779 1.41952C42.0878 1.72978 42.2628 2.1486 42.2666 2.58631C42.2746 2.78631 42.2773 2.98631 42.2666 3.18497C42.2359 3.90897 42.1986 4.55297 43.0506 4.98231C43.7013 5.31031 43.9546 6.06097 43.9666 6.82097C43.9746 7.37031 43.9866 7.91964 43.9666 8.46764C43.9533 8.77964 44.0613 8.92764 44.3519 9.05697C46.1093 9.83297 47.7813 10.7543 49.1999 12.0703C50.7906 13.537 51.8066 15.2916 51.5239 17.537C51.4237 18.3592 51.1709 19.1555 50.7786 19.885C49.3826 22.4023 48.9653 25.085 49.3119 27.885C49.6146 30.3236 50.1239 32.7356 50.4653 35.1703C50.6588 36.571 50.7706 37.9819 50.7999 39.3956C50.8506 41.7956 50.8106 44.1863 50.7999 46.5823C50.7919 49.8916 48.6373 52.033 45.3199 52.0343H34.7999C32.4079 52.0343 32.1826 51.9663 30.2279 50.6583ZM31.8733 49.7183C32.4746 50.1372 33.194 50.353 33.9266 50.3343C37.7204 50.3343 41.5133 50.3343 45.3053 50.3343C47.7053 50.3343 49.0919 48.9623 49.0959 46.5716C49.0999 44.181 49.1413 41.813 49.0959 39.4356C49.0692 38.0731 48.9614 36.7134 48.7733 35.3636C48.4306 32.929 47.9199 30.517 47.6253 28.0783C47.2426 24.9196 47.7093 21.8863 49.2933 19.0623C49.5895 18.5073 49.7751 17.9001 49.8399 17.2743C50.0293 15.5956 49.1733 14.341 48.0026 13.2743C46.5666 11.9583 44.8586 11.1063 43.0906 10.3663C42.9184 10.3119 42.7373 10.2911 42.5573 10.305C41.0266 10.305 39.4906 10.3516 37.9666 10.285C36.921 10.2407 35.8826 10.4764 34.9586 10.9676C33.3333 11.793 31.7626 12.6903 30.5946 14.137C29.3759 15.6476 29.2773 17.401 30.1573 19.125C30.6991 20.1699 31.1397 21.2642 31.4733 22.393C32.2346 25.045 31.9839 27.7263 31.5346 30.405C31.3759 31.3463 31.2173 32.289 31.0506 33.285H31.6613C33.1413 33.285 34.6226 33.285 36.1026 33.285C37.0506 33.285 37.7213 33.7463 37.9413 34.521C38.1719 35.3276 37.8306 36.0796 36.9959 36.5636C36.1199 37.073 35.2359 37.5703 34.3573 38.0743C34.2386 38.1436 34.1293 38.229 34.0159 38.3063C34.7313 38.3787 35.4502 38.4112 36.1693 38.4036C37.0893 38.421 37.7399 38.8863 37.9466 39.649C38.1626 40.449 37.8319 41.1836 37.0226 41.657C36.1039 42.1903 35.1773 42.7143 34.2559 43.2463C34.1244 43.3344 33.9976 43.4292 33.8759 43.5303C34.8093 43.5303 35.6093 43.5076 36.4026 43.537C36.6241 43.5421 36.8424 43.592 37.0441 43.6837C37.2459 43.7754 37.427 43.907 37.5765 44.0706C37.726 44.2342 37.8408 44.4263 37.9141 44.6355C37.9873 44.8447 38.0174 45.0665 38.0026 45.2876C37.9759 46.013 37.5679 46.4756 36.9639 46.817C35.2839 47.7663 33.6133 48.725 31.8733 49.7183ZM36.1013 45.3383L36.0639 45.257H2.35326C2.50259 45.357 2.56392 45.4036 2.62926 45.441C5.39903 47.025 8.1697 48.6059 10.9413 50.1836C11.1481 50.2861 11.3772 50.3356 11.6079 50.3276C16.7146 50.3356 21.8213 50.3356 26.9279 50.3276C27.2218 50.3205 27.5096 50.2423 27.7666 50.0996C29.3346 49.2263 30.8879 48.329 32.4466 47.433L36.1013 45.3383ZM2.36792 35.005C2.42343 35.0626 2.48267 35.1165 2.54526 35.1663C4.34792 36.197 6.14526 37.2303 7.95726 38.249C8.14667 38.3469 8.35739 38.3964 8.57059 38.393C15.7039 38.3992 22.8364 38.3992 29.9679 38.393C30.2 38.3961 30.4292 38.3411 30.6346 38.233C32.3679 37.2556 34.1013 36.261 35.8266 35.269C35.9505 35.1866 36.0697 35.0976 36.1839 35.0023L2.36792 35.005ZM36.2173 40.1623H2.48926C4.24526 41.2516 6.01059 42.273 7.79326 43.265C8.07944 43.4226 8.39989 43.5078 8.72659 43.513C15.2799 43.5276 21.8346 43.4943 28.3879 43.549C29.7359 43.5596 30.9039 43.3116 32.0399 42.573C33.3413 41.7236 34.7306 41.009 36.2106 40.1623H36.2173ZM42.2666 8.57431C42.2666 7.98897 42.2773 7.45964 42.2666 6.92897C42.2559 6.39831 41.9439 6.04631 41.4039 6.03564C40.2759 6.01564 39.1466 6.01964 38.0186 6.03564C37.5933 6.03564 37.2466 6.28097 37.2053 6.70231C37.1439 7.31964 37.1893 7.94631 37.1893 8.56897L42.2666 8.57431ZM40.5466 2.65431H38.9039V4.28631H40.5466V2.65431Z" fill="#4D5153"/>
<path d="M13.2787 31.5825C6.74533 31.5825 1.696 27.3838 0.772 21.8172C0.28 18.8558 0.784 15.9865 1.87333 13.2172C3.44133 9.23051 6.03867 5.97985 9.16133 3.11585C9.81067 2.51985 10.4827 1.94918 11.1613 1.39318C11.9213 0.781178 12.9333 0.717178 13.6547 1.32384C17.9213 4.89718 21.508 8.99851 23.448 14.3078C24.768 17.9172 24.8573 21.5532 23.0187 25.0358C20.784 29.2678 17.2 31.4025 13.2787 31.5825ZM12.4467 29.8838C17.6467 29.8838 22.104 25.8038 22.6133 20.6212C22.88 17.9718 22.2693 15.4998 21.1467 13.1372C19.2 9.05051 16.2467 5.76518 12.8533 2.83851C12.544 2.57185 12.32 2.62785 12.0333 2.86918C8.992 5.47585 6.32133 8.39985 4.38133 11.9358C2.88133 14.6652 1.98933 17.5438 2.31333 20.7212C2.83467 25.8465 7.27867 29.8878 12.4467 29.8838Z" fill="#4D5153"/>
<path d="M39.7012 31.5799C36.8078 31.5799 34.3678 28.9039 34.6172 26.0185C34.8772 22.9519 36.3612 20.5185 38.5358 18.4532C39.2425 17.7865 40.1745 17.7679 40.8812 18.4332C43.0652 20.4905 44.5572 22.9225 44.8198 25.9892C44.8832 26.6995 44.7979 27.4152 44.5693 28.0907C44.3408 28.7661 43.9741 29.3866 43.4926 29.9126C43.011 30.4385 42.4252 30.8584 41.7724 31.1455C41.1197 31.4325 40.4143 31.5805 39.7012 31.5799ZM39.7238 19.6545C37.8318 21.4012 36.6572 23.4732 36.3518 25.9825C36.1758 27.4145 36.7598 28.5612 37.9598 29.3425C39.1078 30.0905 40.3238 30.0879 41.4878 29.3745C42.7078 28.6279 43.2212 27.4812 43.1105 26.0732C42.9078 23.4745 41.5772 21.4612 39.7238 19.6545Z" fill="#4D5153"/>
<path d="M12.0947 28.1742C8.46938 28.0742 5.12538 25.3475 4.23738 21.7742C4.08138 21.1448 4.27338 20.7208 4.78138 20.5742C5.28938 20.4275 5.70672 20.6995 5.89072 21.3502C6.59072 23.8302 8.16672 25.4648 10.6294 26.2168C11.1242 26.3554 11.6324 26.4403 12.1454 26.4702C12.9347 26.5315 13.3454 26.8248 13.3067 27.3875C13.2681 27.9502 12.8654 28.1942 12.0947 28.1742Z" fill="#4D5153"/>
</svg>
