<svg width="60" height="60" viewBox="0 0 60 60" fill="none" xmlns="http://www.w3.org/2000/svg">
<mask id="mask0_198_1743" style="mask-type:alpha" maskUnits="userSpaceOnUse" x="0" y="0" width="60" height="60">
<rect width="60" height="60" fill="#959595"/>
</mask>
<g mask="url(#mask0_198_1743)">
<path d="M51.2398 29.9695C51.2398 37.5561 51.2398 45.1433 51.2398 52.7308C51.2398 54.2081 50.4625 55.2201 49.1398 55.4721C48.9265 55.5065 48.7105 55.5207 48.4945 55.5148C36.1389 55.5148 23.7794 55.5148 11.4158 55.5148C9.72384 55.5148 8.6665 54.4708 8.6665 52.7815C8.6665 37.5753 8.6665 22.3681 8.6665 7.16015C8.6665 5.43615 9.71317 4.40015 11.4372 4.40015H48.4678C50.1945 4.40015 51.2372 5.43081 51.2385 7.15748C51.2412 14.7628 51.2416 22.3668 51.2398 29.9695ZM10.3705 16.3455V52.6668C10.3705 53.5548 10.6372 53.8135 11.5385 53.8135H48.3638C49.2812 53.8135 49.5358 53.5548 49.5358 52.6201C49.5358 40.709 49.5358 28.7979 49.5358 16.8868C49.5358 16.7121 49.5198 16.5375 49.5105 16.3441L10.3705 16.3455ZM25.7118 14.5828H49.5358V14.0601C49.5358 11.797 49.5358 9.53481 49.5358 7.27348C49.5358 6.35215 49.2798 6.10148 48.3438 6.10148H26.2438C26.0692 6.10148 25.8932 6.11615 25.7105 6.12415L25.7118 14.5828ZM10.3705 14.5828H23.9518V6.14015H22.2785C22.2785 6.42548 22.2785 6.67348 22.2785 6.92015C22.2532 8.42015 21.1918 9.48948 19.6892 9.50148C17.9945 9.51348 16.2985 9.51615 14.6025 9.50148C13.1638 9.48548 12.1038 8.40415 12.0692 6.96815C12.0692 6.69215 12.0692 6.41615 12.0692 6.13215C11.8985 6.12148 11.8025 6.11081 11.7025 6.10948C10.5838 6.09215 10.3692 6.30948 10.3692 7.43481V14.5815L10.3705 14.5828ZM13.7798 6.11748C13.7798 6.44681 13.7638 6.72815 13.7798 7.00681C13.7804 7.1111 13.8015 7.21425 13.8421 7.31033C13.8826 7.40641 13.9418 7.49351 14.0161 7.56663C14.0905 7.63975 14.1786 7.69744 14.2753 7.73637C14.3721 7.7753 14.4756 7.79471 14.5798 7.79348C16.3069 7.80681 18.0336 7.80681 19.7598 7.79348C19.955 7.80209 20.1458 7.73485 20.2925 7.60585C20.4391 7.47685 20.5302 7.2961 20.5465 7.10148C20.5742 6.77418 20.5777 6.4453 20.5572 6.11748H13.7798Z" fill="#4D5153"/>
<path d="M45.2916 33.392C45.2916 34.4386 45.2916 35.4866 45.2916 36.5346C45.285 37.9413 44.697 38.756 43.381 39.2493C43.2111 39.3349 43.0756 39.476 42.997 39.6493C40.6796 44.1893 37.0103 46.916 31.9836 47.7013C24.7196 48.8346 17.593 43.992 15.885 36.848C13.9196 28.632 19.1143 20.6413 27.4183 19.1C33.685 17.936 40.1263 21.212 42.9383 27.0066C42.9942 27.1405 43.0794 27.2602 43.1876 27.3569C43.2958 27.4535 43.4243 27.5248 43.5636 27.5653C44.6503 27.9213 45.2756 28.856 45.289 30.0986C45.301 31.2 45.2916 32.2933 45.2916 33.392ZM41.3236 39.092C41.237 39.0493 41.1516 39.004 41.057 38.9586C39.497 38.248 38.5996 37.032 38.4916 35.332C38.417 34.0201 38.417 32.7051 38.4916 31.3933C38.561 29.9546 39.269 28.84 40.485 28.06C40.7516 27.892 41.0383 27.768 41.3156 27.624C39.2303 23.128 33.617 19.5146 27.2636 20.8706C24.343 21.4977 21.7346 23.1285 19.8919 25.4796C18.0491 27.8306 17.0886 30.7531 17.1774 33.7389C17.2661 36.7248 18.3986 39.5851 20.3777 41.8225C22.3569 44.0598 25.0576 45.5328 28.0103 45.9853C34.0676 46.9333 39.333 43.4506 41.3236 39.092ZM43.5836 33.3866C43.5836 32.2893 43.5943 31.1906 43.5836 30.0933C43.5743 29.38 43.2023 29.064 42.501 29.1266C41.1996 29.2413 40.2343 30.2533 40.185 31.6253C40.145 32.788 40.145 33.9546 40.185 35.1173C40.2303 36.4173 41.0703 37.3533 42.3183 37.5826C43.165 37.74 43.585 37.4 43.5903 36.5306C43.5903 35.4826 43.585 34.4346 43.5836 33.3866Z" fill="#4D5153"/>
<path d="M21.0774 50.412C22.0107 50.412 22.9441 50.412 23.8681 50.412C24.4561 50.412 24.8401 50.7547 24.8441 51.248C24.8481 51.7414 24.4574 52.1054 23.8814 52.108C21.9712 52.116 20.0601 52.116 18.1481 52.108C17.5654 52.108 17.1827 51.756 17.1787 51.26C17.1747 50.764 17.5467 50.416 18.1361 50.412C19.1174 50.4067 20.0974 50.412 21.0774 50.412Z" fill="#4D5153"/>
<path d="M13.7761 50.4147C14.0587 50.4147 14.3427 50.404 14.6241 50.4147C14.8423 50.4145 15.0521 50.4991 15.2093 50.6505C15.3665 50.802 15.4588 51.0085 15.4667 51.2267C15.4784 51.4377 15.4083 51.6451 15.271 51.8058C15.1337 51.9665 14.9397 52.068 14.7294 52.0893C14.083 52.1327 13.4344 52.1327 12.7881 52.0893C12.3387 52.0573 12.0547 51.6533 12.0747 51.2147C12.0792 51.0046 12.1652 50.8046 12.3145 50.6568C12.4638 50.509 12.6647 50.425 12.8747 50.4227C13.1721 50.404 13.4721 50.4227 13.7707 50.4227L13.7761 50.4147Z" fill="#4D5153"/>
<path d="M38.4425 12.9067C38.1099 12.906 37.7807 12.8394 37.4739 12.7109C37.1671 12.5824 36.8888 12.3944 36.6551 12.1577C36.4213 11.9211 36.2367 11.6406 36.1119 11.3322C35.9871 11.0239 35.9245 10.6939 35.9279 10.3613C35.9271 9.85548 36.0769 9.36085 36.3581 8.94036C36.6393 8.51988 37.0392 8.19256 37.507 8.00006C37.9748 7.80755 38.4893 7.75856 38.985 7.85931C39.4807 7.96007 39.9352 8.20602 40.2907 8.56587C40.6462 8.92572 40.8867 9.3832 40.9814 9.88009C41.0762 10.377 41.0209 10.8908 40.8228 11.3563C40.6246 11.8217 40.2925 12.2176 39.8686 12.4937C39.4447 12.7698 38.9483 12.9135 38.4425 12.9067ZM38.4625 9.50933C38.2363 9.51561 38.0218 9.61136 37.8661 9.77558C37.7104 9.9398 37.6261 10.1591 37.6319 10.3853C37.6323 10.4973 37.6558 10.608 37.7007 10.7106C37.7456 10.8132 37.811 10.9055 37.893 10.9819C37.9749 11.0582 38.0716 11.1169 38.1772 11.1544C38.2827 11.192 38.3948 11.2075 38.5065 11.2C38.7242 11.1928 38.9308 11.1018 39.083 10.9461C39.2353 10.7903 39.3216 10.5818 39.3239 10.364C39.3184 10.1379 39.2257 9.92268 39.0651 9.76338C38.9046 9.60408 38.6887 9.51305 38.4625 9.50933Z" fill="#4D5153"/>
<path d="M45.2801 12.908C44.6082 12.9098 43.9629 12.6454 43.4854 12.1726C43.0079 11.6999 42.737 11.0572 42.7321 10.3853C42.722 10.0462 42.7797 9.70837 42.9018 9.39178C43.0239 9.0752 43.208 8.78618 43.4433 8.54167C43.6786 8.29716 43.9603 8.10209 44.272 7.96788C44.5837 7.83367 44.919 7.76303 45.2583 7.7601C45.5976 7.75718 45.9341 7.82202 46.248 7.95082C46.5619 8.07963 46.847 8.26982 47.0865 8.51022C47.3259 8.75063 47.515 9.03643 47.6426 9.35086C47.7702 9.66529 47.8337 10.002 47.8294 10.3413C47.8339 10.6782 47.7711 11.0125 47.6448 11.3248C47.5184 11.637 47.3311 11.921 47.0937 12.16C46.8563 12.399 46.5737 12.5882 46.2622 12.7167C45.9508 12.8451 45.6169 12.9102 45.2801 12.908ZM46.1281 10.3747C46.1288 10.1485 46.0403 9.93124 45.8818 9.76998C45.7233 9.60871 45.5075 9.51649 45.2814 9.51333C45.0551 9.52091 44.8406 9.61581 44.6827 9.77813C44.5249 9.94045 44.436 10.1576 44.4348 10.384C44.4413 10.6007 44.5311 10.8064 44.6856 10.9585C44.8401 11.1105 45.0474 11.197 45.2641 11.2C45.3764 11.2058 45.4887 11.1886 45.5942 11.1495C45.6996 11.1104 45.796 11.0502 45.8774 10.9726C45.9588 10.8949 46.0234 10.8015 46.0675 10.698C46.1115 10.5945 46.1339 10.4831 46.1334 10.3707L46.1281 10.3747Z" fill="#4D5153"/>
<path d="M18.8943 32.9693C19.0276 27.5187 23.4276 22.8267 28.8529 22.3547C29.1836 22.3267 29.5196 22.2906 29.8476 22.2906C30.4089 22.2906 30.7729 22.616 30.7929 23.104C30.8156 23.6147 30.4623 23.968 29.8716 23.9853C27.7463 24.0467 25.8196 24.6813 24.1556 26.0173C21.8889 27.84 20.7143 30.2267 20.5823 33.1293C20.583 33.2455 20.5776 33.3617 20.5663 33.4773C20.5413 33.6778 20.4451 33.8627 20.2951 33.9982C20.1452 34.1337 19.9516 34.2109 19.7496 34.2156C19.5476 34.2202 19.3506 34.1522 19.1946 34.0238C19.0385 33.8953 18.9339 33.7151 18.8996 33.516C18.8825 33.3342 18.8807 33.1514 18.8943 32.9693Z" fill="#4D5153"/>
</g>
</svg>
