<svg width="52" height="52" viewBox="0 0 52 52" fill="none" xmlns="http://www.w3.org/2000/svg">
<path d="M11.4532 34.4801C11.4065 33.4827 11.4532 32.5654 12.1865 31.8374C12.9199 31.1094 13.8265 31.0267 14.8532 31.0801V30.4254C14.8532 21.4094 14.8772 12.3921 14.8332 3.37475C14.8225 1.60675 15.9892 0.26675 17.8332 0.41075C18.2785 0.44675 18.7305 0.41075 19.1799 0.420083C19.8268 0.435048 20.4435 0.697001 20.9034 1.1522C21.3633 1.60741 21.6316 2.22135 21.6532 2.86808C21.6625 3.08408 21.6599 3.30008 21.6599 3.51742V30.9707L23.9599 31.3521C23.9973 31.279 24.0303 31.2038 24.0585 31.1267C24.5875 29.6165 25.5738 28.3086 26.8805 27.3848C28.1871 26.461 29.749 25.9672 31.3492 25.9721C32.0786 25.9721 32.8079 25.9721 33.6026 25.9721V25.3547C33.6026 20.4801 33.6026 15.6054 33.6026 10.7308C33.6026 8.94142 34.7625 7.56008 36.4505 7.28675C36.9318 7.20302 37.4255 7.22494 37.8974 7.35098C38.3694 7.47702 38.8083 7.70417 39.1837 8.01668C39.5591 8.3292 39.8621 8.7196 40.0716 9.16085C40.2812 9.6021 40.3923 10.0836 40.3972 10.5721C40.4225 13.5161 40.4052 16.4614 40.4065 19.4054V25.9707C41.0985 25.9707 41.7759 25.9254 42.4452 25.9814C43.3012 26.0547 44.1785 26.1027 44.9959 26.3494C48.0932 27.2827 50.1719 30.0614 50.3839 33.3081C50.6839 37.8881 51.0305 42.4654 51.3559 47.0414C51.3985 47.6387 51.4559 48.2414 51.4732 48.8334C51.5186 50.3601 50.4065 51.5001 48.8812 51.5214H3.16255C1.69588 51.5214 0.654548 50.7414 0.430548 49.4147C0.37111 48.9884 0.39832 48.5544 0.510548 48.1388C1.25588 45.1401 2.04521 42.1534 2.77721 39.1534C2.92388 38.5508 2.91855 37.9041 2.92921 37.2774C2.95721 35.5187 3.97455 34.4774 5.72921 34.4774C7.44255 34.4774 9.15721 34.4774 10.8705 34.4774L11.4532 34.4801ZM29.3305 49.8241C30.7346 49.8241 32.0639 49.8241 33.3932 49.8241C34.2319 49.8241 34.5772 49.3761 34.3706 48.5614C33.6479 45.7121 32.9172 42.8654 32.1999 40.0161C32.1226 39.7094 31.9932 39.5961 31.6665 39.5961C22.7332 39.6068 13.7999 39.6068 4.86655 39.5961C4.53855 39.5961 4.41321 39.7054 4.33321 40.0241C3.61588 42.8907 2.87588 45.7574 2.14921 48.6174C1.96121 49.3574 2.31588 49.8174 3.08255 49.8174C4.34655 49.8268 5.61588 49.8174 6.87455 49.8174C6.97702 49.809 7.07867 49.7925 7.17855 49.7681V45.8667C7.17855 44.9334 7.17855 44.0001 7.17855 43.0667C7.17855 42.6908 7.32521 42.3387 7.71188 42.2508C7.97055 42.1894 8.36255 42.2041 8.52921 42.3614C8.74416 42.6003 8.86458 42.9094 8.86788 43.2308C8.89588 45.2428 8.88255 47.2561 8.88255 49.2681V49.8014H12.2959V49.1921C12.2959 47.2623 12.2959 45.333 12.2959 43.4041C12.2893 43.2049 12.3036 43.0056 12.3385 42.8094C12.3808 42.6264 12.4839 42.4632 12.6309 42.3463C12.7778 42.2294 12.9601 42.1658 13.1479 42.1658C13.3357 42.1658 13.5179 42.2294 13.6649 42.3463C13.8119 42.4632 13.9149 42.6264 13.9572 42.8094C13.9938 43.005 14.009 43.2039 14.0025 43.4027C14.0025 45.3316 14.0025 47.2614 14.0025 49.1921V49.7987H17.4145V49.2281C17.4145 47.2983 17.4145 45.369 17.4145 43.4401C17.4094 43.2738 17.413 43.1073 17.4252 42.9414C17.4389 42.7404 17.5248 42.5512 17.6671 42.4086C17.8094 42.266 17.9984 42.1797 18.1994 42.1655C18.4003 42.1514 18.5996 42.2104 18.7605 42.3317C18.9213 42.453 19.0329 42.6283 19.0745 42.8254C19.1084 43.0047 19.1222 43.1871 19.1159 43.3694C19.1159 45.3321 19.1159 47.2948 19.1159 49.2574C19.1159 49.4347 19.1305 49.6121 19.1385 49.7907H22.5306C22.5306 48.9747 22.5306 48.1908 22.5306 47.4161C22.5306 45.9494 22.5239 44.4827 22.5306 43.0241C22.5273 42.9114 22.5468 42.7991 22.5877 42.694C22.6285 42.5889 22.6901 42.4931 22.7686 42.4122C22.8472 42.3313 22.9412 42.2669 23.045 42.2229C23.1488 42.1789 23.2604 42.1562 23.3732 42.1561C23.5916 42.1627 23.7996 42.2508 23.9563 42.403C24.113 42.5553 24.207 42.7607 24.2199 42.9787C24.2266 43.112 24.2266 43.2455 24.2199 43.3787C24.2199 45.3414 24.2199 47.3041 24.2199 49.2668V49.7907H27.6199C27.6199 47.5907 27.6199 45.4294 27.6199 43.2681C27.6199 42.5667 27.9452 42.1534 28.4812 42.1587C29.0172 42.1641 29.3186 42.5668 29.3199 43.2854C29.3199 44.3174 29.3199 45.349 29.3199 46.3801L29.3305 49.8241ZM46.4172 49.7987C46.3639 48.9801 46.3185 48.1881 46.2625 47.3987C45.9399 42.8654 45.6039 38.3428 45.2945 33.8134C45.1745 32.0561 44.1719 31.0761 42.4065 31.0761C38.8465 31.0761 35.2852 31.1201 31.7265 31.0561C29.9439 31.0254 28.4865 32.1507 28.7492 34.4814C29.4159 34.4814 30.0959 34.4814 30.7719 34.4814C32.5479 34.4814 33.5879 35.5347 33.6079 37.3041C33.6159 37.9147 33.5932 38.5467 33.7412 39.1334C34.4239 41.9401 35.1745 44.7334 35.8639 47.5334C36.0412 48.2574 36.0879 49.0134 36.1999 49.7934L46.4172 49.7987ZM19.9559 31.0507V3.35208C19.9559 3.23475 19.9559 3.11875 19.9559 3.00275C19.9279 2.45742 19.6252 2.14275 19.0785 2.12142C18.6305 2.10408 18.1799 2.12142 17.7319 2.12142C16.8212 2.12142 16.5545 2.38808 16.5545 3.32142V31.0547L19.9559 31.0507ZM48.1425 49.8241H48.6252C49.5199 49.8241 49.8252 49.4907 49.7599 48.6081C49.7212 48.1267 49.6905 47.6467 49.6559 47.1654C49.3305 42.6054 48.9892 38.0481 48.6892 33.4867C48.4719 30.1454 45.9412 27.6854 42.5946 27.6747C38.8705 27.6614 35.1452 27.6547 31.4212 27.6867C30.7246 27.6912 30.0329 27.8031 29.3706 28.0187C26.7132 28.9067 25.1972 31.3334 25.3039 34.4468H26.9639C26.9865 34.1161 27.0119 33.8041 27.0306 33.4921C27.1639 31.2054 28.9239 29.4121 31.1866 29.3881C35.0599 29.3467 38.9359 29.3534 42.8092 29.3881C43.7502 29.3987 44.66 29.7269 45.3911 30.3193C46.1222 30.9118 46.6318 31.7338 46.8372 32.6521C46.9639 33.1974 46.9799 33.7707 47.0212 34.3334C47.3154 38.3947 47.607 42.4565 47.8959 46.5188C47.9745 47.6068 48.0585 48.6961 48.1425 49.8241ZM38.7052 25.9481V21.3747C38.7052 17.8485 38.7052 14.3214 38.7052 10.7934C38.7052 9.88275 38.2452 9.22142 37.4812 9.00408C36.3465 8.68408 35.3092 9.49208 35.3079 10.7227C35.3025 15.7005 35.3025 20.6747 35.3079 25.6454C35.3079 25.7401 35.3199 25.8347 35.3292 25.9481H38.7052ZM31.8385 37.8587C32.0585 36.5854 31.7345 36.1854 30.5172 36.1854H5.96388C5.74788 36.1854 5.49455 36.1387 5.32655 36.2334C5.07455 36.3774 4.78388 36.5921 4.69321 36.8428C4.58388 37.1441 4.66655 37.5161 4.66655 37.8574L31.8385 37.8587ZM13.1505 34.4507H23.3372C23.3479 34.2934 23.3625 34.1641 23.3639 34.0361C23.3785 33.0227 23.1319 32.7774 22.1039 32.7761H19.9119C18.0185 32.7761 16.1239 32.7761 14.2305 32.7761C13.4452 32.7761 13.1545 33.0787 13.1505 33.8681C13.1492 34.0507 13.1505 34.2307 13.1505 34.4507Z" fill="#4D5153"/>
</svg>
