<svg width="40" height="40" viewBox="0 0 40 40" fill="none" xmlns="http://www.w3.org/2000/svg">
<path d="M0 19.2C0 10.1467 0 5.62667 2.8 2.8C5.64 0 10.16 0 19.2 0H20.8C29.8533 0 34.3733 0 37.2 2.8C40 5.64 40 10.16 40 19.2V20.8C40 29.8533 40 34.3733 37.2 37.2C34.36 40 29.84 40 20.8 40H19.2C10.1467 40 5.62667 40 2.8 37.2C0 34.36 0 29.84 0 20.8V19.2Z" fill="#0077FF"/>
<path d="M21.2799 28.812C12.1599 28.812 6.95992 22.572 6.74658 12.172H11.3332C11.4799 19.7987 14.8399 23.0254 17.5066 23.692V12.172H21.8132V18.7454C24.4399 18.4654 27.2132 15.4654 28.1466 12.1587H32.4399C32.0898 13.8704 31.3906 15.4915 30.3857 16.9207C29.3809 18.35 28.0921 19.5566 26.5999 20.4654C28.2652 21.2942 29.7358 22.4666 30.9148 23.9053C32.0938 25.3441 32.9544 27.0164 33.4399 28.812H28.7066C27.6932 25.652 25.1599 23.1987 21.8132 22.8654V28.812H21.2932H21.2799Z" fill="white"/>
</svg>
