<svg width="30" height="28" viewBox="0 0 30 28" fill="none" xmlns="http://www.w3.org/2000/svg">
<path d="M3.91398 17.2083C3.39735 16.5723 3.10616 15.8374 2.96995 15.0352C2.99579 14.774 3.02005 14.5121 3.04823 14.2509C3.25097 12.4605 5.35429 12.0794 6.23961 12.8981C6.50732 13.146 6.72023 13.4557 6.93941 13.7514C7.02943 13.8729 7.09597 13.9082 7.24783 13.8651C8.71475 13.4346 10.1848 13.0158 11.6525 12.5907C12.541 12.3335 13.4208 12.0096 14.3562 12.3076C14.9519 11.6159 15.7237 11.3399 16.5848 11.263C16.811 11.2426 16.9112 11.1979 16.8407 10.9211C16.4494 9.36673 16.5543 7.85551 17.3535 6.44153C18.3178 4.73425 19.7973 3.72102 21.737 3.53986C23.9812 3.32655 25.7754 4.19705 27.002 6.12784C27.2564 6.52858 27.4411 6.97324 27.6579 7.39751V7.39281L27.7182 7.58259C27.7362 7.67748 27.7456 7.77395 27.7722 7.86649C28.0697 8.84706 28.1525 9.88042 28.0149 10.896C27.9671 11.2309 27.8959 11.5626 27.8348 11.8959C27.8102 11.9369 27.7885 11.9796 27.7699 12.0237C27.3613 13.2425 26.6569 14.3404 25.7198 15.2187C25.5155 15.4085 25.4137 15.6108 25.4302 15.8837C25.4748 16.6523 25.5139 17.4216 25.5554 18.1902C25.5032 18.6654 25.451 19.1406 25.3988 19.6159L25.4615 19.6692C25.4987 19.6018 25.5395 19.5363 25.5836 19.4732C26.4861 18.2905 27.2579 17.035 27.8262 15.6524C28.5321 13.9398 28.9274 12.1148 28.9934 10.2631C29.0184 9.58867 28.9331 8.90168 28.8297 8.23194C28.5174 6.24469 27.7104 4.49977 26.2231 3.11638C25.539 2.47958 24.7617 1.98708 23.8396 1.76122C23.4122 1.6828 22.9879 1.54634 22.5581 1.52595C20.8321 1.44753 19.2173 1.86944 17.7135 2.7125C16.7862 3.21804 15.9628 3.895 15.2869 4.70759C14.8251 5.27459 14.3711 5.84787 13.8975 6.40467C13.6627 6.67837 13.413 6.69092 13.1844 6.4878C12.9558 6.28468 12.9441 6.00393 13.1617 5.73572C13.4991 5.31929 13.8302 4.89659 14.173 4.48565C14.2991 4.33429 14.3093 4.21823 14.1457 4.09824C13.503 3.6277 12.8932 3.10461 12.2122 2.69289C11.0662 1.99649 9.7848 1.65299 8.45408 1.53379C7.70888 1.46792 6.95663 1.4836 6.22787 1.71024C4.16995 2.34155 2.83923 3.76572 1.94139 5.65338C1.29325 7.01638 1.02397 8.46799 0.997357 9.97059C0.991095 10.3455 0.832975 10.5478 0.53552 10.5666C0.212233 10.587 0.000100583 10.376 0.000100583 10.0176C-0.00511668 8.77382 0.192664 7.53751 0.585617 6.35762C1.20792 4.49977 2.23101 2.9313 3.8357 1.7722C5.32298 0.698581 6.99499 0.351165 8.80085 0.555851C11.1398 0.820922 13.1614 1.76488 14.8658 3.38772C14.9083 3.42365 14.9527 3.45716 14.9989 3.4881C15.0772 3.42693 15.1507 3.37047 15.2204 3.30616C17.3237 1.36283 19.8043 0.408414 22.6623 0.522913C24.3311 0.589573 25.7511 1.29068 26.9573 2.42547C28.5714 3.94374 29.4364 5.85414 29.8239 8.00765C29.8888 8.3684 29.9421 8.73071 30 9.09224V11.2058C29.9444 11.5273 29.8826 11.8488 29.8348 12.1719C29.4912 14.4776 28.6646 16.6036 27.4231 18.5666C25.1382 22.1796 21.9108 24.6734 18.0572 26.4042C17.1867 26.7963 16.2865 27.1234 15.3863 27.4418C15.1392 27.5194 14.8742 27.5194 14.6271 27.4418C12.5945 26.7779 10.6511 25.866 8.84078 24.7267C5.67445 22.745 3.19774 20.1374 1.60479 16.7338C1.22984 15.9316 0.951957 15.0869 0.643543 14.2502C0.522995 13.9239 0.65685 13.6408 0.930822 13.5561C1.23845 13.4604 1.48268 13.5969 1.59383 13.9576C2.10082 15.6141 2.85168 17.1855 3.82161 18.6199C4.88693 20.1939 6.20555 21.5799 7.72375 22.7215C7.79025 22.7645 7.85926 22.8035 7.93041 22.8383C7.91475 22.6164 7.90223 22.4336 7.8897 22.2517C7.92649 21.8549 7.94685 21.4549 8.00164 21.0604C8.16759 19.8527 8.76876 18.8434 9.47248 17.8835C9.54293 17.7878 9.60711 17.6882 9.69948 17.5534C9.62965 17.5482 9.55953 17.5482 9.4897 17.5534C8.72884 17.7102 7.97033 17.8812 7.20869 18.0349C6.3719 18.2051 5.53824 18.2341 4.76251 17.8067C4.46193 17.6435 4.19343 17.4106 3.91398 17.2083ZM9.0443 23.359C9.04978 23.6178 9.17737 23.7825 9.40751 23.9017C9.68304 24.0437 9.93275 24.2382 10.2114 24.3723C11.3355 24.9212 12.4666 25.4537 13.5946 25.9925C14.0228 26.1533 14.4502 26.3164 14.8807 26.4701C14.9519 26.4953 15.0294 26.4967 15.1014 26.474C15.5969 26.2984 16.0893 26.1141 16.5824 25.9321C16.6206 25.9284 16.6584 25.9211 16.6952 25.9102C18.6687 25.1177 20.5268 24.0626 22.2192 22.7732C22.8368 22.3082 23.4419 21.8361 23.7002 21.0581C23.7549 20.9119 23.8184 20.7692 23.8904 20.6307C24.4259 19.4849 24.7045 18.2921 24.4908 17.0232C24.3828 16.3825 24.1182 15.8312 23.4427 15.5967C23.3159 15.5515 23.1868 15.513 23.056 15.4814C21.6908 15.2242 20.3244 14.9703 18.9566 14.7199C18.7828 14.6878 18.7218 14.6187 18.7601 14.4462C18.8126 14.2109 18.8548 13.9757 18.9065 13.7082C19.0247 13.72 19.1304 13.7224 19.2321 13.7412C19.7292 13.8314 20.227 13.9184 20.7194 14.0212C21.8216 14.2502 22.9221 14.4878 24.0227 14.7215L24.5167 15.0532C24.6967 14.8446 24.8548 14.6336 25.0395 14.4509C26.6137 12.895 27.3628 11.0591 26.9519 8.82717C26.717 7.55358 26.2129 6.42114 25.218 5.55299C24.735 5.13108 24.1926 4.81268 23.5523 4.69034C23.0042 4.50485 22.4212 4.44666 21.8474 4.52016C18.7272 4.86836 16.8047 8.07352 17.9335 11.0215C18.0063 11.212 18.1182 11.2834 18.3139 11.3187C18.7836 11.4034 19.2494 11.5053 19.7104 11.6269C20.0407 11.7132 20.1801 11.9743 20.0963 12.2731C20.0243 12.5343 19.7495 12.6495 19.4302 12.5868C18.7335 12.455 18.0376 12.2974 17.3331 12.23C16.7006 12.1704 16.0681 12.2637 15.5014 12.6095C15.3513 12.693 15.228 12.8176 15.1459 12.9687C15.0638 13.1198 15.0264 13.2912 15.038 13.4628C15.0482 13.9106 15.2259 14.2988 15.4576 14.665C15.8975 15.3575 16.4822 15.9198 17.1147 16.4303C18.1323 17.2585 19.2595 17.9204 20.422 18.5289C20.5453 18.5854 20.6556 18.6669 20.746 18.7681C20.9026 18.9705 20.8814 19.1955 20.7131 19.3838C20.5206 19.5986 20.2717 19.5955 20.0439 19.4622C19.1358 18.9289 18.2323 18.3883 17.3331 17.8404C17.0983 17.6961 16.8783 17.5196 16.6247 17.3393C16.6067 17.424 16.595 17.4687 16.5871 17.5134C16.582 17.5718 16.5737 17.6299 16.5621 17.6875C16.0924 19.3187 14.9832 20.4425 13.6408 21.3734C13.3503 21.5741 12.9926 21.3851 12.9175 21.044C12.8642 20.8009 12.9958 20.6448 13.1687 20.495C13.6321 20.0927 14.1081 19.699 14.5347 19.2598C14.9934 18.7893 15.3691 18.2458 15.5429 17.5981C15.6995 17.0083 15.759 16.4852 15.2134 15.9668C14.5042 15.294 14.0462 14.4305 14.011 13.4008C14.011 13.331 13.8678 13.2087 13.7926 13.2095C13.4834 13.2142 13.1664 13.2095 12.8682 13.2934C11.038 13.8031 9.21338 14.3341 7.38873 14.8619C6.72806 15.0524 6.52767 14.974 6.15116 14.3866C6.02953 14.1868 5.89704 13.9939 5.75429 13.8086C5.47719 13.4683 5.11085 13.44 4.71554 13.5498C4.54789 13.59 4.39611 13.6796 4.27986 13.8071C4.16361 13.9346 4.08823 14.0941 4.06349 14.2651C3.72533 16.0139 5.09676 17.5479 7.00047 17.0758C8.08618 16.8068 9.19224 16.6287 10.2936 16.4248C10.5355 16.3801 10.7249 16.3088 10.8783 16.1002C11.0764 15.8456 11.2886 15.6023 11.514 15.3716C11.7707 15.0932 12.0517 15.0579 12.2811 15.2587C12.5104 15.4594 12.4846 15.77 12.2396 16.0602C11.6799 16.7252 11.1014 17.3769 10.584 18.0741C10.1378 18.6756 9.69478 19.2991 9.37541 19.9719C8.86504 21.0471 8.79616 22.1968 9.04117 23.359H9.0443Z" fill="white"/>
<path d="M0.657765 12.5641C0.592343 12.5652 0.527402 12.5528 0.466934 12.5277C0.406467 12.5027 0.35175 12.4655 0.306148 12.4185C0.260546 12.3715 0.225022 12.3157 0.20176 12.2544C0.178498 12.1931 0.167988 12.1277 0.170878 12.0622C0.173943 11.9301 0.228461 11.8043 0.322795 11.7119C0.417128 11.6194 0.543801 11.5676 0.675769 11.5674C0.807597 11.5742 0.931871 11.6311 1.02323 11.7266C1.11458 11.822 1.16613 11.9488 1.16735 12.0811C1.16679 12.1467 1.15302 12.2115 1.12686 12.2717C1.10071 12.3318 1.0627 12.3861 1.01513 12.4312C0.967549 12.4763 0.911377 12.5113 0.849973 12.5342C0.788568 12.557 0.723195 12.5672 0.657765 12.5641Z" fill="white"/>
<path d="M24.1988 12.0817C23.964 12.0033 23.7143 11.9476 23.4943 11.841C23.2548 11.7257 23.1812 11.4143 23.2924 11.1822C23.3495 11.0726 23.445 10.988 23.5606 10.9445C23.6761 10.9011 23.8036 10.902 23.9186 10.9469C23.9714 10.9717 24.0255 10.9937 24.0806 11.0128C24.3374 11.0724 24.5456 11.0026 24.6716 10.7595C24.7977 10.5164 24.7296 10.3258 24.5425 10.1556C24.5073 10.1235 24.4642 10.1015 24.4243 10.0709C24.1894 9.87409 24.1409 9.6004 24.3045 9.3714C24.4681 9.1424 24.7272 9.09535 25.0004 9.25376C25.2833 9.42143 25.5029 9.67829 25.6247 9.9842C25.7465 10.2901 25.7637 10.6278 25.6736 10.9446C25.4896 11.601 24.9073 12.037 24.1988 12.0817Z" fill="white"/>
</svg>
