<svg width="30" height="26" viewBox="0 0 30 26" fill="none" xmlns="http://www.w3.org/2000/svg">
<path d="M2.11379 13.5158C1.9087 13.5158 1.70362 13.5018 1.49932 13.5088C1.20812 13.519 1.02965 13.6911 1.00539 13.9831C0.996777 14.0699 1.00539 14.1584 1.00539 14.246V20.2472C1.00931 20.3447 1.00775 20.4425 1.00069 20.5399C0.987879 20.6623 0.931532 20.7761 0.841894 20.8606C0.752257 20.945 0.635282 20.9945 0.512242 21C0.389114 20.9964 0.271252 20.9493 0.17955 20.8671C0.0878478 20.7848 0.0282308 20.6728 0.0112685 20.5508C0.00735838 20.4924 0.00735838 20.4339 0.0112685 20.3755C0.0112685 18.2577 0.0112685 16.1402 0.0112685 14.023C0.0112685 13.3069 0.447272 12.7324 1.12202 12.5524C1.25455 12.521 1.39051 12.5062 1.52671 12.5086C2.34706 12.5047 3.17053 12.5086 3.98618 12.5047C4.29044 12.4976 4.58948 12.5845 4.84253 12.7536C4.8893 12.7802 4.93766 12.804 4.98734 12.8248V9.99953H4.59283C3.93921 9.99953 3.28482 9.99405 2.6312 9.99953C2.38776 9.99953 2.18737 9.94396 2.06056 9.72327C1.93375 9.50257 2.02534 9.31161 2.14354 9.123C2.87412 7.95741 3.60288 6.79209 4.32981 5.62703C5.20887 4.21832 6.0934 2.81977 6.96071 1.40793C7.14544 1.1074 7.3701 0.981399 7.72234 0.982181C10.4065 0.991573 13.0906 0.98766 15.7747 0.98766C16.2679 0.98766 16.354 1.04792 16.5191 1.50497C16.3743 1.92133 16.2843 1.98472 15.8373 1.98472C13.4551 1.98472 11.0731 1.98472 8.69141 1.98472C8.61314 1.98472 8.52938 1.99567 8.42527 2.0035C8.46206 2.08176 8.47772 2.12559 8.50355 2.1655C9.87966 4.36571 11.2539 6.56539 12.6264 8.76456C12.6682 8.84424 12.7326 8.90975 12.8116 8.9528C12.8906 8.99584 12.9806 9.01449 13.0702 9.00639C17.1605 9.00012 21.2507 8.99856 25.3409 9.00169C25.4286 9.00169 25.5163 8.99699 25.604 8.99386H26.5675C26.5002 8.86395 26.4595 8.76769 26.4039 8.68082C25.7433 7.6248 25.0811 6.56983 24.4173 5.5159C24.1887 5.15355 24.1887 5.02128 24.4345 4.67145C24.8775 4.53684 25.0208 4.59319 25.2595 4.97198C25.807 5.84695 26.3549 6.72166 26.9034 7.5961C27.2392 8.13298 27.582 8.66595 27.903 9.21143C28.1378 9.60274 27.9084 9.98466 27.4513 9.99953C27.3049 10.0042 27.1585 9.99953 27.0122 9.99953H26.0259V16.3341C26.5464 16.1619 27.0435 15.9905 27.5421 15.8347C28.6176 15.5006 29.6556 16.0828 29.9452 17.173C29.9589 17.2063 29.9774 17.2374 30 17.2654V18.0269C29.9914 18.0308 29.9765 18.0339 29.975 18.0402C29.7746 18.725 29.2705 19.1194 28.6842 19.4731C25.73 21.2549 22.7815 23.0479 19.8389 24.8521C19.0827 25.3138 18.2655 25.5071 17.3888 25.5064C13.4071 25.5064 9.42513 25.5064 5.44291 25.5064C5.23157 25.5064 5.05701 25.5338 4.88636 25.6895C4.64783 25.8957 4.34054 26.0049 4.02532 25.9955C3.16427 25.9955 2.30714 26.0057 1.44922 25.9955C0.682886 25.9791 0.0214445 25.3193 0.000309716 24.575C-0.00830076 24.2424 0.163126 24.0272 0.451968 24.0014C0.752552 23.9779 0.948245 24.1509 0.999908 24.4819C1.05079 24.8333 1.23474 24.9961 1.58307 24.9969C1.75841 24.9969 1.93375 24.9906 2.10909 24.9867H3.39753C3.59244 24.9914 3.78892 25.0024 3.98226 24.9969C4.10069 25.0018 4.21686 24.9635 4.30906 24.889C4.40126 24.8145 4.46317 24.7091 4.48324 24.5923C4.50364 24.4874 4.51231 24.3805 4.50907 24.2737C4.50907 20.9163 4.50907 17.5589 4.50907 14.2014C4.50907 14.1333 4.50907 14.0652 4.50907 13.9964C4.50437 13.771 4.24371 13.4736 3.9854 13.5072C3.79092 13.5232 3.59565 13.5274 3.40067 13.5198L2.11379 13.5158ZM4.32512 8.99152C4.54899 8.99152 4.77365 8.99152 4.99674 9.00404C5.16503 9.01343 5.25975 8.94378 5.34742 8.80212C6.09835 7.58958 6.85321 6.37991 7.61197 5.17311C7.82802 4.82798 8.04876 4.48597 8.26011 4.13692C8.31333 4.04927 8.39553 3.90214 8.36108 3.85048C8.23114 3.64465 8.1834 3.37152 7.92978 3.25569C7.89612 2.94264 7.66129 2.73916 7.49925 2.4402C6.12706 4.65032 4.76895 6.80018 3.40849 8.99152H4.32512ZM6.14663 9.46109C5.99555 9.56126 5.99007 9.71466 5.99007 9.87509C5.99007 10.79 5.99007 11.7049 5.99007 12.6197C5.99007 12.8874 6.02217 13.1551 6.04173 13.4611L7.02411 13.5041C7.08764 13.5282 7.15277 13.5478 7.21902 13.5628C8.0691 13.6951 8.86977 14.0475 9.5415 14.5849C10.3548 15.222 11.2855 15.4998 12.3086 15.5006C12.9348 15.5006 13.5571 15.5006 14.1818 15.5006C14.2749 15.5006 14.3681 15.492 14.4565 15.4873V10.0011C13.8624 10.0011 13.2878 9.98075 12.7156 10.0081C12.3282 10.0269 12.0855 9.87509 11.9282 9.53857C11.8905 9.47042 11.8492 9.40432 11.8045 9.34056C11.1506 8.2929 10.4983 7.24497 9.84757 6.19678C9.57047 5.75382 9.28945 5.3132 9.00452 4.86632C8.96069 4.92424 8.92624 4.96102 8.90354 5.00172C8.20166 6.12295 7.50056 7.24471 6.80024 8.36699C6.57558 8.72699 6.36424 9.09873 6.14663 9.46578V9.46109ZM24.0275 16.9742C24.2686 16.9007 24.5065 16.8177 24.7515 16.7582C24.9597 16.7089 25.02 16.6017 25.0192 16.3912C25.0106 14.3564 25.0138 12.3169 25.013 10.2789C25.013 10.1944 25.0028 10.1099 24.9965 10.0066H24.022C23.9734 10.0027 23.9249 9.9964 23.8764 9.9964C21.1628 9.9964 18.4492 9.9964 15.7356 9.9964C15.6674 10.0001 15.5994 10.0077 15.532 10.0191V15.5757C17.0702 16.1963 17.8874 17.2395 17.5806 19.0137C17.8804 18.9637 18.1449 18.9511 18.3884 18.8729C19.6205 18.4745 20.8478 18.0613 22.0752 17.6489C22.7257 17.4336 23.3754 17.2035 24.0314 16.9782L24.0275 16.9742ZM15.5281 18.9731C15.7872 18.9856 16.0471 19.0036 16.3062 19.0075C16.3342 19.0062 16.3616 18.9984 16.3862 18.9849C16.4107 18.9713 16.4318 18.9523 16.4479 18.9292C16.5336 18.7776 16.5971 18.6144 16.6365 18.4448C16.797 17.3663 15.6682 16.4718 14.8221 16.518C13.9148 16.5125 13.0068 16.5101 12.0996 16.5023C10.988 16.5085 9.9066 16.1404 9.02957 15.4575C8.38926 14.9598 7.68868 14.6193 6.88478 14.5379C6.43547 14.4926 5.97833 14.5301 5.52667 14.5301V24.4819H5.8343C9.72937 24.4819 13.6242 24.4819 17.5187 24.4819C17.7136 24.4819 17.9101 24.4616 18.1019 24.4506C18.1308 24.4533 18.1599 24.4533 18.1888 24.4506C18.8103 24.341 19.323 23.9967 19.8467 23.6782C22.5942 22.0086 25.3407 20.3356 28.0861 18.6592C28.2984 18.5402 28.501 18.4046 28.692 18.2538C29.0599 17.9408 29.1006 17.5111 28.8313 17.0987C28.6145 16.7661 28.1824 16.6557 27.7707 16.8263C27.6392 16.8639 27.5069 16.896 27.3793 16.939C24.4877 17.9024 21.6048 18.8729 18.7085 19.8238C18.3473 19.9376 17.971 19.9967 17.5923 19.9991C16.1966 20.0194 14.8009 20.0139 13.4053 20.0053C12.6608 19.9965 11.9288 20.1961 11.2918 20.5813C11.1164 20.6862 10.9521 20.8106 10.7751 20.9132C10.5121 21.065 10.2413 21.0008 10.0863 20.7621C10.0152 20.6549 9.9893 20.5239 10.0144 20.3976C10.0395 20.2714 10.1134 20.1602 10.2202 20.0883C11.0812 19.4575 12.0205 19.038 13.1015 19.0153C13.9094 18.9981 14.7164 18.9864 15.5281 18.9731Z" fill="white"/>
</svg>
