<svg width="77" height="34" viewBox="0 0 77 34" fill="none" xmlns="http://www.w3.org/2000/svg">
<path d="M0.813965 29.2586V28.1712C0.995098 28.1712 1.13918 28.1248 1.24621 28.0322C1.35325 27.9395 1.43455 27.8169 1.49013 27.6645C1.5457 27.5101 1.58687 27.3401 1.61363 27.1548C1.64244 26.9694 1.66611 26.783 1.68464 26.5956C1.71551 26.3155 1.74021 26.0457 1.75874 25.7862C1.77726 25.5267 1.7927 25.2589 1.80505 24.983C1.81946 24.7049 1.8349 24.4001 1.85136 24.0685H4.54058V28.1712H4.8555V29.2586H4.49735V28.5172H1.16903V29.2586H0.813965ZM1.58275 28.1712H4.18551V24.4145H2.19099C2.17864 24.6761 2.16526 24.9335 2.15085 25.1869C2.1385 25.4381 2.12306 25.6915 2.10454 25.9468C2.08601 26.2002 2.06337 26.4617 2.03661 26.7315C2.01191 26.9725 1.9831 27.1867 1.95016 27.3741C1.91929 27.5595 1.87504 27.7191 1.8174 27.853C1.75977 27.9848 1.68155 28.0909 1.58275 28.1712Z" fill="#419456"/>
<path d="M5.22846 28.5172V28.1959C5.35402 28.2185 5.4487 28.2124 5.51251 28.1774C5.57632 28.1403 5.62263 28.0806 5.65145 27.9982C5.68233 27.9137 5.70703 27.8118 5.72555 27.6923C5.76054 27.4864 5.79142 27.2619 5.81818 27.0188C5.84493 26.7738 5.86963 26.5009 5.89228 26.2002C5.91492 25.8974 5.93756 25.5576 5.9602 25.1807H8.16776V28.5172H7.80961V25.5267H6.306C6.28953 25.7738 6.27101 26.0138 6.25043 26.2465C6.2319 26.4792 6.21132 26.7006 6.18868 26.9107C6.16809 27.1187 6.14545 27.3092 6.12075 27.4822C6.09811 27.6532 6.07341 27.8015 6.04665 27.9271C6.01578 28.0919 5.97358 28.2247 5.92006 28.3256C5.8686 28.4245 5.78936 28.4904 5.68233 28.5234C5.57529 28.5563 5.42401 28.5543 5.22846 28.5172Z" fill="#419456"/>
<path d="M11.159 28.5172V27.2135H10.3161C10.2235 27.2135 10.1319 27.2094 10.0413 27.2011C9.95279 27.1908 9.86943 27.1785 9.79121 27.164C9.56479 27.1208 9.37028 27.0219 9.20767 26.8675C9.04712 26.7109 8.96685 26.4916 8.96685 26.2094C8.96685 25.9376 9.04095 25.7193 9.18915 25.5545C9.33941 25.3897 9.51539 25.2816 9.71711 25.2301C9.81385 25.2054 9.91059 25.191 10.0073 25.1869C10.1061 25.1827 10.1926 25.1807 10.2667 25.1807H11.514L11.5202 28.5172H11.159ZM8.84952 28.5172L9.82517 27.0745H10.2358L9.25398 28.5172H8.84952ZM10.313 26.8891H11.159V25.5051H10.313C10.2574 25.5051 10.1802 25.5071 10.0814 25.5112C9.98263 25.5154 9.89104 25.5308 9.80665 25.5576C9.7346 25.5782 9.66256 25.6152 9.59052 25.6688C9.51848 25.7203 9.45879 25.7903 9.41145 25.8789C9.36411 25.9674 9.34043 26.0756 9.34043 26.2033C9.34043 26.3824 9.3888 26.5256 9.48555 26.6327C9.58229 26.7377 9.70476 26.8088 9.85296 26.8458C9.93735 26.8664 10.0197 26.8788 10.1 26.8829C10.1823 26.887 10.2533 26.8891 10.313 26.8891Z" fill="#419456"/>
<path d="M13.6238 28.5172V25.1807H13.982V26.7871L15.5597 25.1807H16.0568L14.4049 26.8489L16.2914 28.5172H15.7387L13.982 26.9107V28.5172H13.6238Z" fill="#419456"/>
<path d="M17.5661 28.6099C17.3088 28.6099 17.0947 28.5646 16.9239 28.4739C16.7551 28.3833 16.6285 28.2639 16.5441 28.1156C16.4597 27.9652 16.4175 27.8025 16.4175 27.6274C16.4175 27.438 16.4566 27.2794 16.5348 27.1517C16.6151 27.024 16.7211 26.921 16.8529 26.8428C16.9866 26.7645 17.1338 26.7058 17.2944 26.6667C17.4776 26.6255 17.6752 26.5905 17.8872 26.5616C18.0992 26.5307 18.3009 26.504 18.4923 26.4813C18.6858 26.4586 18.8433 26.4391 18.9647 26.4226L18.835 26.4998C18.8433 26.1394 18.7753 25.8717 18.6313 25.6966C18.4892 25.5195 18.2381 25.4309 17.8779 25.4309C17.6247 25.4309 17.4158 25.4886 17.2511 25.6039C17.0885 25.7172 16.9743 25.8933 16.9084 26.1322L16.5441 26.0303C16.6203 25.7275 16.7736 25.4948 17.0041 25.3321C17.2347 25.1694 17.53 25.088 17.8903 25.088C18.1969 25.088 18.4542 25.1477 18.6621 25.2672C18.8721 25.3866 19.0182 25.5545 19.1006 25.7707C19.1355 25.8593 19.1592 25.9633 19.1716 26.0828C19.1839 26.2002 19.1901 26.3186 19.1901 26.438V28.5172H18.8659V27.6398L18.9863 27.6707C18.8855 27.9714 18.7095 28.2031 18.4584 28.3658C18.2072 28.5285 17.9098 28.6099 17.5661 28.6099ZM17.5846 28.2824C17.811 28.2824 18.0096 28.2422 18.1805 28.1619C18.3513 28.0795 18.4892 27.9652 18.5942 27.819C18.7012 27.6707 18.7692 27.4967 18.798 27.2969C18.8186 27.1857 18.8299 27.0652 18.8319 26.9354C18.834 26.8057 18.835 26.7099 18.835 26.6481L18.9894 26.747C18.8556 26.7635 18.6951 26.781 18.5078 26.7995C18.3225 26.818 18.1331 26.8407 17.9397 26.8675C17.7462 26.8942 17.5712 26.9282 17.4148 26.9694C17.318 26.9962 17.2203 27.0353 17.1215 27.0868C17.0247 27.1362 16.9434 27.2052 16.8776 27.2938C16.8137 27.3824 16.7818 27.4946 16.7818 27.6305C16.7818 27.7315 16.8065 27.8324 16.8559 27.9333C16.9074 28.0342 16.9918 28.1176 17.1091 28.1835C17.2264 28.2494 17.3849 28.2824 17.5846 28.2824Z" fill="#419456"/>
<path d="M22.0635 28.5172V27.2351C21.9544 27.2907 21.8155 27.3412 21.6467 27.3865C21.48 27.4297 21.2988 27.4514 21.1033 27.4514C20.7678 27.4514 20.494 27.3772 20.282 27.2289C20.07 27.0786 19.9311 26.8633 19.8652 26.5832C19.8467 26.4967 19.8333 26.4061 19.8251 26.3114C19.8168 26.2166 19.8117 26.1312 19.8096 26.055C19.8076 25.9767 19.8065 25.9221 19.8065 25.8912V25.1807H20.1647V25.8912C20.1647 25.9674 20.1667 26.0488 20.1709 26.1353C20.175 26.2218 20.1842 26.3042 20.1986 26.3824C20.2398 26.6275 20.3396 26.8149 20.4981 26.9447C20.6587 27.0724 20.882 27.1362 21.1681 27.1362C21.339 27.1362 21.5036 27.1146 21.6621 27.0714C21.8206 27.0281 21.9544 26.9684 22.0635 26.8922V25.1807H22.4216V28.5172H22.0635Z" fill="#419456"/>
<path d="M24.6582 28.6099C24.3392 28.6099 24.0634 28.5388 23.8308 28.3967C23.5982 28.2525 23.4181 28.0497 23.2905 27.7881C23.1629 27.5245 23.0991 27.2135 23.0991 26.8551C23.0991 26.4906 23.1618 26.1765 23.2874 25.9129C23.415 25.6472 23.5941 25.4433 23.8246 25.3012C24.0572 25.1591 24.333 25.088 24.6521 25.088C24.9752 25.088 25.251 25.1621 25.4795 25.3104C25.7101 25.4567 25.885 25.6688 26.0044 25.9468C26.1258 26.2249 26.1835 26.5596 26.1773 26.9509H25.8068V26.8273C25.7965 26.3701 25.6936 26.022 25.498 25.7831C25.3025 25.5442 25.0226 25.4247 24.6582 25.4247C24.2816 25.4247 23.9903 25.5493 23.7845 25.7985C23.5807 26.0457 23.4788 26.3958 23.4788 26.8489C23.4788 27.2979 23.5807 27.646 23.7845 27.8931C23.9903 28.1403 24.2795 28.2639 24.6521 28.2639C24.9094 28.2639 25.1337 28.2041 25.3251 28.0847C25.5186 27.9632 25.672 27.7902 25.7852 27.5657L26.1063 27.7078C25.9725 27.9961 25.779 28.2185 25.5258 28.3751C25.2727 28.5316 24.9835 28.6099 24.6582 28.6099ZM23.343 26.9509V26.6296H25.9766V26.9509H23.343Z" fill="#419456"/>
<path d="M28.2218 28.6099C27.8884 28.6099 27.6074 28.5357 27.379 28.3874C27.1505 28.2371 26.9766 28.0301 26.8572 27.7665C26.7398 27.5008 26.6791 27.1949 26.675 26.8489C26.6791 26.4967 26.7409 26.1888 26.8603 25.9252C26.9817 25.6595 27.1567 25.4536 27.3851 25.3073C27.6136 25.1611 27.8935 25.088 28.2249 25.088C28.5481 25.088 28.8321 25.1663 29.0771 25.3228C29.3241 25.4773 29.4949 25.6904 29.5896 25.9623L29.2438 26.0889C29.1594 25.8809 29.0267 25.7203 28.8455 25.607C28.6644 25.4917 28.4565 25.434 28.2218 25.434C27.9584 25.434 27.7412 25.4948 27.5704 25.6163C27.3995 25.7357 27.2719 25.9015 27.1875 26.1137C27.1031 26.3258 27.0589 26.5709 27.0548 26.8489C27.0609 27.2753 27.1608 27.6182 27.3543 27.8777C27.5498 28.1351 27.839 28.2639 28.2218 28.2639C28.4586 28.2639 28.6634 28.2093 28.8363 28.1001C29.0112 27.991 29.145 27.8324 29.2376 27.6244L29.5896 27.7448C29.4599 28.027 29.2788 28.2422 29.0462 28.3905C28.8136 28.5367 28.5388 28.6099 28.2218 28.6099Z" fill="#419456"/>
<path d="M31.064 28.5172V25.5205H29.8568V25.1807H32.6263V25.5205H31.4191V28.5172H31.064Z" fill="#419456"/>
<path d="M33.2101 28.5172V25.1807H34.5347C34.5923 25.1807 34.6716 25.1848 34.7724 25.193C34.8753 25.1992 34.9731 25.2147 35.0657 25.2394C35.2613 25.2888 35.4136 25.3918 35.5227 25.5483C35.6338 25.7048 35.6894 25.8871 35.6894 26.0951C35.6894 26.2063 35.6729 26.3093 35.64 26.4041C35.6091 26.4967 35.5618 26.5791 35.498 26.6512C35.4692 26.6862 35.4362 26.7181 35.3992 26.747C35.3621 26.7738 35.3261 26.7954 35.2911 26.8119C35.3529 26.8242 35.4228 26.8561 35.5011 26.9076C35.6204 26.9818 35.709 27.0796 35.7666 27.2011C35.8242 27.3226 35.853 27.4627 35.853 27.6213C35.853 27.8499 35.7975 28.0352 35.6863 28.1774C35.5772 28.3195 35.4352 28.4152 35.2602 28.4647C35.1758 28.4894 35.0863 28.5048 34.9916 28.511C34.8969 28.5151 34.8105 28.5172 34.7323 28.5172H33.2101ZM33.5683 28.1959H34.723C34.7662 28.1959 34.8228 28.1928 34.8928 28.1866C34.9628 28.1784 35.0246 28.1681 35.0781 28.1557C35.218 28.1228 35.3189 28.0558 35.3806 27.9549C35.4445 27.8519 35.4764 27.7387 35.4764 27.6151C35.4764 27.4524 35.428 27.3195 35.3313 27.2166C35.2345 27.1115 35.1028 27.0487 34.9361 27.0281C34.8887 27.0199 34.8383 27.0158 34.7848 27.0158C34.7333 27.0137 34.6849 27.0127 34.6397 27.0127H33.5683V28.1959ZM33.5683 26.6883H34.6057C34.6551 26.6883 34.7137 26.6852 34.7817 26.679C34.8496 26.6708 34.9103 26.6574 34.9638 26.6389C35.0832 26.5977 35.1717 26.5276 35.2294 26.4288C35.287 26.3279 35.3158 26.2197 35.3158 26.1044C35.3158 25.9746 35.2849 25.8624 35.2232 25.7677C35.1614 25.6709 35.0719 25.6019 34.9546 25.5607C34.8722 25.5339 34.7858 25.5184 34.6952 25.5143C34.6067 25.5082 34.5511 25.5051 34.5285 25.5051H33.5683V26.6883Z" fill="#419456"/>
<path d="M37.8465 28.6099C37.5274 28.6099 37.2516 28.5388 37.019 28.3967C36.7864 28.2525 36.6063 28.0497 36.4787 27.7881C36.3511 27.5245 36.2873 27.2135 36.2873 26.8551C36.2873 26.4906 36.35 26.1765 36.4756 25.9129C36.6032 25.6472 36.7823 25.4433 37.0128 25.3012C37.2454 25.1591 37.5212 25.088 37.8403 25.088C38.1634 25.088 38.4393 25.1621 38.6677 25.3104C38.8983 25.4567 39.0732 25.6688 39.1926 25.9468C39.314 26.2249 39.3717 26.5596 39.3655 26.9509H38.995V26.8273C38.9847 26.3701 38.8818 26.022 38.6863 25.7831C38.4907 25.5442 38.2108 25.4247 37.8465 25.4247C37.4698 25.4247 37.1785 25.5493 36.9727 25.7985C36.7689 26.0457 36.667 26.3958 36.667 26.8489C36.667 27.2979 36.7689 27.646 36.9727 27.8931C37.1785 28.1403 37.4677 28.2639 37.8403 28.2639C38.0976 28.2639 38.3219 28.2041 38.5134 28.0847C38.7068 27.9632 38.8602 27.7902 38.9734 27.5657L39.2945 27.7078C39.1607 27.9961 38.9672 28.2185 38.714 28.3751C38.4609 28.5316 38.1717 28.6099 37.8465 28.6099ZM36.5312 26.9509V26.6296H39.1648V26.9509H36.5312Z" fill="#419456"/>
<path d="M40.0485 28.5172V25.1807H40.4035V26.6759H42.4135V25.1807H42.7686V28.5172H42.4135V27.0219H40.4035V28.5172H40.0485Z" fill="#419456"/>
<path d="M43.6305 28.5172V25.1807H43.9855V26.6759H45.9955V25.1807H46.3505V28.5172H45.9955V27.0219H43.9855V28.5172H43.6305Z" fill="#419456"/>
<path d="M48.5802 28.6099C48.2488 28.6099 47.9678 28.5347 47.7373 28.3843C47.5068 28.234 47.3308 28.026 47.2093 27.7603C47.0879 27.4946 47.0272 27.1888 47.0272 26.8428C47.0272 26.4947 47.0889 26.1888 47.2124 25.9252C47.3359 25.6595 47.513 25.4536 47.7435 25.3073C47.9761 25.1611 48.255 25.088 48.5802 25.088C48.9116 25.088 49.1926 25.1632 49.4231 25.3135C49.6557 25.4618 49.8317 25.6678 49.951 25.9314C50.0725 26.195 50.1332 26.4988 50.1332 26.8428C50.1332 27.1949 50.0725 27.5039 49.951 27.7696C49.8296 28.0332 49.6526 28.2391 49.42 28.3874C49.1874 28.5357 48.9075 28.6099 48.5802 28.6099ZM48.5802 28.2639C48.9733 28.2639 49.2666 28.132 49.4601 27.8684C49.6557 27.6048 49.7534 27.2629 49.7534 26.8428C49.7534 26.4144 49.6557 26.0725 49.4601 25.8171C49.2646 25.5617 48.9713 25.434 48.5802 25.434C48.3147 25.434 48.0955 25.4948 47.9226 25.6163C47.7497 25.7357 47.62 25.9015 47.5335 26.1137C47.4491 26.3237 47.4069 26.5668 47.4069 26.8428C47.4069 27.2711 47.5057 27.6151 47.7033 27.8746C47.903 28.1341 48.1953 28.2639 48.5802 28.2639Z" fill="#419456"/>
<path d="M52.1432 24.7791C52.0053 24.7791 51.8787 24.7451 51.7635 24.6771C51.6502 24.6091 51.5597 24.5185 51.4918 24.4053C51.4259 24.292 51.393 24.1663 51.393 24.0283H51.7017C51.7017 24.1478 51.7449 24.2518 51.8314 24.3404C51.9199 24.4269 52.0238 24.4701 52.1432 24.4701C52.2667 24.4701 52.3707 24.4269 52.4551 24.3404C52.5415 24.2518 52.5847 24.1478 52.5847 24.0283H52.8935C52.8935 24.1663 52.8595 24.292 52.7916 24.4053C52.7257 24.5185 52.6352 24.6091 52.5199 24.6771C52.4067 24.7451 52.2811 24.7791 52.1432 24.7791ZM53.3813 25.1807V28.5172H53.0324V25.7769L51.1243 28.5172H50.8125V25.1807H51.1614V27.9086L53.0695 25.1807H53.3813Z" fill="#419456"/>
<path d="M55.9678 30.0001L56.6161 28.2546L56.6223 28.7736L55.1619 25.1807H55.5417L56.7952 28.3009H56.5976L57.7369 25.1807H58.1105L56.3383 30.0001H55.9678Z" fill="#419456"/>
<path d="M59.9914 28.6099C59.6806 28.6099 59.414 28.544 59.1917 28.4121C58.9694 28.2803 58.7976 28.0795 58.6761 27.8097C58.5547 27.5379 58.4919 27.1929 58.4878 26.7748C58.4837 26.5997 58.4898 26.4102 58.5063 26.2063C58.5228 26.0024 58.5454 25.8099 58.5742 25.6286C58.6051 25.4474 58.638 25.3032 58.673 25.1961C58.7224 25.0396 58.7965 24.8944 58.8953 24.7605C58.9962 24.6246 59.1146 24.5134 59.2504 24.4269C59.3739 24.3445 59.517 24.2796 59.6796 24.2322C59.8422 24.1849 60.012 24.1478 60.189 24.121C60.366 24.0922 60.5389 24.0685 60.7077 24.05C60.8765 24.0294 61.0298 24.0047 61.1677 23.9758L61.211 24.3064C61.0998 24.327 60.966 24.3476 60.8096 24.3682C60.6532 24.3867 60.4895 24.4104 60.3187 24.4392C60.1478 24.466 59.9842 24.5021 59.8278 24.5474C59.6713 24.5927 59.5375 24.6503 59.4264 24.7204C59.2535 24.8254 59.1207 24.986 59.0281 25.2023C58.9355 25.4186 58.8778 25.6709 58.8552 25.9592C58.9828 25.7553 59.1557 25.5988 59.3739 25.4896C59.5921 25.3805 59.8329 25.3259 60.0964 25.3259C60.3969 25.3259 60.6562 25.3949 60.8744 25.5329C61.0947 25.6709 61.2635 25.8634 61.3808 26.1106C61.5002 26.3557 61.5599 26.6419 61.5599 26.9694C61.5599 27.301 61.4971 27.5904 61.3715 27.8375C61.246 28.0826 61.0659 28.2731 60.8312 28.4091C60.5966 28.545 60.3166 28.6119 59.9914 28.6099ZM60.0223 28.2639C60.401 28.2639 60.6881 28.1465 60.8837 27.9117C61.0813 27.6748 61.1801 27.3607 61.1801 26.9694C61.1801 26.5678 61.0782 26.2517 60.8744 26.021C60.6707 25.7903 60.3845 25.675 60.0161 25.675C59.6477 25.675 59.3636 25.7903 59.164 26.021C58.9664 26.2517 58.8675 26.5678 58.8675 26.9694C58.8675 27.369 58.9664 27.6851 59.164 27.9178C59.3616 28.1485 59.6477 28.2639 60.0223 28.2639Z" fill="#419456"/>
<path d="M63.6076 28.6099C63.2762 28.6099 62.9953 28.5347 62.7648 28.3843C62.5342 28.234 62.3582 28.026 62.2368 27.7603C62.1153 27.4946 62.0546 27.1888 62.0546 26.8428C62.0546 26.4947 62.1164 26.1888 62.2399 25.9252C62.3634 25.6595 62.5404 25.4536 62.7709 25.3073C63.0035 25.1611 63.2824 25.088 63.6076 25.088C63.939 25.088 64.22 25.1632 64.4505 25.3135C64.6831 25.4618 64.8591 25.6678 64.9785 25.9314C65.0999 26.195 65.1607 26.4988 65.1607 26.8428C65.1607 27.1949 65.0999 27.5039 64.9785 27.7696C64.857 28.0332 64.68 28.2391 64.4474 28.3874C64.2148 28.5357 63.9349 28.6099 63.6076 28.6099ZM63.6076 28.2639C64.0008 28.2639 64.2941 28.132 64.4876 27.8684C64.6831 27.6048 64.7809 27.2629 64.7809 26.8428C64.7809 26.4144 64.6831 26.0725 64.4876 25.8171C64.292 25.5617 63.9987 25.434 63.6076 25.434C63.3421 25.434 63.1229 25.4948 62.95 25.6163C62.7771 25.7357 62.6474 25.9015 62.561 26.1137C62.4766 26.3237 62.4344 26.5668 62.4344 26.8428C62.4344 27.2711 62.5332 27.6151 62.7308 27.8746C62.9304 28.1341 63.2227 28.2639 63.6076 28.2639Z" fill="#419456"/>
<path d="M67.3003 28.6099C66.9998 28.6099 66.7456 28.5316 66.5377 28.3751C66.3298 28.2185 66.1713 28.0074 66.0622 27.7418C65.9532 27.4761 65.8986 27.1764 65.8986 26.8428C65.8986 26.507 65.9532 26.2074 66.0622 25.9437C66.1713 25.6781 66.3329 25.469 66.547 25.3166C66.7611 25.1642 67.0235 25.088 67.3343 25.088C67.6369 25.088 67.8952 25.1652 68.1093 25.3197C68.3233 25.4742 68.4859 25.6842 68.5971 25.9499C68.7103 26.2156 68.7669 26.5132 68.7669 26.8428C68.7669 27.1764 68.7093 27.4771 68.594 27.7448C68.4808 28.0105 68.3151 28.2216 68.0969 28.3782C67.8808 28.5326 67.6153 28.6099 67.3003 28.6099ZM65.84 30.0001V25.1807H66.1641V27.751H66.195V30.0001H65.84ZM67.2787 28.27C67.5237 28.27 67.7274 28.2072 67.89 28.0816C68.0547 27.9559 68.1782 27.786 68.2605 27.5718C68.3449 27.3556 68.3871 27.1126 68.3871 26.8428C68.3871 26.575 68.346 26.3351 68.2636 26.1229C68.1834 25.9087 68.0609 25.7399 67.8962 25.6163C67.7336 25.4906 67.5257 25.4278 67.2725 25.4278C67.0276 25.4278 66.8228 25.4886 66.6581 25.6101C66.4935 25.7296 66.37 25.8964 66.2876 26.1106C66.2053 26.3248 66.1641 26.5688 66.1641 26.8428C66.1641 27.1146 66.2043 27.3587 66.2845 27.5749C66.3669 27.7891 66.4904 27.959 66.6551 28.0847C66.8218 28.2082 67.0297 28.27 67.2787 28.27Z" fill="#419456"/>
<path d="M69.4461 28.5172V25.1807H69.8042V26.7871L71.3819 25.1807H71.879L70.2272 26.8489L72.1137 28.5172H71.561L69.8042 26.9107V28.5172H69.4461Z" fill="#419456"/>
<path d="M74.9938 25.1807V28.5172H74.6449V25.7769L72.7368 28.5172H72.425V25.1807H72.7739V27.9086L74.682 25.1807H74.9938Z" fill="#419456"/>
<path d="M23.3145 32.5703L24.5765 33.5713L23.3145 32.5703Z" fill="#419456"/>
<path d="M7.37473 13.3328C7.38393 13.9073 7.34718 14.4817 7.26482 15.0504C7.19781 15.4582 7.06005 15.8512 6.85772 16.2118C6.57593 16.7599 6.14024 17.2142 5.60386 17.5193C5.0375 17.8364 4.39684 17.9975 3.7475 17.9863C3.23258 17.9914 2.72118 17.9012 2.2392 17.7204C1.80124 17.5533 1.39919 17.3045 1.05455 16.9874C0.71878 16.6737 0.453732 16.2924 0.276992 15.8687C0.0896601 15.4184 -0.00450027 14.9349 0.000165269 14.4474C-0.00318387 14.077 0.0454613 13.708 0.144685 13.3511C0.23044 13.0387 0.368043 12.7429 0.551782 12.476C0.716717 12.2361 0.932917 12.0357 1.18482 11.8892C1.43323 11.7504 1.71433 11.6803 1.99901 11.6862C2.17131 11.6819 2.34272 11.712 2.50317 11.7748C2.66362 11.8375 2.80986 11.9317 2.9333 12.0516C3.05662 12.1705 3.15378 12.3136 3.21861 12.472C3.28344 12.6303 3.31452 12.8004 3.30987 12.9714C3.31272 13.106 3.28194 13.2393 3.22031 13.3592C3.16128 13.4708 3.09614 13.5257 3.01676 13.5257C2.97198 13.5257 2.91295 13.4891 2.83967 13.414C2.74279 13.3243 2.63863 13.2428 2.52824 13.1703C2.44083 13.1182 2.34107 13.0901 2.2392 13.0891C2.08412 13.095 1.93342 13.1421 1.80277 13.2256C1.67212 13.3092 1.56628 13.4261 1.49625 13.5642C1.2864 13.9153 1.18185 14.3191 1.195 14.7276C1.17144 15.3998 1.40172 16.0562 1.84025 16.5671C2.03959 16.8027 2.28937 16.9906 2.57118 17.1171C2.853 17.2436 3.15969 17.3054 3.46864 17.298C4.20752 17.298 4.73471 17.0179 5.0441 16.4575C5.3535 15.8971 5.51226 14.9571 5.51226 13.6414V5.25201C5.51226 4.89873 5.51226 4.61651 5.48987 4.40941C5.48302 4.24036 5.44145 4.07451 5.36774 3.92213C5.30707 3.80595 5.20879 3.71364 5.08888 3.66022C4.92405 3.59463 4.75283 3.54632 4.57798 3.51606C4.38664 3.47139 4.28894 3.37597 4.28894 3.22775C4.28894 3.00644 4.40699 2.89478 4.64515 2.89478H7.73502C8.10547 2.89478 8.2907 3.00644 8.2907 3.22775C8.29397 3.26522 8.28871 3.30294 8.27532 3.3381C8.26192 3.37325 8.24074 3.40494 8.21336 3.43079C8.0925 3.50769 7.96171 3.5678 7.82458 3.60946C7.73573 3.65738 7.65361 3.71677 7.58032 3.7861C7.5132 3.85513 7.46546 3.94055 7.44191 4.0338C7.40693 4.17949 7.3885 4.32864 7.38695 4.47844C7.38695 4.66321 7.37473 4.917 7.37473 5.24185V13.3328Z" fill="#419456"/>
<path d="M12.1416 8.3909C12.7355 8.39115 13.3199 8.53983 13.8413 8.82337C14.3857 9.11785 14.8691 9.51262 15.2661 9.98675C15.6904 10.4893 16.0213 11.0634 16.2431 11.6821C16.4834 12.3383 16.604 13.0321 16.5994 13.7307C16.6074 14.3016 16.5087 14.8689 16.3083 15.4037C16.1244 15.8978 15.8481 16.3525 15.4941 16.7437C15.1422 17.1208 14.7188 17.4244 14.2484 17.6371C13.7759 17.8584 13.26 17.9722 12.738 17.9701C12.144 17.9709 11.5582 17.8318 11.0282 17.564C10.4942 17.2975 10.0183 16.9284 9.62782 16.4778C9.21622 15.9984 8.89612 15.4479 8.68335 14.8535C8.4536 14.2168 8.33919 13.5445 8.34546 12.8678C8.33994 12.2642 8.43769 11.6641 8.6345 11.0933C8.81012 10.574 9.08142 10.092 9.43444 9.67205C9.76578 9.28006 10.1737 8.95951 10.6333 8.72997C11.1024 8.50033 11.6192 8.38417 12.1416 8.3909ZM11.7345 8.98985C11.4632 8.98956 11.1963 9.05865 10.9593 9.19052C10.7224 9.32239 10.5232 9.51264 10.3809 9.74311C10.0084 10.3314 9.82578 11.0195 9.85783 11.7146C9.85775 12.4363 9.95149 13.1549 10.1367 13.8525C10.3066 14.5184 10.5719 15.1564 10.9244 15.7468C11.531 16.7525 12.2719 17.2547 13.1472 17.2534C13.4222 17.2618 13.6947 17.1988 13.938 17.0707C14.1814 16.9426 14.3872 16.7537 14.5354 16.5224C14.8665 16.0352 15.0327 15.3631 15.0341 14.5063C15.036 13.81 14.9429 13.1167 14.7572 12.4455C14.5919 11.8284 14.3455 11.2358 14.0245 10.6832C13.7514 10.2151 13.3931 9.80194 12.9681 9.46495C12.6262 9.17133 12.1936 9.00362 11.7427 8.98985H11.7345Z" fill="#419456"/>
<path d="M34.6399 17.365C34.6399 17.5721 34.5219 17.6757 34.2858 17.6757H31.6844C31.5641 17.6858 31.4432 17.6663 31.3323 17.6188C31.2712 17.5843 31.2427 17.5051 31.2427 17.3873C31.2399 17.3327 31.2559 17.2787 31.2881 17.2343C31.3203 17.19 31.3668 17.158 31.4198 17.1437C31.6135 17.0728 31.7913 16.9645 31.9429 16.8249C32.0372 16.677 32.0794 16.502 32.063 16.3275C32.063 16.2382 32.063 16.1001 32.0528 15.9052C32.0426 15.7103 32.0345 15.558 32.0182 15.4423L31.5501 11.5603C31.4605 10.7617 31.3126 10.2074 31.1063 9.89741C30.9946 9.74001 30.8436 9.61437 30.6684 9.53284C30.4931 9.45131 30.2996 9.41672 30.1069 9.43246C29.6571 9.45052 29.2293 9.63173 28.9039 9.94207C28.4911 10.3003 28.1654 10.7474 27.9513 11.2496V15.4606C27.9513 15.7712 27.9513 16.0209 27.9696 16.2118C27.9803 16.3733 28.0111 16.5329 28.0612 16.6869C28.0944 16.7972 28.1554 16.8971 28.2383 16.9772C28.3292 17.054 28.4353 17.1107 28.5497 17.1437C28.613 17.1544 28.6703 17.1872 28.7114 17.2364C28.7525 17.2855 28.7745 17.3477 28.7737 17.4117C28.7737 17.5863 28.6434 17.6757 28.393 17.6757H23.0336C22.7832 17.6757 22.657 17.5782 22.657 17.3873C22.6525 17.3268 22.6723 17.2669 22.712 17.2209C22.7953 17.1615 22.8904 17.1207 22.9908 17.1011C23.3314 16.9806 23.5017 16.7139 23.5017 16.3011C23.5017 16.226 23.5017 16.1326 23.5017 16.0128C23.5017 15.893 23.4814 15.7915 23.4671 15.7022L22.9338 11.2719C22.7981 10.0537 22.3313 9.44464 21.5334 9.44464C21.0911 9.46853 20.6709 9.6451 20.3447 9.9441C19.9186 10.293 19.5747 10.7311 19.3371 11.2273V15.4606C19.3371 15.7712 19.3371 16.0209 19.3616 16.2118C19.3691 16.3734 19.3985 16.5332 19.4491 16.6869C19.4839 16.7965 19.5446 16.896 19.6262 16.9772C19.7174 17.0535 19.8234 17.1102 19.9376 17.1437C20.0007 17.1544 20.0578 17.1874 20.0985 17.2366C20.1392 17.2858 20.1609 17.3479 20.1595 17.4117C20.1595 17.5863 20.0353 17.6757 19.7829 17.6757H17.3688C17.1164 17.6757 16.9923 17.5863 16.9923 17.4117C16.9909 17.3479 17.0125 17.2858 17.0532 17.2366C17.094 17.1874 17.1511 17.1544 17.2141 17.1437C17.3285 17.1107 17.4347 17.054 17.5255 16.9772C17.6107 16.8978 17.6738 16.7978 17.7087 16.6869C17.7569 16.5342 17.7842 16.3758 17.7902 16.2158C17.8044 16.025 17.8126 15.7753 17.8126 15.4646V5.45501C17.8126 5.26213 17.8126 5.10985 17.8024 5.00021C17.8012 4.90777 17.7789 4.81682 17.7372 4.73424C17.699 4.66658 17.6453 4.60886 17.5805 4.56572C17.4839 4.50782 17.3832 4.45693 17.2793 4.41344C17.238 4.38733 17.2043 4.35094 17.1814 4.30785C17.1586 4.26477 17.1474 4.21649 17.149 4.16777C17.149 4.05204 17.2508 3.93225 17.4604 3.81449L18.5921 3.06123C18.7692 2.94347 18.8873 2.87038 18.9463 2.8379C19.01 2.80844 19.0797 2.79386 19.1499 2.79526C19.2394 2.79526 19.2964 2.82165 19.3168 2.87241C19.343 3.01842 19.3498 3.16724 19.3371 3.31503V10.2527C20.287 8.94923 21.2308 8.29749 22.1685 8.29749C22.5162 8.30109 22.8577 8.38957 23.1632 8.55521C23.4687 8.72085 23.7289 8.9586 23.921 9.24769C24.0553 9.45939 24.1569 9.69005 24.2223 9.93192C24.2793 10.1593 24.3485 10.5268 24.4259 11.0283L24.9897 15.8098C25.0182 16.0778 25.0426 16.2828 25.067 16.4311C25.0813 16.5569 25.123 16.6782 25.1892 16.7864C25.2495 16.873 25.3271 16.9462 25.4171 17.0016C25.5344 17.0783 25.6718 17.1186 25.812 17.1173C25.8725 17.1175 25.9323 17.1047 25.9875 17.0798C26.0426 17.0549 26.0917 17.0186 26.1316 16.9732C26.2145 16.8927 26.276 16.7929 26.3107 16.6828C26.3603 16.5289 26.3897 16.3692 26.3982 16.2077C26.4125 16.0169 26.4227 15.7671 26.4227 15.4565V11.1623C26.4227 10.8801 26.4227 10.6628 26.4105 10.5065C26.4079 10.3834 26.3887 10.2611 26.3535 10.1431C26.3317 10.0639 26.2808 9.99573 26.211 9.95222C26.1418 9.91771 26.042 9.86898 25.9118 9.8101C25.8364 9.78168 25.7998 9.69843 25.7998 9.56443C25.8093 9.49065 25.8363 9.42017 25.8784 9.35876C25.9205 9.29736 25.9766 9.24677 26.042 9.21115L27.3529 8.36856C27.4605 8.27622 27.5915 8.21512 27.7315 8.19192C27.8801 8.19192 27.9554 8.38277 27.9554 8.7665V10.2527C28.346 9.68323 28.8273 9.18122 29.3802 8.7665C29.7956 8.46857 30.2935 8.3068 30.8051 8.30358C31.164 8.30565 31.5157 8.40457 31.8228 8.58986C32.1289 8.76376 32.3821 9.01703 32.5556 9.32282C32.7469 9.63346 32.8955 10.208 32.9973 11.0506L33.5306 15.6372C33.5774 15.9478 33.6181 16.1955 33.6548 16.3803C33.6784 16.5267 33.7266 16.6681 33.7972 16.7985C33.8523 16.8888 33.9341 16.9597 34.0313 17.0016C34.156 17.0541 34.2865 17.0915 34.4201 17.1133C34.5728 17.1803 34.6399 17.2635 34.6399 17.365Z" fill="#419456"/>
<path d="M2.36094 14.1061C2.98067 13.9836 3.392 13.4259 3.27966 12.8605C3.16733 12.2952 2.57388 11.9362 1.95415 12.0587C1.33442 12.1812 0.923094 12.7388 1.03543 13.3042C1.14776 13.8696 1.74121 14.2286 2.36094 14.1061Z" fill="#419456"/>
<path d="M11.3501 6.44172C11.9059 6.31077 12.2563 5.78175 12.1328 5.26011C12.0093 4.73846 11.4586 4.42175 10.9028 4.55269C10.347 4.68364 9.99662 5.21267 10.1201 5.73431C10.2437 6.25595 10.7944 6.57267 11.3501 6.44172Z" fill="#419456"/>
<path d="M14.4418 4.39821C14.8222 3.81166 14.6371 3.0177 14.0283 2.62485C13.4195 2.23199 12.6176 2.38901 12.2371 2.97556C11.8567 3.56211 12.0419 4.35607 12.6507 4.74892C13.2595 5.14178 14.0614 4.98476 14.4418 4.39821Z" fill="#419456"/>
<path d="M13.0834 7.56811C13.4687 7.36672 13.6314 6.91842 13.4467 6.56681C13.2621 6.21519 12.7999 6.0934 12.4146 6.29478C12.0292 6.49617 11.8665 6.94447 12.0512 7.29609C12.2359 7.6477 12.698 7.76949 13.0834 7.56811Z" fill="#419456"/>
<path d="M66.6221 14.9568C66.626 15.3483 66.5498 15.7366 66.3982 16.0978C66.2542 16.4425 66.0408 16.7541 65.7712 17.0132C65.5016 17.2724 65.1816 17.4736 64.8309 17.6043C64.2291 17.8068 63.5973 17.9056 62.9623 17.8967C62.1766 17.8967 61.2525 17.8378 60.4444 17.5394C59.4735 17.1739 58.9442 16.6054 58.1606 15.7831C57.9122 15.2694 57.7799 15.107 57.6476 14.6157C57.5153 14.1243 57.2935 12.7883 57.2935 12.7883C57.7821 12.4587 58.2473 12.0958 58.6857 11.7021C58.8669 13.0076 59.0094 13.5497 59.3289 14.3761C59.8887 15.7973 60.479 16.38 61.4866 16.8734C61.8204 17.0358 62.7832 17.1861 63.4671 17.0927C63.9177 17.0635 64.3426 16.8731 64.664 16.5567C64.8168 16.4004 64.9351 16.2141 65.0116 16.0095C65.088 15.805 65.1207 15.5868 65.1077 15.3689C65.1084 15.1213 65.0563 14.8763 64.955 14.6502C64.8633 14.4399 64.724 14.2536 64.5479 14.106C64.3376 13.9402 64.1019 13.8092 63.8498 13.7182C63.5587 13.6066 63.0966 13.4482 62.4595 13.2431C61.9835 13.0968 61.5166 12.9226 61.0611 12.7213C60.7412 12.5809 60.4414 12.3986 60.1696 12.1792C59.9631 12.0071 59.8035 11.7857 59.7055 11.5356C59.6125 11.2751 59.567 11 59.5712 10.7235C59.5705 10.3848 59.6398 10.0496 59.7747 9.73877C59.9018 9.43345 60.0801 9.15194 60.3019 8.90633C60.5221 8.67208 60.7718 8.46733 61.0449 8.29723C61.4193 8.0816 61.8358 7.94866 62.2662 7.9074C62.4292 7.89233 62.593 7.88623 62.7567 7.88913C63.1053 7.89601 63.45 7.96476 63.7744 8.09216C64.3851 8.36626 64.6436 8.47183 65.1118 8.9043C65.1834 8.97236 65.2514 9.0442 65.3153 9.11952C65.6186 9.45249 65.9056 10.1347 65.5636 10.5976C65.3747 10.8154 65.1105 10.9542 64.8236 10.9863C64.5367 11.0185 64.2481 10.9416 64.0155 10.771C63.7829 10.6005 63.6232 10.3487 63.5684 10.066C63.5135 9.78321 63.5675 9.49023 63.7195 9.2454C63.8167 9.11331 63.9464 9.00843 64.0961 8.94085C64.067 8.92434 64.0371 8.90943 64.0065 8.89618C63.4625 8.63335 62.8516 8.54063 62.2539 8.6302C61.8624 8.70702 61.5033 8.90025 61.224 9.18449C61.0983 9.30422 60.9991 9.44874 60.9325 9.60883C60.8659 9.76893 60.8335 9.9411 60.8372 10.1144C60.8308 10.2524 60.8542 10.3902 60.9059 10.5184C60.9575 10.6466 61.0361 10.7622 61.1365 10.8575C61.4394 11.0927 61.7925 11.2553 62.1684 11.3326C62.8809 11.5424 63.5139 11.7495 64.0676 11.9539C64.4943 12.102 64.9071 12.2875 65.3011 12.5082C65.7084 12.7667 66.0416 13.1263 66.2679 13.5518C66.5005 13.9837 66.6222 14.4664 66.6221 14.9568Z" fill="#419456"/>
<path d="M42.3593 16.6846C42.3265 16.8352 42.2822 16.9832 42.227 17.1272C42.1907 17.2171 42.1335 17.2972 42.06 17.3607C41.9814 17.4164 41.8895 17.4507 41.7934 17.4601C41.6495 17.4765 41.5047 17.4839 41.3598 17.4825C41.1456 17.5082 40.9292 17.4571 40.7492 17.3383C40.6454 17.2429 40.5355 16.9871 40.4174 16.5729L36.9327 4.5634C36.8594 4.34209 36.7922 4.15733 36.7291 4.00911C36.6804 3.88138 36.6117 3.76215 36.5256 3.65583C36.4537 3.57256 36.3667 3.50366 36.2691 3.4528C36.1523 3.39225 36.0295 3.34394 35.9027 3.30865C35.8272 3.29761 35.7586 3.25876 35.7103 3.19976C35.6621 3.14076 35.6378 3.06588 35.6422 2.98988C35.6394 2.95028 35.6471 2.91064 35.6646 2.87499C35.6822 2.83933 35.7088 2.80893 35.7419 2.78685C35.866 2.74088 35.9986 2.72218 36.1307 2.73203H39.306C39.5869 2.73203 39.7274 2.82948 39.7274 3.02034C39.7274 3.16855 39.6317 3.26398 39.4383 3.30865C39.247 3.33903 39.0671 3.41961 38.9173 3.54213C38.864 3.60409 38.8237 3.6761 38.7989 3.75388C38.7741 3.83166 38.7652 3.91362 38.7727 3.9949C38.7903 4.32887 38.859 4.6582 38.9763 4.9715L42.0641 15.576L44.5739 6.51253L44.1912 5.07301C43.9551 4.09845 43.6511 3.5374 43.2793 3.38986C43.1502 3.3382 43.0244 3.27852 42.9027 3.21119C42.858 3.18276 42.8356 3.11576 42.8356 3.00815C42.8297 2.96147 42.8383 2.91411 42.8601 2.87239C42.8819 2.83068 42.916 2.79659 42.9577 2.77466C43.1201 2.72746 43.2896 2.70891 43.4584 2.71985H46.3081C46.6032 2.71985 46.7518 2.82339 46.7518 3.03049C46.7518 3.1787 46.6562 3.27413 46.4628 3.3188C46.3836 3.32311 46.306 3.34331 46.2348 3.37819C46.1636 3.41306 46.1001 3.46191 46.0483 3.5218C45.9964 3.58169 45.9572 3.6514 45.9329 3.72675C45.9087 3.80211 45.8999 3.88157 45.9071 3.96039C45.9057 4.06496 45.9173 4.16931 45.9417 4.27103C45.9641 4.36036 46.0109 4.54512 46.0862 4.82531L49.1395 15.44L51.9607 5.6009C52.0285 5.37872 52.0843 5.15302 52.1276 4.9248C52.1503 4.77429 52.1612 4.62222 52.1601 4.47C52.1768 4.21213 52.1189 3.95489 51.9932 3.72893C51.8489 3.53478 51.6406 3.39749 51.405 3.34113C51.1526 3.28225 51.0264 3.16246 51.0264 2.98582C51.0234 2.94481 51.0324 2.90383 51.0523 2.86781C51.0721 2.83178 51.102 2.80226 51.1383 2.78279C51.2737 2.73672 51.417 2.71809 51.5597 2.72797H53.8822C54.0081 2.71679 54.1347 2.73995 54.2485 2.79497C54.2848 2.82363 54.3132 2.86103 54.331 2.90365C54.3488 2.94628 54.3555 2.99272 54.3503 3.03861C54.3503 3.18682 54.2607 3.28225 54.0837 3.32692C53.9107 3.37253 53.7429 3.4358 53.5829 3.51574C53.4457 3.59206 53.3307 3.70259 53.2491 3.83654C53.1334 4.02816 53.0405 4.23257 52.9723 4.44564C52.8827 4.71161 52.7687 5.06692 52.6385 5.50954L49.4631 16.4734C49.3878 16.7231 49.3288 16.916 49.284 17.048C49.2514 17.1615 49.1904 17.2649 49.1069 17.3485C49.0292 17.4158 48.9308 17.4544 48.828 17.4581C48.7181 17.4662 48.5594 17.4703 48.3517 17.4703C48.2597 17.4789 48.1668 17.4685 48.079 17.4399C47.9911 17.4113 47.91 17.3649 47.8408 17.3038C47.6905 17.0945 47.5845 16.8569 47.5294 16.6054L44.9077 7.57643L42.3593 16.6846Z" fill="#419456"/>
<path d="M58.5373 10.6565C58.4984 10.323 58.4303 9.99349 58.3338 9.67179C58.2628 9.44672 58.1578 9.23379 58.0223 9.04036C57.565 8.40554 56.8621 8.08745 55.9136 8.08609C55.0983 8.07452 54.2993 8.31417 53.6257 8.77235C53.3481 8.94988 53.0978 9.16668 52.8827 9.41597C52.7275 9.57065 52.6292 9.77314 52.6039 9.99056C52.6015 10.057 52.6169 10.1229 52.6486 10.1814C52.6614 10.2057 52.6808 10.2258 52.7046 10.2395C52.7284 10.2531 52.7556 10.2598 52.783 10.2586C52.8275 10.2511 52.8691 10.2314 52.9031 10.2017L53.0476 10.1022L53.3244 9.76113C53.3773 9.69522 53.4337 9.63219 53.4934 9.57231C53.5361 9.52764 53.5707 9.49312 53.5931 9.47282C53.6235 9.44302 53.6569 9.41649 53.6928 9.39363C53.8973 9.21383 54.1352 9.07585 54.3931 8.98757C54.6388 8.90038 54.8976 8.85508 55.1584 8.85356C56.225 8.85356 56.8356 9.46267 56.9903 10.6809L57.2326 12.3194C56.9521 12.1151 56.6462 11.9479 56.3227 11.8219C56.0513 11.7237 55.7646 11.6742 55.4759 11.6757C55.1048 11.6824 54.7374 11.751 54.389 11.8788C54.0027 12.0126 53.6369 12.1991 53.302 12.4331C52.8932 12.7033 52.5509 13.0621 52.3006 13.4827C52.0654 13.8828 51.943 14.3388 51.9464 14.8025C51.9429 15.2031 52.0255 15.5998 52.1886 15.9659C52.5218 16.701 53.1338 17.2742 53.8903 17.5597C54.2897 17.7182 54.7163 17.7975 55.1462 17.7932C56.2069 17.814 57.2368 17.4373 58.0325 16.7374C58.3175 16.4856 58.5963 16.2034 58.5963 16.2034L59.1215 14.8735L58.5373 10.6565ZM55.6734 17.0379C55.3818 17.0389 55.0938 16.9744 54.8307 16.8491C54.5634 16.7256 54.3244 16.5487 54.1284 16.3293C53.9267 16.1041 53.7656 15.8459 53.6521 15.5659C53.4806 15.1298 53.4325 14.6552 53.5129 14.1937C53.5933 13.7322 53.7992 13.3016 54.1081 12.9488C54.3057 12.7316 54.5476 12.5591 54.8176 12.4428C55.0876 12.3265 55.3794 12.2692 55.6734 12.2747C55.9691 12.2686 56.2622 12.3326 56.5283 12.4615C56.8401 12.6428 57.1161 12.8795 57.3425 13.1599L57.6987 15.842C57.1925 16.6393 56.5174 17.0379 55.6734 17.0379Z" fill="#419456"/>
<path d="M69.3561 10.0818C70.306 8.78106 71.2464 8.13067 72.1773 8.13067C72.5233 8.13223 72.8634 8.22017 73.1665 8.38649C73.4776 8.5489 73.7412 8.78881 73.9319 9.0829C74.0603 9.29322 74.1577 9.52093 74.2209 9.75901C74.2793 9.98776 74.3471 10.3539 74.4245 10.8574L75.0025 15.6429C75.0331 15.9089 75.0575 16.116 75.0799 16.2642C75.0948 16.3893 75.1365 16.5098 75.202 16.6175C75.2581 16.7069 75.3396 16.7776 75.4361 16.8205C75.5618 16.8756 75.6919 16.9204 75.8249 16.9545C75.8967 16.9674 75.9613 17.0061 76.0064 17.0634C76.0514 17.1207 76.0738 17.1925 76.0691 17.2652C76.0691 17.4276 75.9287 17.5088 75.6478 17.5088H73.0444C72.792 17.5088 72.6658 17.4114 72.6658 17.2205C72.6613 17.16 72.6811 17.1001 72.7208 17.054C72.8048 16.9955 72.8995 16.9541 72.9996 16.9322C73.3389 16.8145 73.5092 16.5485 73.5105 16.1343C73.5105 16.0612 73.5105 15.9658 73.4983 15.846C73.493 15.7419 73.4821 15.6382 73.4657 15.5353L72.9324 11.1051C72.8001 9.88692 72.332 9.27781 71.5341 9.27781C71.0916 9.29963 70.6709 9.47568 70.3453 9.77525C69.9257 10.1226 69.588 10.558 69.3561 11.0503V15.2917C69.3561 15.6023 69.3561 15.8541 69.3785 16.045C69.3872 16.2072 69.4173 16.3677 69.468 16.5221C69.501 16.6319 69.562 16.7313 69.6451 16.8104C69.7363 16.8868 69.8423 16.9435 69.9566 16.9769C70.0193 16.9875 70.0761 17.0202 70.1168 17.069C70.1575 17.1177 70.1793 17.1794 70.1784 17.2429C70.1784 17.4195 70.0522 17.5088 69.7998 17.5088H67.3796C67.1272 17.5088 67.001 17.4195 67.001 17.2429C66.9997 17.1793 67.0214 17.1174 67.0622 17.0685C67.1029 17.0197 67.16 16.9871 67.2229 16.9769C67.3372 16.9435 67.4432 16.8868 67.5343 16.8104C67.6161 16.7302 67.677 16.6312 67.7114 16.5221C67.7622 16.3677 67.7923 16.2072 67.801 16.045C67.8152 15.8541 67.8234 15.6023 67.8234 15.2917V5.27194C67.8234 5.08109 67.8234 4.92882 67.8112 4.81715C67.8097 4.72539 67.7874 4.63517 67.746 4.5532C67.7077 4.48615 67.654 4.4291 67.5893 4.38671C67.4941 4.32632 67.394 4.27403 67.2901 4.23038C67.2481 4.20525 67.2135 4.16946 67.1899 4.12665C67.1663 4.08385 67.1545 4.03557 67.1557 3.98673C67.1557 3.86897 67.2595 3.75122 67.4672 3.63346L68.6009 2.8802C68.7156 2.79943 68.8345 2.72487 68.9571 2.65686C69.0206 2.62669 69.0904 2.61207 69.1607 2.61422C69.2482 2.61422 69.3052 2.63859 69.3276 2.69138C69.3578 2.84098 69.3687 2.99381 69.3602 3.14617L69.3561 10.0818Z" fill="#419456"/>
</svg>
